<?xml version="1.0" encoding="UTF-8" standalone="no"?>
<!-- Created with Inkscape (http://www.inkscape.org/) -->

<svg
   xmlns:dc="http://purl.org/dc/elements/1.1/"
   xmlns:cc="http://creativecommons.org/ns#"
   xmlns:rdf="http://www.w3.org/1999/02/22-rdf-syntax-ns#"
   xmlns:svg="http://www.w3.org/2000/svg"
   xmlns="http://www.w3.org/2000/svg"
   xmlns:sodipodi="http://sodipodi.sourceforge.net/DTD/sodipodi-0.dtd"
   xmlns:inkscape="http://www.inkscape.org/namespaces/inkscape"
   id="svg6577"
   version="1.1"
   inkscape:version="0.48.4 r9939"
   width="1000"
   height="1000"
   xml:space="preserve"
   sodipodi:docname="08 FINGER.eps"><metadata
     id="metadata6583"><rdf:RDF><cc:Work
         rdf:about=""><dc:format>image/svg+xml</dc:format><dc:type
           rdf:resource="http://purl.org/dc/dcmitype/StillImage" /><dc:title></dc:title></cc:Work></rdf:RDF></metadata><defs
     id="defs6581" /><sodipodi:namedview
     pagecolor="#ffffff"
     bordercolor="#666666"
     borderopacity="1"
     objecttolerance="10"
     gridtolerance="10"
     guidetolerance="10"
     inkscape:pageopacity="0"
     inkscape:pageshadow="2"
     inkscape:window-width="640"
     inkscape:window-height="480"
     id="namedview6579"
     showgrid="false"
     inkscape:zoom="0.236"
     inkscape:cx="500"
     inkscape:cy="500"
     inkscape:window-x="65"
     inkscape:window-y="24"
     inkscape:window-maximized="0"
     inkscape:current-layer="g6585" /><g
     id="g6585"
     inkscape:groupmode="layer"
     inkscape:label="ink_ext_XXXXXX"
     transform="matrix(1.25,0,0,-1.25,0,1000)"><path
       inkscape:connector-curvature="0"
       id="path6591"
       style="fill:#dc434a;fill-opacity:1;fill-rule:nonzero;stroke:none"
       d="m 400.03,127.291 c -163.477,0 -296,132.524 -296,296 0,163.476 132.523,296 296,296 163.476,0 295.999,-132.524 295.999,-296 0,-163.476 -132.523,-296 -295.999,-296" /><g
       id="g6832"
       transform="translate(0,16.949153)"
       style="fill:#ffff00"><path
         d="m 475.326,639.527 c -4.013,4.246 -8.189,8.093 -12.53,11.487 -3.532,1.856 -7.071,3.651 -10.617,5.381 -8.321,4.059 -16.829,7.568 -25.504,10.55 -4.688,0.613 -9.519,0.724 -14.496,0.29 13.13,-3.606 25.897,-8.411 38.246,-14.435 8.338,-4.067 16.639,-8.501 24.901,-13.273"
         style="fill:#ffff00;fill-opacity:1;fill-rule:nonzero;stroke:none"
         id="path6593"
         inkscape:connector-curvature="0" /><path
         d="m 495,613.839 c -1.944,3.058 -3.938,6.026 -5.98,8.893 -11.8,7.833 -23.503,14.899 -35.194,21.262 -18.818,10.242 -37.912,16.978 -56.767,20.889 -3.305,-0.666 -6.585,-1.413 -9.83,-2.255 21.401,-3.429 43.227,-10.469 64.685,-22.148 14.286,-7.775 28.598,-16.62 43.086,-26.641"
         style="fill:#ffff00;fill-opacity:1;fill-rule:nonzero;stroke:none"
         id="path6595"
         inkscape:connector-curvature="0" /><path
         d="m 508.223,590.32 c -1.417,2.832 -2.868,5.619 -4.348,8.358 -15.713,11.848 -31.814,22.935 -48.407,32.913 -25.345,15.241 -53.401,24.293 -82.373,26.734 -3.075,-1.071 -6.112,-2.224 -9.11,-3.454 31.465,-1.161 62.055,-10.252 89.422,-26.708 18.844,-11.331 37.068,-24.121 54.816,-37.843"
         style="fill:#ffff00;fill-opacity:1;fill-rule:nonzero;stroke:none"
         id="path6597"
         inkscape:connector-curvature="0" /><path
         d="m 454.905,615.847 c 21.978,-14.487 43.06,-30.851 63.541,-47.933 -1.132,2.713 -2.29,5.403 -3.472,8.068 -18.684,15.353 -37.895,30.039 -57.868,43.205 -32.315,21.299 -69.14,31.443 -106.688,29.444 -2.904,-1.489 -5.766,-3.048 -8.569,-4.692 1.904,0.201 3.811,0.375 5.721,0.512 37.749,2.69 74.863,-7.201 107.335,-28.604"
         style="fill:#ffff00;fill-opacity:1;fill-rule:nonzero;stroke:none"
         id="path6599"
         inkscape:connector-curvature="0" /><path
         d="m 456.408,603.53 c 24.491,-17.575 47.79,-37.3 70.37,-57.152 -0.944,2.629 -1.91,5.249 -2.897,7.856 -20.927,18.271 -42.508,36.304 -65.141,52.546 -32.94,23.638 -70.681,34.525 -109.15,31.479 -7.174,-0.568 -14.287,-1.634 -21.29,-3.157 -2.695,-1.948 -5.327,-3.972 -7.891,-6.072 9.616,2.678 19.496,4.449 29.497,5.241 37.513,2.97 74.34,-7.66 106.502,-30.741"
         style="fill:#ffff00;fill-opacity:1;fill-rule:nonzero;stroke:none"
         id="path6601"
         inkscape:connector-curvature="0" /><path
         d="m 457.915,591.216 c 25.995,-20.195 50.547,-42.593 74.29,-64.253 0.529,-0.483 1.055,-0.962 1.583,-1.443 -0.804,2.554 -1.627,5.109 -2.469,7.662 -22.69,20.692 -46.135,41.914 -70.951,61.193 -32.664,25.376 -70.182,37.032 -108.495,33.704 -15.428,-1.34 -30.464,-5.13 -44.613,-11.12 -2.402,-2.463 -4.721,-5.002 -6.953,-7.618 16.182,8.117 33.769,13.178 51.912,14.753 37.292,3.236 73.842,-8.131 105.696,-32.878"
         style="fill:#ffff00;fill-opacity:1;fill-rule:nonzero;stroke:none"
         id="path6603"
         inkscape:connector-curvature="0" /><path
         d="m 459.427,578.901 c 21.588,-18.068 42.115,-37.499 61.966,-56.291 6.182,-5.852 12.305,-11.647 18.388,-17.335 -0.691,2.484 -1.403,4.98 -2.132,7.482 -4.474,4.208 -8.975,8.468 -13.506,12.758 -19.895,18.833 -40.467,38.307 -62.15,56.454 -32.388,27.106 -69.688,39.526 -107.861,35.928 -23.587,-2.225 -46.005,-10.594 -65.527,-24.188 -1.922,-2.956 -3.743,-5.986 -5.457,-9.087 20.674,16.627 45.285,26.833 71.359,29.293 37.085,3.502 73.368,-8.609 104.92,-35.014"
         style="fill:#ffff00;fill-opacity:1;fill-rule:nonzero;stroke:none"
         id="path6605"
         inkscape:connector-curvature="0" /><path
         d="m 357.442,603.799 c 36.145,3.471 72.902,-9.743 103.5,-37.213 18.307,-16.435 35.807,-33.737 52.731,-50.469 10.554,-10.434 20.949,-20.708 31.275,-30.513 -0.597,2.414 -1.213,4.847 -1.846,7.295 -8.791,8.442 -17.647,17.194 -26.617,26.062 -16.958,16.766 -34.492,34.102 -52.871,50.601 -31.44,28.227 -69.283,41.801 -106.554,38.219 -31.199,-2.997 -59.931,-17.476 -82.372,-41.201 -1.61,-3.913 -3.148,-7.697 -4.615,-11.356 22.694,28.125 53.548,45.326 87.369,48.575"
         style="fill:#ffff00;fill-opacity:1;fill-rule:nonzero;stroke:none"
         id="path6607"
         inkscape:connector-curvature="0" /><path
         d="m 359.299,593.58 c 36.102,3.84 72.739,-10.118 103.163,-39.309 15.759,-15.121 30.893,-30.8 45.529,-45.963 14.002,-14.506 27.743,-28.736 41.433,-41.84 -0.516,2.342 -1.048,4.709 -1.6,7.105 -12.2,11.873 -24.472,24.582 -36.955,37.513 -14.662,15.19 -29.823,30.897 -45.638,46.071 -31.29,30.022 -69.06,44.37 -106.356,40.4 -36.394,-3.874 -68.856,-24.397 -91.406,-57.788 -2.38,-3.524 -4.79,-6.893 -7.218,-10.129 -1.466,-4.039 -2.83,-7.93 -4.104,-11.708 4.932,5.977 9.834,12.488 14.636,19.599 21.879,32.396 53.315,52.302 88.516,56.049"
         style="fill:#ffff00;fill-opacity:1;fill-rule:nonzero;stroke:none"
         id="path6609"
         inkscape:connector-curvature="0" /><path
         d="m 361.281,583.366 c 36.015,4.172 72.493,-10.534 102.703,-41.411 13.72,-14.022 26.95,-28.406 39.745,-42.317 16.752,-18.213 33.147,-36.028 49.561,-51.788 -0.44,2.263 -0.899,4.567 -1.379,6.913 -14.953,14.666 -29.945,30.956 -45.238,47.583 -12.816,13.933 -26.068,28.34 -39.829,42.406 -31.095,31.781 -68.748,46.906 -106.024,42.588 -36.425,-4.22 -68.343,-26.153 -89.872,-61.758 -7.032,-11.63 -14.387,-21.667 -21.722,-30.314 -0.788,-2.925 -1.515,-5.806 -2.196,-8.663 9.238,10.156 18.524,22.326 27.341,36.907 20.875,34.524 51.74,55.78 86.91,59.854"
         style="fill:#ffff00;fill-opacity:1;fill-rule:nonzero;stroke:none"
         id="path6611"
         inkscape:connector-curvature="0" /><path
         d="m 363.361,573.16 c 35.911,4.463 72.187,-10.994 102.151,-43.522 12.047,-13.078 23.708,-26.39 34.986,-39.264 19.488,-22.247 37.869,-43.216 56.122,-60.816 -0.368,2.18 -0.759,4.427 -1.171,6.737 -16.851,16.67 -33.918,36.139 -51.942,56.714 -11.294,12.893 -22.973,26.224 -35.054,39.339 -30.863,33.504 -68.355,49.405 -105.585,44.782 -35.962,-4.469 -68.195,-28.428 -88.433,-65.732 -9.988,-18.409 -20.835,-32.95 -31.358,-44.381 -0.391,-2.352 -0.755,-4.718 -1.094,-7.102 12.141,12.429 24.581,28.589 35.967,49.576 19.615,36.155 50.746,59.361 85.411,63.669"
         style="fill:#ffff00;fill-opacity:1;fill-rule:nonzero;stroke:none"
         id="path6613"
         inkscape:connector-curvature="0" /><path
         d="m 281.523,495.466 c 18.682,38.32 49.297,62.921 83.996,67.495 35.77,4.711 71.828,-11.493 101.522,-45.641 10.647,-12.245 20.99,-24.64 30.993,-36.627 21.293,-25.517 41.297,-49.484 61.309,-68.774 -0.284,2.058 -0.598,4.23 -0.943,6.517 -18.631,18.489 -37.393,40.971 -57.295,64.82 -10.015,12.002 -20.372,24.413 -31.046,36.689 -30.602,35.194 -67.914,51.882 -105.063,46.982 -36.053,-4.753 -67.788,-30.16 -87.068,-69.708 -11.909,-24.429 -25.386,-42.256 -38.019,-55.167 -0.191,-2.071 -0.368,-4.181 -0.538,-6.317 14.197,13.715 29.079,32.914 42.152,59.731"
         style="fill:#ffff00;fill-opacity:1;fill-rule:nonzero;stroke:none"
         id="path6615"
         inkscape:connector-curvature="0" /><path
         d="m 285.09,481.437 c 17.764,40.518 47.887,66.517 82.644,71.332 17.109,2.369 34.403,-0.364 51.402,-8.123 17.875,-8.16 34.508,-21.499 49.437,-39.645 9.46,-11.497 18.679,-23.089 27.595,-34.3 22.593,-28.408 43.762,-55.021 65.095,-75.651 -0.084,1.036 -0.165,2.07 -0.265,3.112 -0.091,0.949 -0.197,1.977 -0.316,3.065 -20.022,19.96 -40.061,45.152 -61.383,71.964 -8.926,11.223 -18.156,22.829 -27.636,34.351 -15.32,18.621 -32.434,32.328 -50.866,40.742 -17.702,8.081 -35.741,10.923 -53.612,8.446 -36.165,-5.009 -67.423,-31.867 -85.758,-73.687 -13.25,-30.222 -28.949,-50.66 -43.08,-64.33 -0.072,-1.815 -0.133,-3.711 -0.182,-5.664 15.212,13.962 32.518,35.527 46.925,68.388"
         style="fill:#ffff00;fill-opacity:1;fill-rule:nonzero;stroke:none"
         id="path6617"
         inkscape:connector-curvature="0" /><path
         d="m 288.652,467.403 c 16.858,42.746 46.506,70.147 81.341,75.178 34.95,5.041 71.441,-13.141 100.116,-49.9 8.436,-10.813 16.683,-21.686 24.659,-32.201 23.286,-30.7 45.083,-59.432 67.18,-81.107 -0.01,1.913 -0.045,3.835 -0.11,5.77 -20.902,21.103 -41.714,48.526 -63.884,77.755 -7.983,10.525 -16.238,21.409 -24.69,32.243 -29.583,37.922 -67.431,56.653 -103.843,51.399 -36.295,-5.242 -67.09,-33.551 -84.489,-77.669 -14.109,-35.774 -31.678,-58.258 -46.821,-72.201 0.034,-1.726 0.084,-3.476 0.147,-5.244 16.094,14.097 35.244,37.56 50.394,75.977"
         style="fill:#ffff00;fill-opacity:1;fill-rule:nonzero;stroke:none"
         id="path6619"
         inkscape:connector-curvature="0" /><path
         d="m 474.86,482.741 c -29.273,39.501 -66.874,59.044 -103.169,53.613 -36.439,-5.452 -66.783,-35.212 -83.251,-81.651 -14.484,-40.844 -33.484,-64.896 -49.214,-78.843 0.146,-1.62 0.307,-3.243 0.486,-4.87 16.573,14.031 37.095,38.942 52.497,82.376 15.959,45 45.145,73.806 80.074,79.032 34.781,5.2 70.998,-13.764 99.364,-52.039 7.542,-10.177 14.938,-20.391 22.09,-30.269 23.456,-32.397 45.421,-62.729 67.784,-85.269 0.116,1.802 0.209,3.613 0.279,5.432 -21.266,22.023 -42.351,51.145 -64.823,82.183 -7.159,9.887 -14.561,20.11 -22.117,30.305"
         style="fill:#ffff00;fill-opacity:1;fill-rule:nonzero;stroke:none"
         id="path6621"
         inkscape:connector-curvature="0" /><path
         d="m 476.457,470.343 c -28.957,41.054 -66.3,61.405 -102.474,55.829 -36.592,-5.64 -66.491,-36.852 -82.031,-85.633 -14.35,-45.046 -34.169,-70.287 -50.125,-84.203 0.275,-1.511 0.569,-3.013 0.88,-4.508 28.186,23.538 44.35,60.169 53.057,87.497 15.061,47.28 43.794,77.493 78.829,82.894 34.61,5.337 70.546,-14.413 98.595,-54.182 6.757,-9.581 13.402,-19.186 19.828,-28.475 23.213,-33.556 44.979,-65.015 67.197,-88.31 0.223,1.727 0.422,3.461 0.603,5.202 -21.209,22.793 -42.179,53.103 -64.51,85.384 -6.431,9.296 -13.081,18.909 -19.849,28.505"
         style="fill:#ffff00;fill-opacity:1;fill-rule:nonzero;stroke:none"
         id="path6623"
         inkscape:connector-curvature="0" /><path
         d="m 478.051,457.945 c -28.634,42.589 -65.721,63.752 -101.759,58.05 -36.753,-5.811 -66.212,-38.474 -80.824,-89.616 -7.909,-27.682 -22.772,-64.598 -49.298,-88.105 0.43,-1.385 0.885,-2.753 1.358,-4.104 28.044,24.084 43.594,62.438 51.786,91.11 14.166,49.582 42.451,81.206 77.603,86.763 34.434,5.447 70.086,-15.087 97.813,-56.329 6.06,-9.013 12.034,-18.043 17.81,-26.775 22.647,-34.233 43.925,-66.396 65.667,-90.359 0.309,1.645 0.596,3.297 0.869,4.954 -20.76,23.466 -41.463,54.753 -63.2,87.612 -5.78,8.738 -11.758,17.774 -17.825,26.799"
         style="fill:#ffff00;fill-opacity:1;fill-rule:nonzero;stroke:none"
         id="path6625"
         inkscape:connector-curvature="0" /><path
         d="m 554.778,334.91 c -11.674,-22.726 -47.494,-52.885 -98.551,-65.397 -36.357,-8.909 -91.369,-11.273 -146.991,28.067 -17.722,12.534 -36.479,16.533 -52.412,16.908 0.76,-1.345 1.533,-2.701 2.322,-4.067 14.729,-0.702 31.709,-4.74 47.78,-16.107 36.925,-26.116 73.584,-34.251 104.932,-34.25 16.918,10e-4 32.293,2.372 45.321,5.564 49.646,12.166 85.324,40.857 99.133,63.849 0.469,2.054 0.908,4.12 1.325,6.192 l -0.165,0.106 c -0.986,0.506 -2.189,0.117 -2.694,-0.865"
         style="fill:#ffff00;fill-opacity:1;fill-rule:nonzero;stroke:none"
         id="path6627"
         inkscape:connector-curvature="0" /><path
         d="m 455.978,259.095 c -36.399,-8.269 -91.542,-10.178 -147.539,27.688 -15.522,10.497 -31.53,15.56 -45.818,17.7 0.878,-1.482 1.768,-2.971 2.668,-4.467 12.917,-2.329 27.106,-7.211 40.91,-16.546 23.756,-16.064 49.606,-26.438 76.835,-30.835 9.959,-1.608 20.011,-2.411 30.115,-2.41 14.517,0 29.137,1.658 43.714,4.969 36.575,8.308 70.401,26.793 92.531,49.628 0.994,3.016 1.947,6.043 2.843,9.088 C 531.101,288.757 495.18,268 455.978,259.095"
         style="fill:#ffff00;fill-opacity:1;fill-rule:nonzero;stroke:none"
         id="path6629"
         inkscape:connector-curvature="0" /><path
         d="m 383.304,246.708 c -26.779,4.281 -52.234,14.132 -75.66,29.277 -12.874,8.324 -25.892,13.583 -37.987,16.842 1.026,-1.674 2.059,-3.351 3.097,-5.031 10.531,-3.211 21.673,-8.029 32.718,-15.17 32.958,-21.309 70.56,-32.31 108.978,-32.31 14.427,0 28.97,1.552 43.424,4.692 31.603,6.865 61.235,21.135 84.21,39.793 1.03,2.589 2.031,5.183 3.003,7.785 -23.131,-20.552 -54.442,-36.366 -88.063,-43.669 -24.625,-5.35 -49.427,-6.091 -73.72,-2.209"
         style="fill:#ffff00;fill-opacity:1;fill-rule:nonzero;stroke:none"
         id="path6631"
         inkscape:connector-curvature="0" /><path
         d="m 306.846,265.187 c -9.765,6.034 -19.516,10.649 -28.859,14.173 1.186,-1.906 2.369,-3.807 3.549,-5.704 7.583,-3.144 15.389,-7.04 23.208,-11.872 33.676,-20.811 71.798,-31.529 110.627,-31.528 15.597,0 31.31,1.729 46.892,5.228 26.456,5.942 50.999,16.55 71.965,30.748 0.162,0.368 0.325,0.733 0.488,1.1 0.93,2.096 1.843,4.193 2.744,6.293 -21.87,-15.955 -48.147,-27.966 -76.074,-34.238 -53.351,-11.979 -108.232,-2.818 -154.54,25.8"
         style="fill:#ffff00;fill-opacity:1;fill-rule:nonzero;stroke:none"
         id="path6633"
         inkscape:connector-curvature="0" /><path
         d="m 306.05,254.312 c -6.267,3.701 -12.492,6.938 -18.589,9.774 1.282,-2.083 2.545,-4.149 3.787,-6.195 4.216,-2.112 8.482,-4.418 12.769,-6.95 34.412,-20.317 73.206,-30.795 112.503,-30.795 15.177,0 30.432,1.561 45.536,4.725 23.011,4.819 44.875,13.278 64.546,24.69 1.017,2.125 2.021,4.273 3.017,6.441 -20.572,-12.731 -43.807,-22.104 -68.383,-27.251 -53.231,-11.15 -108.342,-2.096 -155.186,25.561"
         style="fill:#ffff00;fill-opacity:1;fill-rule:nonzero;stroke:none"
         id="path6635"
         inkscape:connector-curvature="0" /><path
         d="m 305.254,243.586 c -2.714,1.529 -5.412,2.99 -8.093,4.391 1.3,-2.225 2.554,-4.411 3.758,-6.554 0.789,-0.435 1.58,-0.875 2.371,-1.321 35.248,-19.869 74.756,-30.129 114.508,-30.129 14.709,0 29.458,1.406 44.027,4.25 19.796,3.865 38.679,10.272 56.226,18.936 1.18,2.048 2.325,4.131 3.444,6.242 -18.682,-9.868 -39.016,-17.07 -60.436,-21.253 -53.011,-10.345 -108.343,-1.314 -155.805,25.438"
         style="fill:#ffff00;fill-opacity:1;fill-rule:nonzero;stroke:none"
         id="path6637"
         inkscape:connector-curvature="0" /><path
         d="m 306.015,231.969 c 1.063,-2.073 2.054,-4.088 2.962,-6.032 34.507,-17.278 72.414,-26.201 110.238,-26.201 14.19,0 28.377,1.257 42.356,3.799 15.823,2.878 31.017,7.278 45.466,13.129 1.608,2.053 3.147,4.157 4.625,6.312 -16.014,-7.057 -33.003,-12.267 -50.807,-15.505 -52.109,-9.477 -107.023,-0.769 -154.84,24.498"
         style="fill:#ffff00;fill-opacity:1;fill-rule:nonzero;stroke:none"
         id="path6639"
         inkscape:connector-curvature="0" /><path
         d="m 312.464,217.685 0,-0.001 c 0.695,-1.885 1.62,-3.771 2.754,-5.645 33.607,-14.904 69.791,-22.601 105.567,-22.601 13.617,0 27.185,1.117 40.517,3.373 9.851,1.668 19.488,3.947 28.896,6.793 2.665,2.111 5.173,4.329 7.54,6.644 -11.975,-4.156 -24.362,-7.336 -37.104,-9.493 -49.109,-8.313 -101.346,-0.877 -148.17,20.93"
         style="fill:#ffff00;fill-opacity:1;fill-rule:nonzero;stroke:none"
         id="path6641"
         inkscape:connector-curvature="0" /><path
         d="m 323.232,202.242 c 2.881,-2.763 6.228,-5.43 9.993,-7.947 29.162,-10.043 59.514,-15.211 89.296,-15.211 10.172,0 20.276,0.611 30.245,1.827 6.943,2.007 13.22,4.408 18.93,7.16 -3.739,-0.778 -7.506,-1.468 -11.3,-2.066 -44.692,-7.034 -92.642,-1.26 -137.164,16.237"
         style="fill:#ffff00;fill-opacity:1;fill-rule:nonzero;stroke:none"
         id="path6643"
         inkscape:connector-curvature="0" /><path
         d="m 293.981,380.788 0.748,1.753 c 2.368,5.525 5.567,15.377 9.271,26.784 5.797,17.853 12.368,38.089 17.993,48.737 9.439,17.866 18.84,29.661 41.449,40.807 20.39,10.051 39.727,8.63 62.701,-4.606 19.638,-11.314 68.292,-80.061 68.781,-80.754 0.637,-0.902 1.885,-1.117 2.787,-0.481 0.902,0.637 1.117,1.885 0.48,2.787 -2.017,2.86 -49.655,70.163 -70.052,81.914 -23.925,13.785 -45.045,15.287 -66.465,4.728 -23.587,-11.628 -33.386,-23.917 -43.218,-42.527 -5.786,-10.952 -12.414,-31.363 -18.261,-49.37 -3.673,-11.314 -6.846,-21.085 -9.142,-26.443 l -0.752,-1.762 c -5.391,-12.66 -20.425,-47.962 -39.033,-57.384 0.567,-1.216 1.156,-2.41 1.771,-3.578 19.932,10.067 34.821,45.022 40.942,59.395"
         style="fill:#ffff00;fill-opacity:1;fill-rule:nonzero;stroke:none"
         id="path6645"
         inkscape:connector-curvature="0" /><path
         d="m 302.441,307.337 c 0.729,-0.491 1.558,-1.059 2.482,-1.692 10.947,-7.504 36.582,-25.077 72.119,-33.144 12.579,-2.856 25.201,-4.281 37.841,-4.281 31.828,0 63.758,9.039 95.331,27.039 l 0.139,0.086 c 1.323,0.905 32.501,22.409 40.63,44.169 0.386,1.035 -0.139,2.187 -1.173,2.574 -1.039,0.386 -2.187,-0.141 -2.575,-1.174 -7.515,-20.122 -37.481,-41.117 -39.077,-42.223 -43.193,-24.605 -87.007,-32.1 -130.231,-22.29 -34.791,7.899 -59.985,25.168 -70.742,32.543 -0.935,0.641 -1.773,1.215 -2.511,1.711 -17.306,11.644 -19.769,34.965 -19.792,35.199 -0.108,1.099 -1.082,1.896 -2.183,1.798 -1.099,-0.106 -1.904,-1.082 -1.799,-2.18 0.099,-1.033 2.641,-25.42 21.541,-38.135"
         style="fill:#ffff00;fill-opacity:1;fill-rule:nonzero;stroke:none"
         id="path6647"
         inkscape:connector-curvature="0" /><path
         d="m 544.617,349.728 c -1.028,0.4 -2.188,-0.108 -2.59,-1.137 -2.667,-6.835 -14.209,-22.506 -26.506,-34.064 -30.502,-28.667 -71.98,-32.94 -124.872,-30.533 -51.503,2.342 -88.876,44.644 -93.49,62.177 -3.477,13.213 2.208,26.648 8.79,42.206 2.45,5.792 4.985,11.781 7.166,18.083 1.818,5.254 3.171,11.078 4.604,17.244 5.004,21.531 10.676,45.936 38.885,63.255 24.663,15.142 47.354,13.694 71.412,-4.557 19.416,-14.728 45.364,-49.299 54.732,-69.213 4.975,-10.575 1.312,-39.329 0.328,-42.018 -0.454,-0.978 -0.051,-2.146 0.92,-2.631 0.989,-0.495 2.191,-0.093 2.684,0.895 1.127,2.253 5.404,33.304 -0.313,45.458 -9.56,20.324 -36.077,55.633 -55.933,70.696 -25.194,19.112 -50.03,20.675 -75.922,4.779 -29.635,-18.194 -35.764,-44.567 -40.689,-65.759 -1.408,-6.061 -2.739,-11.785 -4.489,-16.841 -2.136,-6.175 -4.644,-12.101 -7.069,-17.832 -6.582,-15.557 -12.799,-30.25 -8.974,-44.783 5.703,-21.672 46.929,-62.87 97.176,-65.155 8.012,-0.364 15.761,-0.576 23.264,-0.576 42.987,10e-4 77.69,6.967 104.53,32.191 12.876,12.102 24.611,28.139 27.493,35.525 0.401,1.028 -0.108,2.188 -1.137,2.59"
         style="fill:#ffff00;fill-opacity:1;fill-rule:nonzero;stroke:none"
         id="path6649"
         inkscape:connector-curvature="0" /><path
         d="m 434.869,348.951 c 8.096,3.165 13.598,8.371 15.911,15.057 5.6,16.176 9.557,81.029 -22.213,113.388 -0.775,0.79 -2.04,0.8 -2.828,0.027 -0.788,-0.774 -0.8,-2.04 -0.025,-2.829 16.059,-16.359 21.83,-41.372 23.843,-59.475 2.343,-21.077 0.488,-41.009 -2.556,-49.803 -2.425,-7.004 -8.728,-10.74 -13.589,-12.64 -12.249,-4.791 -28.439,-3.449 -41.243,3.416 -8.315,4.457 -18.453,18.713 -20.294,32.829 -1.974,15.131 -1.953,21.537 6.033,33.996 1.839,2.868 4.145,4.539 7.049,5.109 6.752,1.325 14.308,-3.899 14.446,-3.995 0.902,-0.638 2.15,-0.425 2.787,0.477 0.639,0.901 0.425,2.149 -0.476,2.788 -0.365,0.258 -9.036,6.31 -17.507,4.659 -3.985,-0.776 -7.238,-3.091 -9.666,-6.88 -8.628,-13.46 -8.661,-21.129 -6.633,-36.672 2.065,-15.835 13.22,-30.931 22.371,-35.837 8.269,-4.432 17.868,-6.718 27.098,-6.717 6.166,0 12.167,1.02 17.492,3.102"
         style="fill:#ffff00;fill-opacity:1;fill-rule:nonzero;stroke:none"
         id="path6651"
         inkscape:connector-curvature="0" /><path
         d="m 539.914,355.047 c -0.947,0.566 -2.176,0.254 -2.741,-0.694 -4.274,-7.172 -15.986,-24.567 -23.696,-32.277 -26.167,-26.166 -80.408,-29.61 -106.474,-31.265 -2.708,-0.172 -5.147,-0.328 -7.262,-0.487 -20.126,-1.518 -48.771,11.805 -78.573,36.544 -17.386,14.434 -20.418,33.456 -8.768,55.01 4.817,8.91 10.259,27.401 14.633,42.258 l 0.777,2.637 c 2.94,9.971 12.411,28.477 42.811,40.392 22.875,8.966 38.709,-12.289 47.964,-31.696 7.468,-15.658 3.791,-36.813 -7.869,-45.271 -4.133,-3 -8.915,-3.352 -13.463,-0.994 -7.227,3.746 -11.994,12.936 -11.862,22.866 0.034,2.543 0.478,5.756 2.401,6.622 3.413,1.536 10.935,-3.49 14.043,-6.166 0.837,-0.72 2.099,-0.627 2.82,0.21 0.721,0.836 0.628,2.098 -0.208,2.819 -1.172,1.011 -11.636,9.785 -18.295,6.785 -3.087,-1.389 -4.689,-4.826 -4.761,-10.216 -0.152,-11.408 5.483,-22.045 14.021,-26.472 5.877,-3.044 12.311,-2.568 17.653,1.308 13.325,9.667 17.506,32.67 9.131,50.23 -14.323,30.032 -32.66,41.683 -53.035,33.699 -31.986,-12.537 -42.041,-32.312 -45.188,-42.984 l -0.778,-2.64 c -4.32,-14.677 -9.696,-32.944 -14.313,-41.485 -12.671,-23.441 -9.306,-44.185 9.732,-59.99 17.228,-14.302 49.611,-37.592 77.774,-37.59 1.225,0 2.445,0.045 3.653,0.136 2.103,0.158 4.525,0.311 7.215,0.482 26.556,1.687 81.814,5.196 109.049,32.43 7.956,7.956 19.944,25.741 24.303,33.058 0.566,0.948 0.255,2.175 -0.694,2.741"
         style="fill:#ffff00;fill-opacity:1;fill-rule:nonzero;stroke:none"
         id="path6653"
         inkscape:connector-curvature="0" /><path
         d="m 532.292,362.821 c -1.027,0.404 -2.188,-0.098 -2.595,-1.125 -6.253,-15.833 -16.541,-25.588 -27.432,-35.915 -24.652,-23.373 -105.099,-29.246 -125.286,-23.037 -19.393,5.968 -51.266,34.994 -57.488,43.291 -5.934,7.912 -5.878,19.536 0.147,30.33 2.337,4.187 4.779,12.061 7.609,21.166 4.655,14.983 10.449,33.651 18.235,43.88 12.458,16.366 34.669,22.136 49.511,12.812 14.625,-9.19 25.171,-34.152 16.63,-50.286 C 409.828,400.546 407.9,399 405.892,399 l -0.034,0 c -4.651,0 -10.005,8.457 -11.514,11.445 -0.498,0.986 -1.701,1.253 -2.686,0.755 -0.986,-0.497 -1.383,-1.612 -0.886,-2.598 C 391.478,407.2 397.894,395 405.815,395 l 0.081,0 c 3.604,0 6.719,2.262 9.262,7.066 9.748,18.413 -1.896,45.316 -18.037,55.457 -16.549,10.398 -41.142,4.238 -54.821,-13.732 -8.214,-10.791 -14.124,-29.811 -18.873,-45.095 -2.763,-8.89 -5.149,-16.569 -7.282,-20.392 -6.806,-12.194 -6.75,-25.48 0.146,-34.675 6.617,-8.822 39.007,-38.401 59.512,-44.71 5.212,-1.605 14.067,-2.402 24.697,-2.402 11.23,0 24.442,0.89 37.43,2.663 18.363,2.506 51.498,8.917 67.087,23.698 10.728,10.173 21.822,20.691 28.401,37.349 0.405,1.027 -0.099,2.188 -1.126,2.594"
         style="fill:#ffff00;fill-opacity:1;fill-rule:nonzero;stroke:none"
         id="path6655"
         inkscape:connector-curvature="0" /><path
         d="m 377.89,407.041 c 0.04,1.104 -0.822,2.031 -1.926,2.072 -1.106,0.051 -2.031,-0.821 -2.071,-1.926 -0.724,-19.691 3.689,-34.15 13.114,-42.974 9.098,-8.518 21.248,-10.317 30.806,-10.317 4.551,0 8.516,0.409 11.283,0.694 17.054,1.756 16.614,26.053 16.351,40.569 -0.029,1.612 -0.056,3.101 -0.056,4.42 0,9.466 -1.415,28.904 -10.892,52.739 -9.22,23.189 -24.906,37.77 -41.963,39.006 -16.354,1.189 -32.179,-3.584 -44.556,-13.429 -11.364,-9.04 -15.601,-23.067 -15.775,-23.66 -0.313,-1.059 0.293,-2.172 1.352,-2.484 1.06,-0.314 2.172,0.292 2.485,1.353 0.039,0.133 4.043,13.399 14.428,21.66 11.589,9.219 26.419,13.683 41.777,12.571 15.259,-1.106 30.024,-15.09 38.535,-36.494 9.231,-23.216 10.609,-42.082 10.609,-51.262 0,-1.341 0.027,-2.854 0.056,-4.492 0.239,-13.143 0.637,-35.139 -12.761,-36.519 -12.498,-1.285 -28.221,-1.475 -38.945,8.565 -8.543,7.998 -12.53,21.425 -11.851,39.908"
         style="fill:#ffff00;fill-opacity:1;fill-rule:nonzero;stroke:none"
         id="path6657"
         inkscape:connector-curvature="0" /><path
         d="m 386.556,389.659 c -1.109,0.072 -2.043,-0.794 -2.098,-1.896 -0.019,-0.373 -0.376,-9.22 6.74,-16.656 6.213,-6.49 15.997,-9.78 29.087,-9.78 0.163,0 0.326,10e-4 0.49,0.002 5.505,0.034 9.561,1.49 12.4,4.451 5.35,5.58 5.007,15.193 4.642,25.369 -0.108,3.017 -0.219,6.137 -0.176,9.151 0.266,18.664 -6.818,47.304 -15.161,61.29 -4.814,8.071 -15.724,15.101 -27.794,17.91 -13.691,3.187 -27.499,0.872 -38.884,-6.516 -0.926,-0.602 -1.19,-1.84 -0.589,-2.767 0.602,-0.926 1.84,-1.19 2.767,-0.589 10.464,6.792 23.177,8.914 35.799,5.976 11.064,-2.574 20.982,-8.879 25.266,-16.062 8.033,-13.468 14.853,-41.124 14.596,-59.184 -0.044,-3.115 0.069,-6.286 0.178,-9.352 0.334,-9.307 0.649,-18.098 -3.531,-22.457 -2.052,-2.14 -5.171,-3.193 -9.538,-3.22 -0.156,-0.001 -0.312,-0.002 -0.468,-0.002 -11.914,0 -20.708,2.857 -26.141,8.491 -5.94,6.161 -5.691,13.676 -5.687,13.751 0.05,1.1 -0.798,2.035 -1.898,2.09"
         style="fill:#ffff00;fill-opacity:1;fill-rule:nonzero;stroke:none"
         id="path6659"
         inkscape:connector-curvature="0" /><path
         d="m 429.411,404.695 c -1.102,0.104 -2.074,-0.704 -2.178,-1.804 -0.745,-7.937 -3.635,-13.789 -8.589,-17.394 -8.988,-6.539 -22.019,-3.735 -22.15,-3.708 -1.075,0.244 -2.145,-0.435 -2.388,-1.512 -0.243,-1.077 0.434,-2.147 1.512,-2.39 0.275,-0.062 3.394,-0.741 7.699,-0.741 5.137,0 11.961,0.966 17.657,5.1 5.937,4.309 9.383,11.129 10.242,20.271 0.103,1.1 -0.704,2.075 -1.805,2.178"
         style="fill:#ffff00;fill-opacity:1;fill-rule:nonzero;stroke:none"
         id="path6661"
         inkscape:connector-curvature="0" /><path
         d="m 525.915,373.287 c -1.092,0.202 -2.128,-0.524 -2.325,-1.61 -1.647,-9.07 -11.931,-23.091 -21.394,-32.964 -13.068,-13.637 -41.898,-20.793 -63.782,-24.396 -25.502,-4.199 -49.294,-4.921 -56.369,-4.372 -13.745,1.062 -37.776,22.155 -47.367,33.664 -9.791,11.748 -11.041,15.951 -7.43,24.977 4.757,11.894 10.975,30.177 17.057,50.161 6.605,21.703 16.246,27.939 32.855,32.401 14.836,3.987 23.543,-16.862 23.629,-17.073 0.417,-1.021 1.582,-1.513 2.607,-1.096 1.021,0.416 1.513,1.581 1.097,2.604 -0.099,0.245 -2.488,6.051 -7.055,11.363 -6.3,7.329 -13.669,10.116 -21.316,8.065 -17.63,-4.737 -28.533,-11.733 -35.644,-35.099 -6.051,-19.881 -12.227,-38.047 -16.944,-49.84 -4.471,-11.178 -1.907,-17.051 8.07,-29.023 4.462,-5.355 12.851,-13.835 23.012,-21.579 7.605,-5.796 18.484,-12.846 27.121,-13.513 1.359,-0.105 3.316,-0.165 5.772,-0.165 10.627,0 30.567,1.124 51.554,4.579 22.485,3.701 52.19,11.143 66.022,25.574 9.153,9.551 20.523,24.453 22.44,35.017 0.198,1.087 -0.523,2.128 -1.61,2.325"
         style="fill:#ffff00;fill-opacity:1;fill-rule:nonzero;stroke:none"
         id="path6663"
         inkscape:connector-curvature="0" /><path
         d="m 518.575,384 -0.017,0 c -1.097,0 -1.991,-0.719 -2,-1.818 -0.086,-9.963 -5.861,-19.355 -14.505,-30.636 -11.027,-14.392 -63.157,-30.232 -91.58,-33.48 -24.768,-2.832 -30.409,1.362 -42.761,10.545 -1.417,1.053 -2.915,2.167 -4.532,3.338 -15.898,11.511 -26.581,21.419 -27.041,32.363 -0.296,7.05 3.455,16.215 7.082,25.079 2.246,5.487 4.367,10.67 5.606,15.435 0.252,0.968 0.496,1.928 0.738,2.882 2.874,11.303 5.355,21.064 16.844,30.483 11.467,9.402 21.713,0.447 22.143,0.061 0.818,-0.737 2.079,-0.674 2.821,0.142 0.742,0.818 0.68,2.083 -0.138,2.825 -0.131,0.118 -13.191,11.682 -27.362,0.066 -12.505,-10.253 -15.264,-21.104 -18.185,-32.592 -0.24,-0.946 -0.482,-1.9 -0.732,-2.86 -1.172,-4.506 -3.244,-9.568 -5.436,-14.927 -3.791,-9.261 -7.71,-18.838 -7.377,-26.761 0.527,-12.551 11.851,-23.244 28.691,-35.436 1.603,-1.16 3.088,-2.264 4.492,-3.308 10.245,-7.618 16.411,-12.205 31.917,-12.204 3.9,0 8.391,0.249 13.685,0.854 29.774,3.402 82.49,19.566 94.301,34.979 7.36,9.608 15.222,20.806 15.329,33.116 0.009,1.106 -0.878,1.854 -1.983,1.854"
         style="fill:#ffff00;fill-opacity:1;fill-rule:nonzero;stroke:none"
         id="path6665"
         inkscape:connector-curvature="0" /><path
         d="m 408.045,327.302 c -21.395,-3.564 -30.67,0.854 -44.602,12.796 -12.755,10.932 -18.81,19.763 -19.053,27.792 -0.119,3.933 1.788,8.798 4.427,15.531 2.511,6.406 5.636,14.378 8.507,25.143 5.41,20.289 14.218,21.965 14.582,22.024 1.015,0.097 1.809,0.952 1.809,1.992 0,1.104 -0.895,2 -2,2 -0.115,0 -11.775,-0.68 -18.257,-24.986 -2.812,-10.546 -5.891,-18.402 -8.365,-24.713 -2.813,-7.176 -4.845,-12.36 -4.701,-17.112 0.284,-9.36 6.59,-18.831 20.447,-30.708 11.417,-9.786 20.245,-14.956 34.405,-14.956 4.001,0 8.428,0.414 13.457,1.251 24.861,4.14 76.074,16.925 91.966,35.68 4.117,4.86 13.761,16.241 12.888,32.005 -0.062,1.103 -1.015,1.941 -2.108,1.887 -1.103,-0.062 -1.947,-1.005 -1.886,-2.108 0.785,-14.173 -8.136,-24.702 -11.947,-29.198 -14.044,-16.575 -61.26,-29.605 -89.569,-34.32"
         style="fill:#ffff00;fill-opacity:1;fill-rule:nonzero;stroke:none"
         id="path6667"
         inkscape:connector-curvature="0" /><path
         d="m 496.099,372.855 c -2.216,-4.474 -4.129,-8.339 -32.982,-20.431 -34.227,-14.347 -72.295,-19.139 -84.86,-10.686 -12.61,8.484 -25.509,21.087 -23.892,31.02 1.686,10.359 9.023,26.581 9.097,26.743 0.457,1.006 0.012,2.192 -0.993,2.649 -1.005,0.457 -2.191,0.013 -2.649,-0.993 -0.31,-0.684 -7.631,-16.868 -9.403,-27.757 -0.907,-5.574 1.443,-11.847 6.986,-18.647 5.68,-6.966 13.262,-12.728 18.622,-16.333 5.025,-3.381 12.864,-4.86 22.242,-4.86 19.33,0 45.194,6.288 66.397,15.174 30.228,12.669 32.342,16.94 35.02,22.347 0.355,0.719 0.724,1.463 1.177,2.23 4.098,6.918 5.766,24.218 3.306,34.278 -0.262,1.073 -1.349,1.731 -2.417,1.468 -1.073,-0.262 -1.73,-1.345 -1.468,-2.418 2.182,-8.925 0.684,-25.302 -2.862,-31.291 -0.53,-0.895 -0.933,-1.707 -1.321,-2.493"
         style="fill:#ffff00;fill-opacity:1;fill-rule:nonzero;stroke:none"
         id="path6669"
         inkscape:connector-curvature="0" /><path
         d="m 362.823,386.638 c -1.09,0.171 -2.115,-0.574 -2.287,-1.664 -1.263,-8.007 0.212,-19.867 8.137,-29.141 8.084,-9.458 20.942,-14.254 38.218,-14.254 1.104,0 2,0.896 2,2 0,1.105 -0.896,2 -2,2 -16.053,0 -27.888,4.324 -35.177,12.853 -7.043,8.241 -8.351,18.792 -7.227,25.919 0.172,1.09 -0.573,2.115 -1.664,2.287"
         style="fill:#ffff00;fill-opacity:1;fill-rule:nonzero;stroke:none"
         id="path6671"
         inkscape:connector-curvature="0" /><path
         d="m 452.608,352.829 c 0.561,0 1.119,0.234 1.514,0.692 22.526,26.035 2.864,91.93 2.017,94.723 -0.322,1.057 -1.441,1.657 -2.495,1.332 -1.057,-0.321 -1.654,-1.438 -1.333,-2.494 0.201,-0.664 19.883,-66.561 -1.214,-90.944 -0.723,-0.835 -0.631,-2.099 0.204,-2.822 0.378,-0.327 0.844,-0.487 1.307,-0.487"
         style="fill:#ffff00;fill-opacity:1;fill-rule:nonzero;stroke:none"
         id="path6673"
         inkscape:connector-curvature="0" /><path
         d="m 462.853,355.995 c 0.492,0 0.984,0.18 1.37,0.543 16.213,15.252 4.626,71.086 4.125,73.456 -0.229,1.08 -1.287,1.773 -2.371,1.542 -1.081,-0.228 -1.772,-1.289 -1.543,-2.37 0.03,-0.141 2.993,-14.275 4.035,-30.015 1.349,-20.402 -1.067,-34.13 -6.987,-39.699 -0.804,-0.757 -0.843,-2.022 -0.086,-2.827 0.393,-0.419 0.924,-0.63 1.457,-0.63"
         style="fill:#ffff00;fill-opacity:1;fill-rule:nonzero;stroke:none"
         id="path6675"
         inkscape:connector-curvature="0" /><path
         d="m 427.273,381.098 c -0.573,-2.55 -1.849,-4.377 -3.899,-5.587 -5.872,-3.464 -15.823,-0.625 -15.922,-0.596 -1.068,0.307 -2.172,-0.301 -2.48,-1.359 -0.31,-1.06 0.297,-2.169 1.355,-2.48 0.285,-0.084 4.447,-1.277 9.324,-1.277 3.243,0 6.8,0.527 9.745,2.261 3.016,1.776 4.961,4.521 5.78,8.161 0.242,1.077 -0.435,2.147 -1.513,2.389 -1.073,0.242 -2.147,-0.434 -2.39,-1.512"
         style="fill:#ffff00;fill-opacity:1;fill-rule:nonzero;stroke:none"
         id="path6677"
         inkscape:connector-curvature="0" /><path
         d="m 471.939,359.202 c 0.302,-0.164 0.628,-0.241 0.95,-0.241 0.711,0 1.399,0.38 1.76,1.049 0.548,1.011 13.289,25.169 2.473,57.617 -0.349,1.048 -1.478,1.616 -2.53,1.266 -1.048,-0.35 -1.614,-1.482 -1.265,-2.53 10.245,-30.736 -2.071,-54.219 -2.197,-54.453 -0.524,-0.971 -0.161,-2.183 0.809,-2.708"
         style="fill:#ffff00;fill-opacity:1;fill-rule:nonzero;stroke:none"
         id="path6679"
         inkscape:connector-curvature="0" /><path
         d="m 276.31,340.992 c -1.103,0.07 -2.035,-0.806 -2.083,-1.91 -0.029,-0.664 -0.617,-16.353 7.319,-23.566 0.383,-0.349 0.865,-0.521 1.345,-0.521 0.544,0 1.086,0.221 1.48,0.654 0.743,0.818 0.683,2.083 -0.135,2.826 -6.545,5.95 -6.019,20.291 -6.013,20.434 0.046,1.104 -0.81,2.036 -1.913,2.083"
         style="fill:#ffff00;fill-opacity:1;fill-rule:nonzero;stroke:none"
         id="path6681"
         inkscape:connector-curvature="0" /><path
         d="m 269.531,324.432 c -0.175,1.065 -1.159,1.8 -2.243,1.656 -1.095,-0.149 -1.861,-1.157 -1.712,-2.251 0.045,-0.33 0.559,-3.322 4.715,-6.723 0.372,-0.303 0.82,-0.452 1.266,-0.452 0.579,0 1.153,0.25 1.548,0.734 0.7,0.855 0.574,2.115 -0.281,2.814 -2.803,2.294 -3.265,4.1 -3.293,4.222"
         style="fill:#ffff00;fill-opacity:1;fill-rule:nonzero;stroke:none"
         id="path6683"
         inkscape:connector-curvature="0" /><path
         d="m 494.017,380.403 c 0.18,-0.05 0.363,-0.075 0.542,-0.075 0.874,0 1.675,0.577 1.924,1.46 3.098,11.015 0.158,25.146 0.031,25.742 -0.23,1.08 -1.295,1.772 -2.371,1.54 -1.08,-0.229 -1.771,-1.29 -1.541,-2.371 0.028,-0.137 2.858,-13.774 0.03,-23.829 -0.299,-1.062 0.321,-2.167 1.385,-2.467"
         style="fill:#ffff00;fill-opacity:1;fill-rule:nonzero;stroke:none"
         id="path6685"
         inkscape:connector-curvature="0" /></g><path
       inkscape:connector-curvature="0"
       id="path6687"
       style="fill:#ffffff;fill-opacity:1;fill-rule:nonzero;stroke:none"
       d="m 397.596,70.8512 0.746,0 0,0.9359 c 0,0.9867 0.121,1.7609 0.371,2.3418 0.246,0.5801 0.67,0.9981 1.264,1.2633 0.587,0.2598 1.406,0.3918 2.435,0.3918 1.832,0 2.744,-0.4438 2.744,-1.3469 0,-0.2859 -0.099,-0.5351 -0.289,-0.741 -0.189,-0.2031 -0.414,-0.309 -0.674,-0.309 -0.121,0 -0.336,0.0231 -0.638,0.0719 -0.285,0.041 -0.547,0.068 -0.752,0.068 -0.563,0 -0.926,-0.1692 -1.09,-0.5008 -0.158,-0.3321 -0.24,-0.809 -0.24,-1.4301 l 0,-0.7449 0.767,0 c 1.194,0 1.789,-0.3621 1.789,-1.0821 0,-0.5062 -0.156,-0.832 -0.476,-0.9699 -0.317,-0.139 -0.756,-0.207 -1.313,-0.207 l -0.767,0 0,-8.2992 c 0,-0.6149 -0.143,-1.0879 -0.444,-1.4098 -0.295,-0.3301 -0.67,-0.4902 -1.142,-0.4902 -0.44,0 -0.809,0.1601 -1.106,0.4902 -0.293,0.3219 -0.439,0.7949 -0.439,1.4098 l 0,8.2992 -0.863,0 c -0.467,0 -0.827,0.0988 -1.079,0.3148 -0.25,0.2071 -0.38,0.4821 -0.38,0.8172 0,0.7539 0.527,1.127 1.576,1.127" /><path
       inkscape:connector-curvature="0"
       id="path6689"
       style="fill:#ffffff;fill-opacity:1;fill-rule:nonzero;stroke:none"
       d="m 407.846,62.9109 0,-2.6179 c 0,-0.6321 -0.157,-1.111 -0.453,-1.4239 -0.299,-0.3211 -0.674,-0.4761 -1.131,-0.4761 -0.459,0 -0.83,0.157 -1.116,0.4832 -0.292,0.3179 -0.439,0.7937 -0.439,1.4168 l 0,8.7261 c 0,1.4071 0.51,2.1098 1.525,2.1098 0.524,0 0.897,-0.166 1.129,-0.4937 0.229,-0.3321 0.356,-0.8161 0.381,-1.4641 0.371,0.648 0.754,1.132 1.147,1.4641 0.396,0.3277 0.918,0.4937 1.578,0.4937 0.662,0 1.297,-0.166 1.916,-0.4937 0.619,-0.3321 0.931,-0.7661 0.931,-1.3082 0,-0.384 -0.132,-0.704 -0.396,-0.9489 -0.266,-0.25 -0.543,-0.3711 -0.854,-0.3711 -0.119,0 -0.396,0.068 -0.834,0.2141 -0.443,0.1379 -0.83,0.2078 -1.164,0.2078 -0.457,0 -0.832,-0.1238 -1.121,-0.359 -0.291,-0.2449 -0.519,-0.5988 -0.679,-1.0699 -0.161,-0.4762 -0.272,-1.043 -0.33,-1.6949 -0.063,-0.659 -0.09,-1.4531 -0.09,-2.3942" /><path
       inkscape:connector-curvature="0"
       id="path6691"
       style="fill:#ffffff;fill-opacity:1;fill-rule:nonzero;stroke:none"
       d="m 416.113,65.7691 5.68,0 c -0.076,1.0688 -0.365,1.8711 -0.865,2.4008 -0.5,0.5313 -1.16,0.7961 -1.979,0.7961 -0.777,0 -1.422,-0.2648 -1.924,-0.8101 -0.5,-0.5368 -0.804,-1.334 -0.912,-2.3868 z m 6.127,-1.782 -6.127,0 c 0.008,-0.7062 0.151,-1.3391 0.432,-1.8781 0.277,-0.5442 0.646,-0.952 1.111,-1.2289 0.469,-0.2742 0.975,-0.4121 1.533,-0.4121 0.375,0 0.715,0.0429 1.026,0.1371 0.31,0.082 0.613,0.2199 0.9,0.409 0.293,0.1847 0.557,0.3847 0.805,0.6007 0.244,0.2161 0.56,0.5071 0.953,0.8731 0.162,0.1351 0.391,0.207 0.686,0.207 0.322,0 0.58,-0.0879 0.783,-0.2629 0.201,-0.182 0.297,-0.4261 0.297,-0.7449 0,-0.2883 -0.11,-0.6152 -0.326,-0.9941 -0.227,-0.3828 -0.561,-0.7442 -1.012,-1.0918 -0.446,-0.3453 -1.01,-0.641 -1.686,-0.8641 -0.676,-0.232 -1.455,-0.3441 -2.334,-0.3441 -2.011,0 -3.574,0.5672 -4.687,1.7172 -1.121,1.15 -1.682,2.7078 -1.682,4.6687 0,0.9293 0.141,1.7891 0.418,2.5789 0.272,0.7961 0.676,1.4692 1.205,2.0352 0.528,0.5679 1.176,1.0039 1.947,1.3031 0.772,0.3008 1.625,0.4519 2.567,0.4519 1.228,0 2.277,-0.255 3.15,-0.7781 0.877,-0.5121 1.539,-1.1801 1.971,-1.9969 0.434,-0.8218 0.654,-1.6539 0.654,-2.505 0,-0.7821 -0.228,-1.2961 -0.679,-1.5289 -0.45,-0.234 -1.086,-0.352 -1.905,-0.352" /><path
       inkscape:connector-curvature="0"
       id="path6693"
       style="fill:#ffffff;fill-opacity:1;fill-rule:nonzero;stroke:none"
       d="m 429.139,65.7691 5.679,0 c -0.074,1.0688 -0.369,1.8711 -0.865,2.4008 -0.504,0.5313 -1.162,0.7961 -1.982,0.7961 -0.782,0 -1.418,-0.2648 -1.92,-0.8101 -0.504,-0.5368 -0.805,-1.334 -0.912,-2.3868 z m 6.127,-1.782 -6.127,0 c 0.007,-0.7062 0.152,-1.3391 0.431,-1.8781 0.278,-0.5442 0.651,-0.952 1.112,-1.2289 0.461,-0.2742 0.974,-0.4121 1.533,-0.4121 0.371,0 0.717,0.0429 1.023,0.1371 0.313,0.082 0.61,0.2199 0.905,0.409 0.289,0.1847 0.556,0.3847 0.802,0.6007 0.241,0.2161 0.561,0.5071 0.95,0.8731 0.164,0.1351 0.394,0.207 0.687,0.207 0.324,0 0.586,-0.0879 0.785,-0.2629 0.199,-0.182 0.291,-0.4261 0.291,-0.7449 0,-0.2883 -0.105,-0.6152 -0.332,-0.9941 -0.215,-0.3828 -0.551,-0.7442 -1.002,-1.0918 -0.445,-0.3453 -1.011,-0.641 -1.687,-0.8641 -0.674,-0.232 -1.455,-0.3441 -2.336,-0.3441 -2.006,0 -3.572,0.5672 -4.69,1.7172 -1.117,1.15 -1.675,2.7078 -1.675,4.6687 0,0.9293 0.138,1.7891 0.416,2.5789 0.277,0.7961 0.675,1.4692 1.201,2.0352 0.531,0.5679 1.179,1.0039 1.951,1.3031 0.775,0.3008 1.631,0.4519 2.57,0.4519 1.221,0 2.272,-0.255 3.155,-0.7781 0.873,-0.5121 1.531,-1.1801 1.962,-1.9969 0.436,-0.8218 0.655,-1.6539 0.655,-2.505 0,-0.7821 -0.229,-1.2961 -0.676,-1.5289 -0.453,-0.234 -1.09,-0.352 -1.904,-0.352" /><path
       inkscape:connector-curvature="0"
       id="path6695"
       style="fill:#ffffff;fill-opacity:1;fill-rule:nonzero;stroke:none"
       d="m 448.262,64.8141 c 0,0.8289 -0.123,1.5379 -0.377,2.1289 -0.25,0.5949 -0.602,1.0468 -1.045,1.3621 -0.447,0.3179 -0.947,0.4789 -1.49,0.4789 -0.862,0 -1.594,-0.341 -2.184,-1.0168 -0.596,-0.6871 -0.889,-1.6852 -0.889,-3.0102 0,-1.2418 0.291,-2.2148 0.881,-2.9058 0.59,-0.6942 1.315,-1.0383 2.192,-1.0383 0.519,0 1.005,0.1523 1.447,0.45 0.443,0.3019 0.801,0.7551 1.068,1.3601 0.268,0.6059 0.397,1.3379 0.397,2.1911 z m -6.139,4.5519 0,-0.375 c 0.588,0.725 1.205,1.2621 1.842,1.5981 0.631,0.3429 1.351,0.5148 2.152,0.5148 0.963,0 1.854,-0.25 2.664,-0.7461 0.815,-0.5 1.451,-1.2246 1.92,-2.1828 0.473,-0.9551 0.709,-2.0871 0.709,-3.3961 0,-0.9609 -0.135,-1.8476 -0.408,-2.6539 -0.268,-0.809 -0.645,-1.482 -1.117,-2.032 -0.475,-0.5391 -1.039,-0.966 -1.68,-1.2621 -0.65,-0.2899 -1.344,-0.4379 -2.088,-0.4379 -0.892,0 -1.646,0.1789 -2.254,0.5383 -0.607,0.3539 -1.185,0.8886 -1.74,1.5796 l 0,-4.7027 c 0,-1.373 -0.502,-2.066 -1.5,-2.066 -0.592,0 -0.977,0.1777 -1.172,0.5308 -0.185,0.3622 -0.283,0.875 -0.283,1.561 l 0,13.5152 c 0,0.5957 0.129,1.0367 0.385,1.3379 0.263,0.2899 0.623,0.4418 1.07,0.4418 0.443,0 0.807,-0.1519 1.082,-0.4527 0.283,-0.3063 0.418,-0.7383 0.418,-1.3102" /><path
       inkscape:connector-curvature="0"
       id="path6697"
       style="fill:#ffffff;fill-opacity:1;fill-rule:nonzero;stroke:none"
       d="m 456.117,69.3492 0,-9.0562 c 0,-0.6231 -0.154,-1.0989 -0.449,-1.4168 -0.303,-0.3262 -0.68,-0.4832 -1.141,-0.4832 -0.457,0 -0.828,0.1601 -1.113,0.4902 -0.289,0.3348 -0.435,0.802 -0.435,1.4098 l 0,8.966 c 0,0.6191 0.146,1.0859 0.435,1.3961 0.285,0.3191 0.656,0.4738 1.113,0.4738 0.461,0 0.838,-0.1547 1.141,-0.4738 0.295,-0.3102 0.449,-0.7512 0.449,-1.3059 z m -1.554,3.2367 c -0.438,0 -0.805,0.1383 -1.114,0.402 -0.312,0.2711 -0.47,0.6441 -0.47,1.1293 0,0.4449 0.162,0.8141 0.478,1.1008 0.316,0.282 0.686,0.4281 1.106,0.4281 0.408,0 0.765,-0.1301 1.082,-0.3832 0.31,-0.2637 0.472,-0.6449 0.472,-1.1457 0,-0.477 -0.156,-0.8551 -0.463,-1.1262 -0.304,-0.2668 -0.668,-0.4051 -1.091,-0.4051" /><path
       inkscape:connector-curvature="0"
       id="path6699"
       style="fill:#ffffff;fill-opacity:1;fill-rule:nonzero;stroke:none"
       d="m 466.211,59.8199 -2.762,4.55 -1.701,-1.6039 0,-2.4949 c 0,-0.6012 -0.16,-1.066 -0.478,-1.3879 -0.311,-0.3301 -0.682,-0.4902 -1.094,-0.4902 -0.481,0 -0.862,0.157 -1.135,0.4832 -0.275,0.3179 -0.416,0.7937 -0.416,1.4168 l 0,13.3601 c 0,0.691 0.135,1.2231 0.4,1.5891 0.27,0.3648 0.657,0.5418 1.151,0.5418 0.482,0 0.863,-0.1629 1.144,-0.4961 0.289,-0.325 0.428,-0.8109 0.428,-1.4488 l 0,-7.6032 3.523,3.7012 c 0.438,0.4531 0.764,0.7711 0.999,0.9399 0.226,0.164 0.507,0.2519 0.834,0.2519 0.392,0 0.716,-0.125 0.984,-0.375 0.252,-0.248 0.383,-0.5598 0.383,-0.9348 0,-0.4562 -0.426,-1.0722 -1.274,-1.8371 l -1.66,-1.523 3.213,-5.0508 c 0.23,-0.3781 0.406,-0.6551 0.508,-0.85 0.105,-0.1961 0.156,-0.391 0.156,-0.5602 0,-0.5 -0.135,-0.8871 -0.408,-1.18 -0.27,-0.284 -0.631,-0.425 -1.068,-0.425 -0.389,0 -0.682,0.0949 -0.893,0.309 -0.201,0.2101 -0.484,0.5832 -0.834,1.1179" /><path
       inkscape:connector-curvature="0"
       id="path6701"
       style="fill:#ffffff;fill-opacity:1;fill-rule:nonzero;stroke:none"
       d="m 473.014,58.393 c -0.473,0 -0.883,0.155 -1.227,0.4609 -0.344,0.3 -0.517,0.7301 -0.517,1.2832 0,0.468 0.169,0.8699 0.494,1.2039 0.332,0.3352 0.738,0.5039 1.218,0.5039 0.481,0 0.889,-0.1687 1.237,-0.4969 0.336,-0.3339 0.511,-0.7421 0.511,-1.2109 0,-0.5449 -0.175,-0.9742 -0.511,-1.282 -0.348,-0.3071 -0.748,-0.4621 -1.205,-0.4621" /><path
       inkscape:connector-curvature="0"
       id="path6703"
       style="fill:#ffffff;fill-opacity:1;fill-rule:nonzero;stroke:none"
       d="m 488.586,62.2711 c 0,-0.3879 -0.115,-0.807 -0.35,-1.252 -0.234,-0.4453 -0.588,-0.8679 -1.066,-1.2691 -0.481,-0.3988 -1.076,-0.725 -1.809,-0.9668 -0.728,-0.2461 -1.545,-0.3711 -2.451,-0.3711 -1.937,0 -3.449,0.5668 -4.539,1.6918 -1.082,1.127 -1.623,2.6453 -1.623,4.541 0,1.2891 0.244,2.4172 0.744,3.409 0.494,0.984 1.215,1.7461 2.156,2.2883 0.94,0.5379 2.069,0.8058 3.37,0.8058 0.814,0 1.558,-0.1171 2.238,-0.3558 0.678,-0.2332 1.248,-0.5453 1.721,-0.9141 0.464,-0.3801 0.826,-0.7761 1.074,-1.1992 0.25,-0.4258 0.373,-0.8219 0.373,-1.193 0,-0.373 -0.137,-0.689 -0.418,-0.9468 -0.281,-0.2653 -0.619,-0.393 -1.014,-0.393 -0.263,0 -0.478,0.0668 -0.648,0.2008 -0.176,0.134 -0.367,0.35 -0.58,0.6531 -0.381,0.577 -0.782,1.0152 -1.201,1.3012 -0.417,0.2949 -0.948,0.4386 -1.59,0.4386 -0.918,0 -1.664,-0.3617 -2.237,-1.0828 -0.566,-0.7211 -0.847,-1.714 -0.847,-2.964 0,-0.5899 0.076,-1.1348 0.218,-1.6282 0.143,-0.4886 0.35,-0.9117 0.629,-1.2578 0.28,-0.35 0.608,-0.6109 0.998,-0.7929 0.393,-0.184 0.821,-0.2719 1.284,-0.2719 0.632,0 1.166,0.1457 1.613,0.4359 0.457,0.2891 0.849,0.734 1.191,1.334 0.194,0.3469 0.399,0.6199 0.616,0.8199 0.222,0.2 0.498,0.3032 0.818,0.3032 0.387,0 0.701,-0.1481 0.953,-0.4383 0.252,-0.2899 0.377,-0.6008 0.377,-0.9258" /><path
       inkscape:connector-curvature="0"
       id="path6705"
       style="fill:#ffffff;fill-opacity:1;fill-rule:nonzero;stroke:none"
       d="m 498.959,64.757 c 0,1.2789 -0.285,2.2692 -0.844,2.984 -0.56,0.716 -1.314,1.0711 -2.265,1.0711 -0.614,0 -1.151,-0.1633 -1.621,-0.4781 -0.465,-0.316 -0.823,-0.7828 -1.075,-1.4039 -0.252,-0.6231 -0.383,-1.3442 -0.383,-2.1731 0,-0.8191 0.124,-1.5308 0.374,-2.139 0.251,-0.6188 0.607,-1.086 1.072,-1.409 0.465,-0.3211 1.008,-0.4899 1.633,-0.4899 0.951,0 1.705,0.361 2.265,1.077 0.559,0.716 0.844,1.7039 0.844,2.9609 z m 3.145,0 c 0,-0.9308 -0.149,-1.7918 -0.432,-2.582 -0.297,-0.7891 -0.715,-1.4641 -1.27,-2.027 -0.545,-0.5671 -1.209,-1.0011 -1.97,-1.3031 -0.77,-0.2969 -1.627,-0.4519 -2.582,-0.4519 -0.95,0 -1.801,0.155 -2.559,0.4609 -0.754,0.3 -1.418,0.741 -1.965,1.3043 -0.556,0.577 -0.978,1.25 -1.271,2.0289 -0.276,0.7758 -0.426,1.6309 -0.426,2.5699 0,0.9512 0.154,1.818 0.439,2.6071 0.289,0.7898 0.707,1.4629 1.254,2.0168 0.543,0.5601 1.199,0.989 1.969,1.2953 0.773,0.3008 1.627,0.4527 2.559,0.4527 0.951,0 1.81,-0.1519 2.582,-0.4617 0.771,-0.3031 1.431,-0.741 1.986,-1.3043 0.551,-0.5668 0.967,-1.241 1.256,-2.018 0.283,-0.7847 0.43,-1.6437 0.43,-2.5879" /><path
       inkscape:connector-curvature="0"
       id="path6707"
       style="fill:#ffffff;fill-opacity:1;fill-rule:nonzero;stroke:none"
       d="m 514.047,64.525 0,-4.1602 c 0,-0.6609 -0.147,-1.1468 -0.447,-1.4816 -0.299,-0.3301 -0.694,-0.4902 -1.184,-0.4902 -0.471,0 -0.861,0.1601 -1.146,0.4902 -0.297,0.3348 -0.45,0.8207 -0.45,1.4816 l 0,4.9891 c 0,0.7891 -0.025,1.4012 -0.074,1.8391 -0.058,0.4289 -0.205,0.7941 -0.439,1.0711 -0.233,0.2781 -0.612,0.4211 -1.123,0.4211 -1.028,0 -1.7,-0.3512 -2.026,-1.0633 -0.324,-0.6957 -0.488,-1.7071 -0.488,-3.0258 l 0,-4.2313 c 0,-0.6507 -0.15,-1.1406 -0.441,-1.4757 -0.297,-0.3301 -0.684,-0.4961 -1.166,-0.4961 -0.475,0 -0.862,0.166 -1.163,0.4961 -0.302,0.3351 -0.459,0.825 -0.459,1.4757 l 0,8.9622 c 0,0.5859 0.139,1.0371 0.411,1.3402 0.273,0.3098 0.63,0.4617 1.072,0.4617 0.431,0 0.787,-0.15 1.076,-0.4328 0.285,-0.2879 0.428,-0.6781 0.428,-1.1879 l 0,-0.2941 c 0.549,0.6437 1.125,1.125 1.748,1.4289 0.619,0.3082 1.303,0.4609 2.062,0.4609 0.789,0 1.467,-0.157 2.032,-0.4687 0.566,-0.3161 1.031,-0.7891 1.4,-1.4211 0.525,0.6379 1.094,1.1148 1.697,1.4289 0.61,0.3082 1.274,0.4609 2.008,0.4609 0.857,0 1.598,-0.1719 2.217,-0.5027 0.619,-0.3391 1.078,-0.8242 1.381,-1.4461 0.271,-0.5699 0.404,-1.459 0.404,-2.6781 l 0,-6.1122 c 0,-0.6609 -0.15,-1.1468 -0.443,-1.4816 -0.299,-0.3301 -0.692,-0.4902 -1.184,-0.4902 -0.473,0 -0.863,0.166 -1.166,0.4961 -0.303,0.3351 -0.449,0.825 -0.449,1.4757 l 0,5.2692 c 0,0.673 -0.031,1.209 -0.09,1.614 -0.053,0.4051 -0.211,0.7461 -0.463,1.0231 -0.256,0.2711 -0.637,0.4141 -1.148,0.4141 -0.414,0 -0.803,-0.125 -1.176,-0.3711 -0.369,-0.2422 -0.658,-0.5731 -0.869,-0.9821 -0.225,-0.5238 -0.342,-1.464 -0.342,-2.807" /><path
       inkscape:connector-curvature="0"
       id="path6709"
       style="fill:#ffffff;fill-opacity:1;fill-rule:evenodd;stroke:none"
       d="m 375.906,57.2961 c 0,0 -1.711,0.2719 -3.377,2.0969 -1.679,1.8379 -1.963,3.789 -1.963,3.789 0,0 2.131,-0.5039 3.663,-0.6699 2.695,-0.307 5.125,-0.1371 6.269,-0.0141 2.481,0.2731 3.801,0.7309 4.334,0.8641 3.168,0.757 6.213,2.809 6.213,2.809 0,0 0.385,-2.3801 -1.406,-5.0199 -0.698,-1.0301 -2.086,-2.2141 -3.688,-3.0301 -5.48,-2.3352 -10.045,-0.825 -10.045,-0.825" /><path
       inkscape:connector-curvature="0"
       id="path6711"
       style="fill:#ffffff;fill-opacity:1;fill-rule:evenodd;stroke:none"
       d="m 385.76,68.018 c -1.137,-0.068 -2.117,0.7859 -2.188,1.9191 -0.068,1.1238 0.797,2.0988 1.932,2.1731 1.133,0.075 2.117,-0.7903 2.184,-1.9133 0.074,-1.1321 -0.795,-2.1078 -1.928,-2.1789 z m -9.221,-2.3168 c -1.805,-0.1203 -3.357,1.2418 -3.471,3.0386 -0.113,1.7903 1.26,3.3454 3.065,3.4551 1.808,0.125 3.363,-1.2437 3.471,-3.0347 0.117,-1.7961 -1.26,-3.3461 -3.065,-3.459 z m 12.318,5.1168 c -0.593,0.714 -2.552,4.0781 -6.523,4.5609 -1.018,0.1211 -6.385,-0.0848 -9.604,-3.068 -0.322,-0.2988 -1.957,-1.7371 -2.5,-4.4089 -0.421,-2.0649 0.272,-4.3938 0.272,-4.3938 0,0 3.57,-0.7422 6.262,-0.675 4.269,0.1059 6.416,0.4816 8.648,1.1578 3.287,0.9988 5.611,2.6629 5.611,2.6629 0,0 -1.576,3.4461 -2.166,4.1641" /><path
       inkscape:connector-curvature="0"
       id="path6713"
       style="fill:#ffffff;fill-opacity:1;fill-rule:evenodd;stroke:none"
       d="m 387.311,73.141 1.037,1.2492 c 0,0 1.431,-0.705 2.351,-2.0363 0.918,-1.3199 1.514,-2.5309 1.514,-2.5309 l -1.711,-1.041 c 0,0 -0.529,1.277 -1.326,2.302 -0.791,1.0199 -1.865,2.057 -1.865,2.057" /><path
       inkscape:connector-curvature="0"
       id="path6715"
       style="fill:#ffffff;fill-opacity:1;fill-rule:evenodd;stroke:none"
       d="m 390.566,72.2781 c 0.268,0.161 0.721,0.1828 0.694,0.568 -0.018,0.3738 -0.274,1.1219 0.469,1.375 0.753,0.2559 0.332,-0.2211 0.072,-0.5512 -0.258,-0.3277 -0.174,-0.5289 -0.141,-1.016 0.028,-0.475 -0.312,-0.6359 -0.82,-0.8719 -0.506,-0.2441 -0.539,0.3371 -0.274,0.4961" /><path
       inkscape:connector-curvature="0"
       id="path6717"
       style="fill:#ffffff;fill-opacity:1;fill-rule:evenodd;stroke:none"
       d="m 371.541,71.5152 c 0,0 -1.199,-1.3961 -1.506,-2.6562 -0.303,-1.266 -0.24,-2.7871 -0.24,-2.7871 l -1.781,0.6133 c 0,0 -0.1,1.7468 0.707,3.1609 0.904,1.566 2.052,2.273 2.052,2.273 l 0.768,-0.6039" /><path
       inkscape:connector-curvature="0"
       id="path6719"
       style="fill:#ffffff;fill-opacity:1;fill-rule:evenodd;stroke:none"
       d="m 368.926,69.9262 c -0.289,0.1898 -0.317,0.6398 -0.545,0.9347 -0.227,0.2993 -0.285,0.118 -0.805,0.118 -0.523,0.0051 -0.537,0.2481 -0.687,0.3731 -0.149,0.1289 -0.217,-0.3911 -0.217,-0.3911 0,0 0.098,-0.4449 0.656,-0.4769 0.555,-0.0371 0.541,0.239 0.781,-0.2621 0.241,-0.5059 0.717,-0.8899 0.717,-0.8899 0,0 0.393,0.4059 0.1,0.5942" /><path
       inkscape:connector-curvature="0"
       id="path6721"
       style="fill:#ffffff;fill-opacity:1;fill-rule:evenodd;stroke:none"
       d="m 378.361,76.5492 c 2.916,0.7297 4.743,-0.1121 4.743,-0.1121 l -0.155,-0.8379 c 0,0 -2.135,0.1406 -3.824,-0.1113 -1.687,-0.241 -2.457,-0.7727 -2.457,-0.7727 l -0.365,0.8379 c 0,0 0.799,0.6789 2.058,0.9961" /><path
       inkscape:connector-curvature="0"
       id="path6723"
       style="fill:#ffffff;fill-opacity:1;fill-rule:evenodd;stroke:none"
       d="m 379.236,77.7461 0.409,0.1527 0.543,-1.4566 -0.409,-0.1512 -0.543,1.4551" /><path
       inkscape:connector-curvature="0"
       id="path6725"
       style="fill:#ffffff;fill-opacity:1;fill-rule:evenodd;stroke:none"
       d="m 392.082,75.0461 c 0.414,0.023 0.764,-0.2891 0.789,-0.702 0.027,-0.4089 -0.285,-0.7609 -0.697,-0.7851 -0.412,-0.032 -0.762,0.2859 -0.789,0.6941 -0.026,0.409 0.285,0.7571 0.697,0.793" /><path
       inkscape:connector-curvature="0"
       id="path6727"
       style="fill:#ffffff;fill-opacity:1;fill-rule:evenodd;stroke:none"
       d="m 366.469,72.227 c 0.414,0.0222 0.767,-0.2872 0.793,-0.695 0.023,-0.4101 -0.287,-0.759 -0.699,-0.7871 -0.413,-0.0289 -0.764,0.2832 -0.795,0.6922 -0.022,0.409 0.293,0.7578 0.701,0.7899" /><path
       inkscape:connector-curvature="0"
       id="path6729"
       style="fill:#ffffff;fill-opacity:1;fill-rule:evenodd;stroke:none"
       d="m 379.592,79.6039 c 0.656,0.041 1.221,-0.4508 1.26,-1.1059 0.041,-0.6488 -0.457,-1.2109 -1.114,-1.2539 -0.656,-0.0461 -1.217,0.452 -1.261,1.1079 -0.041,0.6492 0.459,1.2128 1.115,1.2519" /><path
       inkscape:connector-curvature="0"
       id="path6731"
       style="fill:#ffffff;fill-opacity:1;fill-rule:nonzero;stroke:none"
       d="m 282.514,65.2531 c -1.141,0 -1.701,-1.1968 -1.701,-2.2351 0,-1.0188 0.56,-2.2051 1.701,-2.2051 1.199,0 1.718,1.218 1.718,2.282 0,1.066 -0.548,2.1582 -1.718,2.1582 z m 3.91,-5.1371 c 0,-0.7351 -0.463,-1.218 -1.102,-1.218 -0.603,0 -0.957,0.3329 -1.09,0.9161 -0.414,-0.6711 -1.259,-1.0032 -2.005,-1.0032 -2.207,0 -3.604,2.0461 -3.604,4.1161 0,2.1332 1.17,4.3351 3.525,4.3351 0.76,0 1.506,-0.2621 2.084,-0.7652 l 0,2.984 c 0,0.7242 0.454,1.2101 1.09,1.2101 0.639,0 1.102,-0.4859 1.102,-1.2101 l 0,-9.3649" /><path
       inkscape:connector-curvature="0"
       id="path6733"
       style="fill:#ffffff;fill-opacity:1;fill-rule:nonzero;stroke:none"
       d="m 292.865,63.7652 c -0.123,0.961 -0.73,1.6668 -1.75,1.6668 -0.972,0 -1.629,-0.739 -1.732,-1.6668 l 3.482,0 z m -3.439,-1.457 c 0.156,-1.0801 1.051,-1.584 2.072,-1.584 1.123,0 1.897,0.8817 2.477,0.8817 0.47,0 0.892,-0.4688 0.892,-0.9457 0,-0.9422 -1.943,-1.8493 -3.568,-1.8493 -2.463,0 -4.106,1.7942 -4.106,4.2071 0,2.2179 1.614,4.2441 3.922,4.2441 2.369,0 3.94,-2.1641 3.94,-3.9851 0,-0.654 -0.291,-0.9688 -0.961,-0.9688 l -4.668,0" /><path
       inkscape:connector-curvature="0"
       id="path6735"
       style="fill:#ffffff;fill-opacity:1;fill-rule:nonzero;stroke:none"
       d="m 300.434,64.7051 c -0.413,0 -1.248,0.639 -1.963,0.639 -0.393,0 -0.744,-0.1812 -0.744,-0.607 0,-1.016 3.8,-0.868 3.8,-3.3641 0,-1.455 -1.23,-2.5621 -3.117,-2.5621 -1.23,0 -3.053,0.6973 -3.053,1.6832 0,0.336 0.334,0.9731 0.942,0.9731 0.849,0 1.23,-0.743 2.264,-0.743 0.667,0 0.867,0.2117 0.867,0.6238 0,1.004 -3.803,0.8489 -3.803,3.3571 0,1.5191 1.234,2.557 2.963,2.557 1.082,0 2.738,-0.507 2.738,-1.5859 0,-0.4981 -0.381,-0.9711 -0.894,-0.9711" /><path
       inkscape:connector-curvature="0"
       id="path6737"
       style="fill:#ffffff;fill-opacity:1;fill-rule:nonzero;stroke:none"
       d="m 302.271,65.95 c 0,0.732 0.456,1.218 1.094,1.218 0.637,0 1.094,-0.486 1.094,-1.218 l 0,-5.834 c 0,-0.7351 -0.457,-1.218 -1.094,-1.218 -0.638,0 -1.094,0.4829 -1.094,1.218 l 0,5.834 z m 2.325,3.302 c 0,-0.6899 -0.545,-1.2622 -1.231,-1.2622 -0.654,0 -1.23,0.5922 -1.23,1.2622 0,0.623 0.576,1.1949 1.23,1.1949 0.653,0 1.231,-0.5547 1.231,-1.1949" /><path
       inkscape:connector-curvature="0"
       id="path6739"
       style="fill:#ffffff;fill-opacity:1;fill-rule:nonzero;stroke:none"
       d="m 309.244,65.2531 c -1.137,0 -1.697,-1.1859 -1.697,-2.207 0,-1.166 0.56,-2.2332 1.697,-2.2332 1.172,0 1.721,1.0922 1.721,2.166 0,1.0563 -0.52,2.2742 -1.721,2.2742 z m 3.908,-5.6269 c 0,-2.625 -1.716,-3.9543 -4.211,-3.9543 -0.894,0 -3.449,0.4441 -3.449,1.6472 0,0.4098 0.455,0.9571 0.883,0.9571 0.699,0 1.475,-0.6801 2.734,-0.6801 1.065,0 1.856,0.616 1.856,1.7301 l 0,0.514 -0.031,0 c -0.454,-0.6672 -1.2,-1.0293 -2.202,-1.0293 -2.294,0 -3.378,2.0192 -3.378,4.1903 0,2.207 1.4,4.2609 3.605,4.2609 0.744,0 1.594,-0.3359 2.006,-1.0031 0.137,0.5762 0.484,0.909 1.094,0.909 0.638,0 1.093,-0.486 1.093,-1.218 l 0,-6.3238" /><path
       inkscape:connector-curvature="0"
       id="path6741"
       style="fill:#ffffff;fill-opacity:1;fill-rule:nonzero;stroke:none"
       d="m 314.396,65.95 c 0,0.732 0.456,1.218 1.096,1.218 0.565,0 0.928,-0.3032 1.002,-0.809 0.432,0.5969 1.082,0.9031 2.113,0.9031 1.719,0 2.995,-1.0961 2.995,-2.95 l 0,-4.1961 c 0,-0.7351 -0.452,-1.218 -1.092,-1.218 -0.637,0 -1.096,0.4829 -1.096,1.218 l 0,3.8172 c 0,1.0137 -0.639,1.4988 -1.43,1.4988 -0.892,0 -1.396,-0.6531 -1.396,-1.4988 l 0,-3.8172 c 0,-0.7351 -0.459,-1.218 -1.096,-1.218 -0.64,0 -1.096,0.4829 -1.096,1.218 l 0,5.834" /><path
       inkscape:connector-curvature="0"
       id="path6743"
       style="fill:#ffffff;fill-opacity:1;fill-rule:nonzero;stroke:none"
       d="m 328.047,63.7652 c -0.123,0.961 -0.729,1.6668 -1.746,1.6668 -0.977,0 -1.631,-0.739 -1.735,-1.6668 l 3.481,0 z m -3.436,-1.457 c 0.153,-1.0801 1.049,-1.584 2.067,-1.584 1.125,0 1.9,0.8817 2.478,0.8817 0.469,0 0.899,-0.4688 0.899,-0.9457 0,-0.9422 -1.95,-1.8493 -3.575,-1.8493 -2.464,0 -4.103,1.7942 -4.103,4.2071 0,2.2179 1.611,4.2441 3.924,4.2441 2.369,0 3.933,-2.1641 3.933,-3.9851 0,-0.654 -0.289,-0.9688 -0.957,-0.9688 l -4.666,0" /><path
       inkscape:connector-curvature="0"
       id="path6745"
       style="fill:#ffffff;fill-opacity:1;fill-rule:nonzero;stroke:none"
       d="m 334.584,65.2531 c -1.141,0 -1.703,-1.1968 -1.703,-2.2351 0,-1.0188 0.562,-2.2051 1.703,-2.2051 1.197,0 1.717,1.218 1.717,2.282 0,1.066 -0.547,2.1582 -1.717,2.1582 z m 3.902,-5.1371 c 0,-0.7351 -0.453,-1.218 -1.095,-1.218 -0.606,0 -0.955,0.3329 -1.09,0.9161 -0.414,-0.6711 -1.262,-1.0032 -2.01,-1.0032 -2.201,0 -3.598,2.0461 -3.598,4.1161 0,2.1332 1.168,4.3351 3.526,4.3351 0.758,0 1.502,-0.2621 2.082,-0.7652 l 0,2.984 c 0,0.7242 0.455,1.2101 1.09,1.2101 0.642,0 1.095,-0.4859 1.095,-1.2101 l 0,-9.3649" /><path
       inkscape:connector-curvature="0"
       id="path6747"
       style="fill:#ffffff;fill-opacity:1;fill-rule:nonzero;stroke:none"
       d="m 347.713,60.8129 c 1.139,0 1.703,1.1863 1.703,2.2051 0,1.0383 -0.564,2.2351 -1.703,2.2351 -1.17,0 -1.719,-1.0922 -1.719,-2.1582 0,-1.064 0.52,-2.282 1.719,-2.282 z m -3.906,8.668 c 0,0.7242 0.459,1.2101 1.097,1.2101 0.635,0 1.09,-0.4859 1.09,-1.2101 l 0,-2.984 c 0.582,0.5031 1.324,0.7652 2.082,0.7652 2.36,0 3.528,-2.2019 3.528,-4.3351 0,-2.07 -1.397,-4.1161 -3.604,-4.1161 -0.742,0 -1.594,0.3321 -2.006,1.0032 -0.137,-0.5832 -0.482,-0.9161 -1.09,-0.9161 -0.638,0 -1.097,0.4829 -1.097,1.218 l 0,9.3649" /><path
       inkscape:connector-curvature="0"
       id="path6749"
       style="fill:#ffffff;fill-opacity:1;fill-rule:nonzero;stroke:none"
       d="m 351.984,65.6648 c -0.062,0.1641 -0.107,0.3372 -0.107,0.5594 0,0.5488 0.578,0.9438 1.033,0.9438 0.531,0 0.914,-0.293 1.096,-0.775 l 1.504,-4.12 1.609,4.12 c 0.182,0.482 0.563,0.775 1.096,0.775 0.459,0 1.033,-0.395 1.033,-0.9438 0,-0.2222 -0.031,-0.3953 -0.103,-0.5594 l -3.665,-9.1226 c -0.183,-0.4531 -0.519,-0.8703 -1.035,-0.8703 -0.74,0 -1.14,0.4781 -1.14,0.9453 0,0.2168 0.062,0.4449 0.136,0.641 l 0.961,2.368 -2.418,6.0386" /></g></svg>