<?xml version="1.0" encoding="UTF-8" standalone="no"?>
<!-- Created with Inkscape (http://www.inkscape.org/) -->

<svg
   xmlns:dc="http://purl.org/dc/elements/1.1/"
   xmlns:cc="http://creativecommons.org/ns#"
   xmlns:rdf="http://www.w3.org/1999/02/22-rdf-syntax-ns#"
   xmlns:svg="http://www.w3.org/2000/svg"
   xmlns="http://www.w3.org/2000/svg"
   xmlns:sodipodi="http://sodipodi.sourceforge.net/DTD/sodipodi-0.dtd"
   xmlns:inkscape="http://www.inkscape.org/namespaces/inkscape"
   width="744.09448819"
   height="1052.3622047"
   id="svg2"
   version="1.1"
   inkscape:version="0.48.4 r9939"
   sodipodi:docname="pasen_zakje.svg">
  <defs
     id="defs4" />
  <sodipodi:namedview
     id="base"
     pagecolor="#ffffff"
     bordercolor="#666666"
     borderopacity="1.0"
     inkscape:pageopacity="0.0"
     inkscape:pageshadow="2"
     inkscape:zoom="0.98994949"
     inkscape:cx="375.00335"
     inkscape:cy="690.70263"
     inkscape:document-units="px"
     inkscape:current-layer="layer1"
     showgrid="false"
     inkscape:window-width="1535"
     inkscape:window-height="876"
     inkscape:window-x="65"
     inkscape:window-y="24"
     inkscape:window-maximized="1" />
  <metadata
     id="metadata7">
    <rdf:RDF>
      <cc:Work
         rdf:about="">
        <dc:format>image/svg+xml</dc:format>
        <dc:type
           rdf:resource="http://purl.org/dc/dcmitype/StillImage" />
        <dc:title></dc:title>
      </cc:Work>
    </rdf:RDF>
  </metadata>
  <g
     inkscape:label="Layer 1"
     inkscape:groupmode="layer"
     id="layer1">
    <flowRoot
       xml:space="preserve"
       id="flowRoot3807"
       style="fill:black;stroke:none;stroke-opacity:1;stroke-width:1px;stroke-linejoin:miter;stroke-linecap:butt;fill-opacity:1;font-family:Sans;font-style:normal;font-weight:normal;font-size:40px;line-height:125%;letter-spacing:0px;word-spacing:0px"><flowRegion
         id="flowRegion3809"><rect
           id="rect3811"
           width="347.14285"
           height="146.42857"
           x="141.42857"
           y="588.07648" /></flowRegion><flowPara
         id="flowPara3813"></flowPara></flowRoot>    <g
       id="g4196">
      <rect
         y="130.50169"
         x="84.851433"
         height="352.93347"
         width="389.76654"
         id="rect2985"
         style="fill:none;fill-opacity:1;stroke:#090000;stroke-width:7.44094467000000037;stroke-miterlimit:2.79999999999999982;stroke-opacity:0;stroke-dasharray:none;stroke-dashoffset:7.44094508999999871" />
      <rect
         style="fill:#ffffff;fill-opacity:1;stroke:#4a4141;stroke-width:2.48031496;stroke-miterlimit:4;stroke-opacity:1;stroke-dasharray:2.48031496,14.88188976;stroke-dashoffset:0.99212598;stroke-linejoin:bevel;stroke-linecap:butt"
         id="rect3755"
         width="354.33072"
         height="318.89764"
         x="102.97007"
         y="146.11874" />
      <rect
         style="fill:none;stroke:#4a4141;stroke-width:1.51424468;stroke-miterlimit:4;stroke-opacity:1;stroke-dasharray:1.51424485, 9.08546909;stroke-dashoffset:0"
         id="rect3757"
         width="388.24951"
         height="352.81647"
         x="87.106606"
         y="129.51294" />
      <flowRoot
         transform="matrix(1.1125955,0,0,0.9999995,-28.802201,-9.5610971)"
         style="font-size:40px;font-style:normal;font-weight:normal;text-align:center;line-height:125%;letter-spacing:0px;word-spacing:0px;text-anchor:middle;fill:#000000;fill-opacity:1;stroke:none;font-family:Sans"
         id="flowRoot6474"
         xml:space="preserve"><flowRegion
           id="flowRegion6476"><rect
             ry="0"
             style="text-align:center;text-anchor:middle"
             y="296.20639"
             x="37.459732"
             height="268.73288"
             width="477.20438"
             id="rect6478" /></flowRegion><flowPara
           style="font-style:normal;font-variant:normal;font-weight:normal;font-stretch:normal;text-align:center;text-anchor:middle;font-family:Cinzel;-inkscape-font-specification:Cinzel"
           id="flowPara6480" /><flowPara
           id="flowPara6484"
           style="font-size:37.9220189px;font-style:normal;font-variant:normal;font-weight:normal;font-stretch:normal;text-align:center;text-anchor:middle;font-family:Shadows Into Light Two;-inkscape-font-specification:Shadows Into Light Two">Alles komt goed</flowPara><flowPara
           style="font-size:26.54541323px;font-style:normal;font-variant:normal;font-weight:normal;font-stretch:normal;text-align:center;text-anchor:middle;font-family:Shadows Into Light Two;-inkscape-font-specification:Shadows Into Light Two"
           id="flowPara6482">... ook dit</flowPara></flowRoot>      <text
         sodipodi:linespacing="125%"
         id="text3817"
         y="443.21933"
         x="351.28571"
         style="font-size:40px;font-style:normal;font-weight:normal;line-height:125%;letter-spacing:0px;word-spacing:0px;fill:#000000;fill-opacity:1;stroke:none;font-family:Sans"
         xml:space="preserve"><tspan
           style="font-size:28px;font-style:normal;font-variant:normal;font-weight:normal;font-stretch:normal;font-family:Schoolbell;-inkscape-font-specification:Schoolbell"
           y="443.21933"
           x="351.28571"
           id="tspan3819"
           sodipodi:role="line">Carina</tspan></text>
      <g
         transform="matrix(1.2569711,0,0,-1.0919715,-496.22515,602.59061)"
         id="g4167">
        <path
           inkscape:connector-curvature="0"
           id="path212"
           style="fill:#000000;fill-opacity:1;fill-rule:nonzero;stroke:none"
           d="m 643.80072,451.74666 c -2.51376,0 -4.54973,-1.90257 -4.54973,-4.24889 0,-2.34632 2.03597,-4.24779 4.54973,-4.24779 2.51258,0 4.5533,1.90147 4.5533,4.24779 0,2.34632 -2.04072,4.24889 -4.5533,4.24889 z m -23.87423,16.36323 c -1.55699,0 -5.75016,-2.4029 -5.75016,-5.36714 0,-2.96424 2.57438,-3.68977 5.75016,-3.68977 3.17578,0 5.75017,0.72553 5.75017,3.68977 0,2.96424 -4.19437,5.36714 -5.75017,5.36714 z m -23.87423,-16.36323 c -2.51495,0 -4.55211,-1.90257 -4.55211,-4.24889 0,-2.34632 2.03716,-4.24779 4.55211,-4.24779 2.51377,0 4.54974,1.90147 4.54974,4.24779 0,2.34632 -2.03597,4.24889 -4.54974,4.24889 z m -1.95039,-92.8777 c 7.11104,-0.52585 8.27938,48.42185 8.27938,48.42185 -3.8794,-11.31892 -15.38924,-47.89601 -8.27938,-48.42185 z m 51.64806,0 c 7.11104,0.52584 -4.39998,37.10293 -8.27819,48.42185 0,0 1.16834,-48.9477 8.27819,-48.42185 z m 0.27693,54.02085 c 9.92907,-19.86441 27.87367,-62.43987 3.59058,-69.95698 -23.1504,-7.16654 -24.86309,37.69201 -24.06677,62.79488 -1.84462,-0.20746 -3.71895,-0.32727 -5.62418,-0.32727 -1.90642,0 -3.77956,0.11981 -5.62536,0.32727 0.79632,-25.10287 -0.91518,-69.96142 -24.06559,-62.79488 -24.28309,7.51711 -6.33968,50.09257 3.59058,69.95698 -12.28357,7.80221 -20.35377,20.95492 -20.35377,35.87042 0,23.9469 20.79829,43.35979 46.45414,43.35979 25.65586,0 46.45414,-19.41289 46.45414,-43.35979 0,-14.9155 -8.0702,-28.06821 -20.35377,-35.87042" />
        <rect
           style="fill:#ffffff;fill-opacity:1;stroke:none"
           id="rect4057"
           width="100.27822"
           height="71.627296"
           x="572.85712"
           y="424.3063" />
      </g>
      <flowRoot
         transform="matrix(-1.1125955,0,0,-0.9999995,585.01625,648.01587)"
         style="font-size:40px;font-style:normal;font-weight:normal;text-align:center;line-height:125%;letter-spacing:0px;word-spacing:0px;text-anchor:middle;fill:#000000;fill-opacity:1;stroke:none;font-family:Sans"
         id="flowRoot6474-4"
         xml:space="preserve"><flowRegion
           id="flowRegion6476-1"><rect
             ry="0"
             style="text-align:center;text-anchor:middle"
             y="296.20639"
             x="37.459732"
             height="268.73288"
             width="477.20438"
             id="rect6478-7" /></flowRegion><flowPara
           style="font-style:normal;font-variant:normal;font-weight:normal;font-stretch:normal;text-align:center;text-anchor:middle;font-family:Cinzel;-inkscape-font-specification:Cinzel"
           id="flowPara6480-7" /><flowPara
           style="font-size:30.33761597px;font-style:normal;font-variant:normal;font-weight:normal;font-stretch:normal;text-align:center;text-anchor:middle;font-family:Shadows Into Light Two;-inkscape-font-specification:Shadows Into Light Two"
           id="flowPara6482-6">Alvast enkele paaseitjes</flowPara><flowPara
           id="flowPara4115"
           style="font-size:18.96100998px;font-style:normal;font-variant:normal;font-weight:normal;font-stretch:normal;text-align:center;text-anchor:middle;font-family:Shadows Into Light Two;-inkscape-font-specification:Shadows Into Light Two">... dan hoef je niet meer te zoeken</flowPara></flowRoot>    </g>
  </g>
</svg>
