<?xml version="1.0" encoding="UTF-8" standalone="no"?>
<!-- Created with Inkscape (http://www.inkscape.org/) -->

<svg
   xmlns:dc="http://purl.org/dc/elements/1.1/"
   xmlns:cc="http://creativecommons.org/ns#"
   xmlns:rdf="http://www.w3.org/1999/02/22-rdf-syntax-ns#"
   xmlns:svg="http://www.w3.org/2000/svg"
   xmlns="http://www.w3.org/2000/svg"
   xmlns:sodipodi="http://sodipodi.sourceforge.net/DTD/sodipodi-0.dtd"
   xmlns:inkscape="http://www.inkscape.org/namespaces/inkscape"
   width="210mm"
   height="297mm"
   id="svg4787"
   version="1.1"
   inkscape:version="0.48.4 r9939"
   sodipodi:docname="favorietje.svg">
  <defs
     id="defs3" />
  <sodipodi:namedview
     inkscape:document-units="mm"
     id="base"
     pagecolor="#ffffff"
     bordercolor="#666666"
     borderopacity="1.0"
     inkscape:pageopacity="0.0"
     inkscape:pageshadow="2"
     inkscape:zoom="0.5"
     inkscape:cx="56.40774"
     inkscape:cy="683.98414"
     inkscape:current-layer="layer1"
     showgrid="false"
     inkscape:window-width="1535"
     inkscape:window-height="876"
     inkscape:window-x="65"
     inkscape:window-y="24"
     inkscape:window-maximized="1" />
  <metadata
     id="metadata4">
    <rdf:RDF>
      <cc:Work
         rdf:about="">
        <dc:format>image/svg+xml</dc:format>
        <dc:type
           rdf:resource="http://purl.org/dc/dcmitype/StillImage" />
        <dc:title></dc:title>
      </cc:Work>
    </rdf:RDF>
  </metadata>
  <g
     inkscape:label="Layer 1"
     inkscape:groupmode="layer"
     id="layer1">
    <path
       inkscape:connector-curvature="0"
       id="path3277"
       style="fill:#2f3031;fill-opacity:1;fill-rule:nonzero;stroke:none"
       d="m 608.43726,470.52582 c -7.5243,13.87215 -20.5119,23.05929 -33.2914,30.05497 -13.6559,7.47459 -28.1247,12.99112 -41.813,20.37983 -9.4678,-14.04997 -17.9019,-28.92944 -25.1196,-44.55152 -6.9557,-15.05527 -13.8,-32.36666 -6.9138,-48.7071 2.4635,3.14321 5.3665,5.58119 8.5049,5.63373 1.9722,0.0334 3.5542,-1.11745 4.905,-2.60469 -0.8583,5.7287 -1.2405,11.4857 -1.2409,17.32149 0,0.72746 0.6599,1.44784 1.3267,1.36297 1.4436,-0.18388 1.7288,-0.93559 2.8902,-1.75195 0.251,-0.32635 0.4982,-0.65471 0.7419,-0.98813 1.3011,-0.43142 2.52,-0.35059 3.6561,0.24451 1.6111,0.4779 3.2084,1.38014 4.7638,2.05001 1.0451,0.45061 2.1202,-0.38091 1.8412,-1.67921 -2.226,-10.35612 -2.3363,-20.64758 -1.6544,-31.15525 7.2274,8.96789 10.4722,19.98074 13.296,31.521 0.2685,1.09724 1.5906,1.11239 2.075,0.22935 1.3369,-2.43799 2.7487,-6.52992 4.6133,-8.4122 2.1239,-2.14498 7.5096,1.54584 9.8505,2.71178 0.9107,0.45365 1.8331,-0.37282 1.6026,-1.46198 -1.5884,-7.49884 -4.1956,-14.51877 -7.811,-21.06182 1.8107,-1.51755 2.9703,-3.83732 3.703,-6.47636 3.0945,2.7522 5.2875,6.4602 6.091,10.84917 0.4954,2.70573 -0.094,6.50061 1.1994,8.94163 -0.1489,1.28213 0.9781,2.64005 2.1381,1.66001 11.5558,-9.76204 28.8842,-16.81935 41.5905,-5.15685 11.0893,10.18032 9.8483,28.52328 3.0549,41.04661 z m -110.748,-54.53381 c -1.1653,-2.43495 -2.6558,-5.47712 -3.0831,-8.26469 -0.1216,-0.79312 -0.1514,-1.47612 -0.105,-2.06516 1.9112,3.08461 6.0351,4.87597 9.1157,5.44782 5.0237,0.93256 10.1902,-0.51224 14.0475,-4.10607 0.2135,1.40641 0.4341,2.83909 0.7259,4.23035 -2.3153,0.23945 -4.2601,2.37332 -4.1296,5.18816 0.056,1.21748 1.5551,1.06794 1.6501,-0.0738 0.1369,-1.6489 1.3752,-3.18767 2.8171,-3.69689 0.092,0.34756 0.1795,0.70018 0.2876,1.03663 0.2873,0.89214 0.7153,1.66708 1.3225,2.18236 -0.9671,2.37029 -2.0569,4.67793 -3.3402,6.85929 -0.9466,1.60848 -2.0027,3.1725 -3.1655,4.59508 -1.4327,1.75397 -1.8738,2.44607 -4.192,2.33291 -2.7094,-0.13135 -5.1673,-2.44607 -7.2326,-5.31648 -0.051,-0.10104 -0.1139,-0.19096 -0.1901,-0.27179 -1.8892,-2.68754 -3.4403,-5.80549 -4.5283,-8.07777 z m 4.3715,-13.8671 c 3.2676,0.0687 6.5167,0.54863 9.6931,1.39934 1.7794,0.47588 3.2217,1.19626 4.8775,1.0629 0.042,0.24854 0.1755,0.45971 0.3528,0.61328 -3.0686,2.48143 -6.7322,3.91714 -10.5816,3.84944 -3.3148,-0.0586 -9.3871,-1.61959 -11.1414,-5.53067 1.3791,-1.73679 4.3392,-1.4448 6.7996,-1.39429 z m 23.5885,43.11682 c -2.1701,-1.14776 -4.6801,-2.44606 -6.5933,-2.17731 -1.3873,0.195 -2.1221,1.70144 -3.0154,2.68047 0.1003,-6.0015 0.6025,-11.96157 1.4004,-17.9075 0.032,-0.23642 0.01,-0.44658 -0.054,-0.6345 2.2824,-3.30487 4.03,-6.87444 5.3857,-10.74309 0.9128,-0.15458 1.8707,-0.60419 2.7827,-1.10835 -2.1493,9.79941 -1.7575,20.06157 0.094,29.89028 z m 0.379,-42.30651 c 0.7926,1.09219 1.4806,3.99493 1.7735,5.38316 0.5961,2.82495 -1.0394,3.29577 -2.7647,4.1768 -1.3497,0.68906 -2.6356,2.0399 -3.7637,0.0233 -0.5304,-0.94872 -0.5411,-2.85829 -0.7404,-3.9525 -0.2617,-1.43572 -0.5185,-2.87244 -0.7993,-4.3031 -0.028,-0.14246 -0.072,-0.26067 -0.1242,-0.36979 1.9466,-1.72366 4.572,-3.50289 6.4188,-0.95781 z m 11.2073,-13.84083 c 2.6136,-2.48547 6.1811,-4.4405 9.56,-2.76938 -3.6094,8.43948 -10.8235,14.19445 -19.2147,14.44906 -0.2621,-0.32735 -0.5646,-0.62136 -0.9196,-0.8689 4.2768,-2.70775 6.8777,-7.29677 10.5743,-10.81078 z m 18.4924,49.74372 c -1.9533,-1.0447 -3.9449,-2.11062 -5.9726,-2.77341 -0.938,-0.30614 -1.7026,-0.73251 -2.6977,-0.30816 -1.1787,0.50416 -1.7993,2.06819 -2.4011,3.14927 -0.9639,1.73376 -1.9101,3.47965 -2.8559,5.22554 -2.7246,-10.88857 -6.1379,-22.739 -14.3347,-29.89028 0.099,-0.0566 0.2021,-0.11821 0.2968,-0.17075 0.8628,-0.48093 1.754,-1.08613 2.3618,-1.91058 4.4768,4.06061 12.4996,11.02194 18.5087,8.71632 3.1456,5.62665 5.5151,11.59885 7.0947,17.96205 z m -3.3597,-42.33682 c 0.7709,5.6701 1.2689,15.53317 -2.7009,20.0545 -4.7399,5.3973 -14.6258,-4.33038 -18.6045,-7.33213 -0.094,-0.0718 -0.1897,-0.11822 -0.2854,-0.15459 -0.2227,-1.22455 -0.8476,-2.44303 -1.3082,-3.62515 0.8249,-0.12225 2.4146,0.48801 3.0175,0.59611 1.0731,0.19096 2.0866,0.29098 3.175,0.22127 0.6209,-0.0394 0.9663,-1.14271 0.3003,-1.4347 -1.5844,-0.69613 -3.2122,-0.97802 -4.8924,-1.2397 -0.8054,-0.12529 -1.5529,-0.31725 -2.1877,-0.0384 -0.1237,-0.42334 -0.2589,-0.84263 -0.4252,-1.24273 8.6122,0.21116 17.0295,-5.58523 19.9227,-14.91989 2.4635,2.14903 3.532,5.75599 3.9888,9.11541 z m 64.4901,51.36029 c -0.9178,-11.7201 -7.0512,-21.90143 -17.1337,-25.99942 -12.4983,-5.08005 -25.504,-0.009 -35.7027,8.4415 -0.042,-1.02349 -0.1823,-2.07122 -0.2539,-3.1038 -0.1798,-2.59964 -0.5401,-5.13058 -1.4171,-7.56047 -1.4898,-4.12629 -4.0268,-7.40488 -7.2801,-9.89944 0.611,-4.31724 0.4053,-8.9386 0.08,-12.2081 -0.6822,-6.86737 -4.1558,-15.10579 -11.4314,-14.834 -8.5841,0.3223 -12.197,11.10883 -18.5655,15.69078 -0.2599,0.18691 -0.395,0.43142 -0.4364,0.683 -2.7148,-0.51225 -5.3461,1.57413 -7.2252,3.83631 -2.1377,-2.61884 -6.3968,-3.05329 -9.3498,-3.54533 -3.8506,-0.64157 -8.199,-1.06794 -12.0311,-0.16671 -8.3022,1.95301 -3.6541,12.27579 -1.0788,17.78929 1.1196,2.39757 2.7821,5.72163 4.8339,8.74763 -8.7309,14.01764 -3.1905,32.08882 2.8963,46.1792 7.8465,18.16413 17.4012,35.37044 28.2882,51.46638 0.7019,1.03763 1.8955,0.84768 2.5353,0.1566 13.1971,-4.99114 26.3407,-11.12601 38.9948,-17.62258 11.6588,-5.98634 23.1721,-13.2821 32,-23.84433 7.7049,-9.21745 13.2854,-21.32956 12.2768,-34.20651" />
    <path
       inkscape:connector-curvature="0"
       id="path3281"
       style="fill:#2f3031;fill-opacity:1;fill-rule:nonzero;stroke:none"
       d="m 188.82846,948.61244 c -1.8729,-2.38948 -2.9949,-5.29122 -4.7507,-7.73627 -0.5565,-0.77595 -1.8947,-0.40616 -1.7467,0.71432 0.1316,1.00429 0.4239,2.09143 0.8416,3.20787 0.2959,3.09471 0.2832,6.43898 -3.0377,7.34325 -1.6296,0.44354 -3.1893,-0.1364 -4.3676,-1.4347 -1.1067,-1.21849 -1.3854,-2.79767 -2.2442,-4.16266 -0.5711,-0.9073 -1.872,-0.55872 -2.0599,0.5072 -0.2551,1.44783 0.017,2.79362 0.6137,3.9717 -0.1571,0.58297 -0.4812,1.10027 -1.0286,1.42762 -0.5093,0.30412 -1.0867,0.40314 -1.6559,0.31928 -0.2197,-0.0323 -0.4122,-0.096 -0.5965,-0.16267 -0.1216,-3.66051 -0.8089,-7.26949 -2.2324,-10.62993 1.8947,-5.17704 4.0635,-10.87746 8.3685,-14.0823 6.0853,-4.5284 13.5533,-1.00227 17.8056,4.73654 2.0327,2.74513 3.4934,5.9429 4.7018,9.21846 0.5074,1.3761 0.9723,2.77443 1.4126,4.17781 0.2741,0.85375 0.5301,1.71356 0.768,2.58044 0.207,0.43445 0.3305,0.83859 0.3786,1.21445 -0.3786,0.43445 -0.6855,0.93861 -1.1194,1.36195 -0.6909,0.6729 -1.576,1.15585 -2.4548,1.4438 -1.1584,0.37888 -2.2932,0.43748 -3.3954,0.20611 -0.3277,-0.24754 -0.6518,-0.50013 -0.9586,-0.78201 -1.1775,-1.00329 -2.2724,-2.20257 -3.242,-3.44026 z m -51.5356,47.43709 c -0.4059,0.3021 -0.61369,0.69108 -0.68179,1.09421 -13.2764,-5.58018 -31.5686,-12.61426 -34.6543,-30.28432 -1.1902,-6.81382 0.8579,-15.66755 7.5287,-17.73574 8.9623,-2.77746 15.5651,7.11087 19.6095,14.38743 0.956,1.71962 3.074,0.45668 3.0667,-1.25486 -0.042,-9.48014 6.38759,-20.41014 13.45969,-25.46191 9.2855,-6.63195 18.0244,2.03485 19.5786,12.55465 3.1494,21.31946 -13.8973,36.28885 -27.9071,46.70054 z M 99.961266,973.54998 c -0.7807,1.02854 -2.2296,0.54357 -3.0948,-0.0414 -1.3509,-0.91437 -2.217,-2.41575 -2.591,-4.099 -0.1453,-0.65471 -0.7789,-0.63652 -1.1484,-0.27886 -0.6664,-0.35564 -1.3155,0.33342 -1.1503,1.14878 0.3477,1.71861 1.0804,3.22201 0.8316,5.04873 -0.2533,1.85097 -1.3599,3.32709 -2.9523,3.94341 -1.7803,0.68805 -3.448,-0.21925 -4.2823,-1.71255 0.1316,-1.53372 0.1098,-2.99368 -0.035,-4.17175 0.01,-0.0111 0.01,-0.0242 0.016,-0.0364 0.1625,-0.29907 0.041,-0.58196 -0.1716,-0.73756 -0.3413,-0.89719 -1.6014,-1.01439 -1.7912,0.12933 -0.3468,2.09042 -0.4058,4.22428 -0.8588,6.29551 -0.2442,1.11644 -0.4639,2.60772 -1.0404,3.57361 -0.1979,0.79313 -0.7299,1.24274 -1.5969,1.34883 -1.1738,1.34175 -2.128,1.06693 -2.8633,-0.82546 -3.2901,-3.7181 -1.3573,-10.92192 -0.1752,-15.61198 1.3309,-5.27707 4.0117,-9.50136 9.3789,-9.83376 4.305,-0.26674 7.9854,2.245 11.743,4.16972 -0.2052,4.30512 0.4766,8.16467 1.822004,11.62917 -0.014,0.0202 -0.025,0.0424 -0.04,0.0617 z m 98.487694,-37.07996 c -3.7022,-7.93127 -10.7498,-15.224 -19.4116,-13.7994 -7.6967,1.26597 -11.2772,9.52157 -13.5895,16.97595 -4.6191,-8.32632 -13.3245,-11.72414 -21.259,-6.29046 -7.0449,4.82646 -13.10029,14.28639 -14.86509,23.73825 -4.3422,-6.7037 -10.1652,-12.70822 -18.0743,-12.22123 -7.1693,0.44152 -11.626804,6.95931 -12.787904,14.25608 -4.7753,-3.92522 -11.2945,-6.39554 -16.9259,-3.5615 -5.9891,3.01389 -7.4507,10.80169 -8.2895,17.3508 -0.6746,5.26495 -0.7781,14.66729 6.0435,14.66527 3.2846,-8.1e-4 5.1012,-3.49077 5.8901,-7.29677 1.1502,1.16696 2.7535,1.83581 4.4729,1.53069 2.424,-0.43041 4.3986,-2.30664 5.1639,-4.90123 0.1598,-0.54256 0.2632,-1.14372 0.3204,-1.76104 0.4449,0.43041 0.9424,0.80222 1.4889,1.0932 1.3581,0.72543 3.271,0.81334 4.569204,-0.13438 6.7435,13.10226 23.308,19.98782 35.485,23.67359 0.47929,0.14549 0.86699,-0.11821 1.08939,-0.51629 0.4376,0.17782 0.946,0.15963 1.4498,-0.19904 9.6431,-6.86737 19.2981,-14.96939 24.9576,-26.31768 2.5665,-5.14775 4.3095,-11.15228 4.6073,-17.15782 0.2996,0.0546 0.6019,0.0778 0.8888,0.0728 1.1738,-0.0222 2.3159,-0.55266 3.1257,-1.50037 0.3005,-0.35161 0.5256,-0.75878 0.7108,-1.18515 1.9338,1.90755 4.8171,2.8694 7.1185,2.18539 3.0186,-0.89618 4.2759,-3.48369 4.502,-6.39957 3.1711,5.18917 8.4429,9.76405 13.1501,8.66883 8.8061,-2.04799 2.5256,-15.91812 0.1689,-20.96887" />
    <path
       inkscape:connector-curvature="0"
       id="path3285"
       style="fill:#f04952;fill-opacity:1;fill-rule:nonzero;stroke:none"
       d="m 641.47328,272.19518 c -8.0344,2.32482 -16.275,3.67667 -24.5736,3.98483 -16.2459,0.60217 -32.9993,-2.36221 -47.0918,-11.7009 -0.014,-0.14852 -0.036,-0.29704 -0.049,-0.44557 -0.2224,-2.72391 -0.067,-5.58927 0.4322,-8.39805 6.5964,4.53143 14.8015,7.01387 22.2558,8.90828 8.0145,2.03788 16.2505,3.08461 24.4719,3.08663 16.205,0.006 32.6779,-3.74538 47.0518,-12.21719 0.6582,2.39555 0.9251,4.91537 0.8688,7.44832 -7.0022,4.27784 -15.6549,7.10279 -23.3661,9.33365 z m 22.7361,-3.80701 c -1.8075,8.65165 -6.7054,15.4493 -12.4321,21.34775 -1.5206,-3.82419 -6.0571,-5.72466 -9.6104,-4.93053 -3.724,0.83253 -6.3513,4.14245 -6.9641,8.12829 -1.1975,-5.18513 -6.1797,-8.21619 -10.876,-7.13107 -3.2764,0.75676 -6.3713,3.6696 -6.8787,7.23514 -1.2683,-4.01918 -4.6419,-7.22503 -8.5683,-7.52915 -4.0572,-0.31422 -7.7031,2.45112 -9.3681,6.34906 -0.3413,-3.31093 -1.5496,-6.55921 -4.5365,-7.76659 -4.1071,-1.66001 -7.8265,1.40642 -9.8401,5.19625 0.167,-3.47056 -1.4081,-6.90172 -4.0744,-8.84362 -1.9192,-1.39631 -5.5052,-2.11972 -7.2283,-0.20207 -1.832,-4.52537 -3.2056,-9.2225 -3.8311,-14.00653 5.8865,5.46601 13.4788,8.08485 20.8986,9.81963 8.3077,1.94391 16.8333,2.79968 25.3189,2.62893 8.4975,-0.17075 16.9967,-1.39731 25.2518,-3.64939 4.4039,-1.20232 8.7543,-2.72593 12.9776,-4.56276 3.6214,-1.57413 6.847,-3.75548 10.2859,-5.65191 -0.1062,1.19727 -0.2778,2.39049 -0.5247,3.56857 z m -28.0652,25.94788 c 0.7381,-3.416 2.966,-6.47333 6.1407,-7.31495 3.3091,-0.87901 5.7321,1.05582 7.9654,3.36447 -4.7489,1.46198 -9.4216,2.83404 -14.1061,3.95048 z m -17.2409,2.03283 c -1.1375,-4.34856 2.2842,-7.9343 5.8956,-8.65973 4.4049,-0.88608 7.7839,2.03586 8.9532,6.58043 0.066,0.25764 0.1951,0.42131 0.344,0.52841 -5.0231,1.10836 -10.0816,1.87724 -15.2881,2.08335 0.1026,-0.12427 0.1562,-0.30108 0.095,-0.53246 z m -19.2536,-1.2791 c 1.2665,-4.39201 4.7444,-7.81508 9.0976,-7.40286 4.3976,0.41728 7.1629,4.67086 7.6295,9.27201 -1.2628,0.006 -2.5338,-0.0111 -3.8184,-0.0778 -4.3849,-0.22733 -8.6808,-0.85678 -12.9087,-1.79135 z m -14.0035,-4.27784 c 0.013,-0.0172 0.027,-0.0252 0.039,-0.0445 1.9818,-3.22909 5.5497,-6.75017 9.2301,-4.37483 2.6427,1.70547 2.7998,5.21746 3.0104,8.30308 -4.1588,-1.00934 -8.2478,-2.32381 -12.2795,-3.8838 z m 57.0182,7.37861 c -1.2374,1.07906 -2.4784,2.15407 -3.7213,3.22707 -0.1579,-0.14953 -0.3631,-0.22834 -0.5973,-0.13842 -9.074,3.52512 -18.482,4.69612 -28.0407,3.66758 -1.7194,-0.18489 -3.4271,-0.45264 -5.1311,-0.75271 -0.1544,-0.10407 -0.3386,-0.17782 -0.5592,-0.19904 -0.4649,-0.0435 -0.9279,-0.098 -1.3909,-0.14953 -2.3776,-0.47285 -4.7416,-1.0346 -7.0948,-1.65092 -3.7694,-0.98711 -9.4616,-1.82975 -12.8968,-4.69208 -1.7159,-2.54811 -3.3881,-5.21746 -4.9378,-7.99795 10.3304,5.97724 22.0425,8.98709 33.6093,9.76203 11.8138,0.7911 25.0875,-0.48497 36.1659,-5.91057 -1.7903,1.66607 -3.6114,3.27051 -5.4053,4.83454 z m -37.6121,8.22933 c 0.1117,-0.0536 0.2079,-0.12327 0.2905,-0.20612 0.6945,0.12024 1.39,0.23138 2.0872,0.33342 0.086,0.0132 0.1734,0.0222 0.2596,0.0354 -0.8797,-0.0384 -1.7585,-0.095 -2.6373,-0.16266 z m 19.9935,6.95425 c -0.187,-0.35666 -0.5465,-0.61935 -1.0231,-0.54761 -6.019,0.90224 -11.684,1.39833 -17.3753,1.13159 -0.1107,-0.0424 -0.2315,-0.0455 -0.3486,-0.0162 -3.684,-0.19298 -7.3817,-0.70725 -11.1983,-1.65092 -1.9164,-2.0207 -3.7784,-4.10607 -5.5623,-6.2854 11.3598,4.88405 23.7637,5.76002 35.6974,3.31598 1.8974,-0.12427 3.7076,-0.4981 5.2546,-1.29931 0.3849,-0.11215 0.7716,-0.2142 1.1547,-0.33241 -2.2033,1.88936 -4.403,3.78478 -6.5991,5.68424 z m -4.3313,3.79691 c 0.07,-0.43648 0.095,-0.87194 0.067,-1.29528 0.65,-0.14246 1.2964,-0.29805 1.9346,-0.4789 -0.6718,0.58499 -1.3327,1.18514 -2.0018,1.77418 z m -1.1947,-1.03663 c 0.017,0.33039 0.034,0.66077 0.01,0.99318 -0.034,0.44557 -0.1235,0.87598 -0.2343,1.30134 -1.1992,1.06188 -2.4067,2.11567 -3.5987,3.18766 0.1616,-0.72746 0.3241,-1.4539 0.4857,-2.18135 0.2098,-0.93761 0.5348,-1.91361 0.6183,-2.88658 0.9133,-0.10811 1.8211,-0.24754 2.7208,-0.41425 z m -4.6727,2.89163 c -0.2333,1.32862 -0.4667,2.65723 -0.7,3.98484 -0.601,0.54458 -1.2074,1.08208 -1.8066,1.6297 -0.1116,-1.34074 -0.1915,-2.6835 -0.197,-4.02929 0,-1.25486 0.083,-2.49658 0.032,-3.74033 1.0232,-0.0162 2.0418,-0.0748 3.0558,-0.15761 -0.1752,0.75877 -0.2533,1.56402 -0.384,2.31269 z m -10.9214,1.74994 c -0.1979,-0.58601 -0.3522,-1.18717 -0.4403,-1.81056 -0.1253,-0.89315 0.052,-1.88229 -0.2424,-2.72189 0.7599,0.12023 1.5234,0.22228 2.2887,0.31018 -0.03,2.14498 0.5292,4.57084 0.936,6.38543 0,0.0202 0.016,0.0313 0.022,0.0515 -0.8607,-0.73049 -1.7177,-1.46602 -2.5638,-2.2147 z m -1.8929,-1.71457 c -1.4089,-1.28719 -2.8025,-2.59257 -4.1615,-3.93937 1.4552,0.37989 2.9378,0.70321 4.4348,0.96792 -0.4557,0.7911 -0.4675,1.87319 -0.2733,2.97145 z m -27.5476,-37.24565 c 1.517,-2.35716 5.4089,-0.26876 6.7888,1.29729 1.6196,1.83985 2.4394,4.34048 2.2578,6.8704 -2.1969,-0.90022 -4.3776,-1.86915 -6.5437,-2.89971 -0.8942,-1.72265 -1.7313,-3.48067 -2.5029,-5.26798 z m -1.3509,-35.02894 c 0.2669,0.23541 0.542,0.45971 0.8152,0.68704 -0.01,0.0233 -0.02,0.0415 -0.028,0.0657 -0.7698,2.3612 -1.4462,4.76988 -2.1888,7.1432 -0.4167,-0.15863 -0.8297,-0.32332 -1.2492,-0.4779 0.582,-2.60873 1.4562,-5.14068 2.6509,-7.41801 z m 3.3972,9.78628 c -1.2701,-0.51528 -2.5466,-1.02248 -3.8284,-1.51957 0.8715,-2.16014 1.7984,-4.30007 2.65,-6.46828 0.9677,0.72644 1.9664,1.41247 2.9968,2.05303 -0.7363,1.89543 -1.2819,3.9525 -1.8184,5.93482 z m 8.1206,3.20484 c -2.3186,-0.85375 -4.6082,-1.78328 -6.9023,-2.71482 0.7635,-1.78226 1.5878,-3.63121 2.1743,-5.49127 1.8738,1.05784 3.8274,1.99343 5.8447,2.80777 -0.1398,0.38798 -0.2615,0.78302 -0.3804,1.15382 -0.4167,1.29932 -0.6455,2.63602 -0.7617,4.00605 -0.01,0.0879 0.01,0.1657 0.025,0.23845 z m 6.9033,2.22378 c -1.9955,-0.52639 -3.9446,-1.15988 -5.872,-1.84692 0.1271,-0.0869 0.2279,-0.22127 0.2651,-0.41627 0.2279,-1.1912 0.5384,-2.36624 0.9941,-3.47561 0.1653,-0.40212 0.3958,-0.79616 0.6201,-1.19424 1.3481,0.49103 2.7135,0.94569 4.0989,1.34175 -0.2723,1.61556 -0.3813,3.3079 -0.5565,4.91335 -0.041,0.36878 0.1798,0.59712 0.4503,0.67794 z m 6.4375,1.42763 c -1.8928,-0.34958 -3.7793,-0.74463 -5.6531,-1.2104 -0.2234,-0.0566 -0.4422,-0.12528 -0.6646,-0.18388 0.3132,0.0384 0.6537,-0.11923 0.7372,-0.51427 0.3241,-1.52059 0.7217,-3.08158 0.9678,-4.64359 1.4452,0.37181 2.9014,0.70119 4.3622,0.98106 -0.2179,1.84086 -0.062,3.77468 0.2505,5.57108 z m 7.5851,1.10836 c -2.1607,-0.22935 -4.3141,-0.52942 -6.4584,-0.8982 -0.064,-1.89138 0.1752,-3.64334 0.4557,-5.44985 2.2478,0.37585 4.4938,0.65168 6.709,0.8386 -0.04,0.47991 -0.074,0.96084 -0.1416,1.41954 -0.1716,1.17403 -0.4195,2.33392 -0.6482,3.49481 -0.043,0.21521 -8e-4,0.41829 0.084,0.5951 z m -25.3071,-25.5983 c 6.7716,3.7191 14.9122,6.19144 22.4782,5.67818 0.066,0.0697 0.1353,0.13842 0.2007,0.20813 3.2673,3.51502 5.506,7.7292 8.0117,11.79992 -0.9088,-0.0384 -1.8157,-0.099 -2.7217,-0.16974 -0.2796,-0.32029 -0.7381,-0.32029 -1.1076,-0.096 -4.5837,-0.43041 -9.1302,-1.28315 -13.5977,-2.57539 -6.8815,-1.99039 -13.181,-5.42559 -19.8791,-7.94238 1.6868,-2.90477 3.8992,-5.33164 6.6155,-6.90273 z m 2.5719,-1.15484 c 0.044,0.20308 0.1371,0.39606 0.2851,0.55873 -0.3205,-0.10912 -0.6392,-0.21016 -0.9596,-0.32433 0.2206,-0.0869 0.4484,-0.15761 0.6745,-0.2344 z m 8.1715,-0.37181 c -0.085,0.0829 -0.1607,0.17883 -0.226,0.28189 -0.434,-0.20106 -0.8679,-0.38494 -1.3046,-0.55468 0.5147,0.0667 1.0249,0.15761 1.5306,0.27279 z m 20.8006,24.79609 c 0.054,0.9376 0.1098,1.87319 0.1788,2.80979 -1.6822,-0.0718 -3.3635,-0.1849 -5.0412,-0.33948 0.01,-0.0162 0.019,-0.0233 0.025,-0.0404 0.6055,-1.58121 1.2964,-3.5615 1.5061,-5.45288 1.1039,0.0656 2.2006,0.11922 3.2791,0.14549 -0.1443,0.93357 -0.001,1.94089 0.052,2.87749 z m 1.8375,0 c 0.035,-0.62642 0.1107,-1.27709 0.1162,-1.91664 0.5955,0.0808 1.2709,-0.3314 1.527,-0.93862 0.4748,-0.007 0.9487,-0.0303 1.4235,-0.0455 0.1652,0.99318 0.4448,1.94998 0.5583,2.96034 0.1071,0.94973 0.088,1.88532 0.097,2.83505 -0.3722,0.004 -0.7426,0.0182 -1.1149,0.0172 -0.9305,-8e-4 -1.861,-0.0172 -2.7916,-0.0424 0.073,-0.95579 0.1298,-1.9126 0.1843,-2.8694 z m 4.7779,-2.96842 c 1.2728,-0.0677 2.5447,-0.17176 3.8148,-0.29401 0,0.008 -7e-4,0.0152 0,0.0242 0.1707,1.94189 0.3586,3.94542 0.6464,5.89844 -1.4144,0.10002 -2.8325,0.17883 -4.256,0.21419 0.3069,-1.83581 0.2887,-4.04949 -0.2052,-5.84287 z m 11.5705,2.36827 c 0.1081,0.81434 0.2016,1.63475 0.3142,2.4501 -1.922,0.28593 -3.852,0.52135 -5.7921,0.69108 -0.044,-1.92876 -0.1925,-3.88379 -0.3495,-5.77921 -0.01,-0.0798 -0.021,-0.15459 -0.039,-0.22531 1.9664,-0.22935 3.9273,-0.52741 5.8819,-0.8679 -0.067,0.0839 -0.1271,0.17783 -0.167,0.29301 -0.3741,1.08613 0,2.31471 0.1516,3.43823 z m 5.7885,1.48623 c -1.3155,0.26976 -2.6346,0.51427 -3.9592,0.7325 -0.038,-0.82546 -0.095,-1.65091 -0.1379,-2.47334 -0.06,-1.14675 0.073,-2.38848 -0.4994,-3.37963 -0.066,-0.11518 -0.1479,-0.19399 -0.2342,-0.25764 1.212,-0.22127 2.4203,-0.46578 3.626,-0.72443 0.034,0.8386 0.2759,1.68123 0.4384,2.5077 0.237,1.20333 0.4939,2.4006 0.7663,3.59484 z m 5.4334,-1.28719 c -1.3844,0.35968 -2.7734,0.70118 -4.1688,1.00429 -0.108,-1.1316 -0.2306,-2.26016 -0.3668,-3.38974 -0.1089,-0.90426 -0.1289,-1.92674 -0.3958,-2.81383 0.3858,-0.0889 0.7735,-0.16873 1.1593,-0.26067 0.788,-0.18793 1.5833,-0.38191 2.3786,-0.57691 -0.06,0.89719 0.2396,1.76003 0.4503,2.64914 0.2723,1.14675 0.5737,2.27633 0.9432,3.38772 z m 5.635,-1.6297 c -1.5016,0.47284 -3.0086,0.92144 -4.5238,1.33164 -0.074,-1.1225 -0.207,-2.23389 -0.374,-3.34427 -0.1462,-0.976 -0.197,-1.93482 -0.6064,-2.77342 1.2809,-0.32129 2.5673,-0.65976 3.8528,-1.00934 0.4404,1.95504 1.0568,3.88683 1.6514,5.79539 z m -0.077,-6.23186 c 1.5497,-0.4395 3.094,-0.91134 4.6264,-1.41551 -0.067,0.84062 0.3459,1.48825 0.5547,2.31068 0.2487,0.97499 0.3577,1.96211 0.3531,2.97347 -7e-4,0.17782 0.064,0.32331 0.1625,0.43445 -1.4679,0.54256 -2.9414,1.0639 -4.423,1.54786 -0.3758,-1.95503 -0.7462,-3.94239 -1.2737,-5.85095 z m -20.599,-7.9343 c 8.0617,-0.49609 16.6726,-2.39656 24.0334,-5.8257 0.2397,-0.11114 0.3795,-0.30209 0.4485,-0.51124 3.3299,1.67618 6.403,4.4112 8.7906,7.28667 -6.8987,1.68931 -13.5968,4.46879 -20.4919,6.23994 -7.4488,1.9126 -15.0312,3.22707 -22.6798,3.4544 2.7962,-3.69082 6.1607,-7.46449 9.8992,-10.64407 z m 27.3488,8.71934 c -0.1261,-0.90527 -0.2451,-1.99544 -0.8688,-2.62186 1.2919,-0.44557 2.5701,-0.92144 3.833,-1.42763 0.3114,0.86183 0.788,1.68527 1.0985,2.52891 0.3222,0.87497 0.571,1.77216 0.8079,2.67542 -1.6159,0.68704 -3.2401,1.33973 -4.8724,1.96008 0.1181,-1.04167 0.1471,-2.07021 0,-3.11492 z m 7.3164,-5.9732 c 1.0821,1.51047 1.921,3.15331 2.5519,4.87596 -1.2464,0.59611 -2.5002,1.1609 -3.7594,1.71154 -0.1252,-0.96287 -0.3213,-1.91664 -0.5937,-2.83808 -0.2378,-0.80829 -0.5111,-1.72973 -0.9224,-2.50669 0.9179,-0.39606 1.8303,-0.80424 2.7236,-1.24273 z m 3.1547,-1.09422 c -5.4307,-8.39906 -14.9885,-14.90978 -24.4328,-12.42027 -10.2242,2.69462 -19.6322,10.47231 -25.5186,20.13331 -7.6886,-16.44047 -27.6521,-31.76449 -41.3615,-14.3753 -14.4774,18.36518 -1.9283,44.76066 9.3236,60.80709 7.2755,10.37429 16.4265,19.42807 26.9884,25.44371 0.9197,0.52336 1.6142,-0.86183 0.798,-1.51957 -0.9514,-0.76787 -1.8938,-1.54584 -2.8279,-2.33291 0.3368,0.003 0.6972,-0.31624 0.6209,-0.80626 -0.2324,-1.50037 -0.3758,-3.00277 -0.433,-4.52436 -0.017,-0.45062 -0.01,-0.9073 0,-1.36398 1.1176,0.095 2.2378,0.14448 3.3572,0.1657 -0.4712,2.84718 0.014,6.14194 0.5502,8.92445 -0.1108,0.10103 -0.2225,0.20005 -0.3323,0.30108 -1.2292,1.13564 0.4158,3.54937 1.7231,2.48547 10.4556,-8.50818 20.5563,-17.62156 30.7732,-26.48336 8.2097,-7.12097 17.0684,-14.638 21.6467,-25.36896 3.8965,-9.13056 4.6436,-20.53138 -0.8752,-29.06584" />
    <path
       inkscape:connector-curvature="0"
       id="path3499"
       style="fill:#2f3031;fill-opacity:1;fill-rule:nonzero;stroke:none"
       d="m 683.43355,862.64509 c 0.1,1.2589 0.1208,2.52993 0.095,3.80701 -0.433,-0.31321 -1.0358,-0.33341 -1.4471,0.25562 -8.2468,11.81406 -20.91491,18.07825 -33.74731,21.25278 -12.3558,3.05632 -26.106,5.64787 -38.7741,4.56174 -0.029,-0.003 -0.054,0.008 -0.081,0.0101 -0.7363,-1.03562 -1.4607,-2.0884 -2.1652,-3.16948 -3.0849,-4.73957 -7.389,-11.30181 -4.9024,-17.41748 2.3132,-5.6893 8.5828,-8.03635 13.7847,-8.21922 12.3159,-0.43142 20.4829,9.18916 28.3557,18.20353 1.468,1.68022 3.8465,-0.29603 2.6064,-2.28239 -0.2369,-0.37989 -0.4939,-0.75271 -0.7435,-1.12856 0.4748,-10.79865 4.7035,-20.86379 12.738,-27.32096 4.837,-3.88784 11.51961,-6.74815 17.04481,-2.91487 4.4248,3.06946 6.7916,8.73754 7.2355,14.36217 z m -1.5106,15.3604 c -8.6563,8.28287 -18.06251,14.98152 -28.92041,19.21793 -11.2945,4.40716 -23.1219,5.8853 -35.0337,5.58725 -2.5447,-2.67542 -4.9659,-5.53168 -7.2437,-8.59002 5.9854,1.66506 12.1515,0.73856 18.2413,-0.0718 7.3282,-0.97398 14.6645,-2.01767 21.8428,-3.97675 12.6281,-3.44631 24.53631,-9.7984 32.61441,-21.42352 -0.2234,3.07854 -0.7581,6.18336 -1.5007,9.25685 z m -6.827,19.21186 c -4.8143,11.01993 -11.25091,20.95069 -18.70351,29.93677 -0.2514,0.30411 -0.3531,0.64965 -0.3522,0.99418 -13.4615,-5.63069 -25.8881,-13.15378 -36.3392,-23.5776 21.1655,2.85728 44.3264,-5.51854 60.63591,-20.93653 -1.5198,4.76987 -3.4017,9.37304 -5.241,13.58318 z m -61.01541,34.61268 c -0.4476,-0.0344 -0.8625,-0.10912 -1.2628,-0.20207 2.8415,-2.1662 4.0517,-6.46727 3.5687,-10.47534 -0.6455,-5.36902 -3.527,-10.27832 -7.4961,-13.3407 0.5157,-0.16469 0.9896,-0.40718 1.429,-0.70826 0.8552,2.46526 2.3386,4.35664 4.4747,5.56704 0.473,0.26876 0.9142,-0.58499 0.4612,-0.90527 -1.8175,-1.28517 -3.3209,-3.03207 -4.275,-5.18614 0.3286,-0.29402 0.6273,-0.63046 0.9124,-0.98308 0.6373,1.2488 1.6486,2.21065 2.8597,2.80474 0.8189,0.40111 1.3608,-1.07501 0.5247,-1.42965 -1.1321,-0.4789 -2.0036,-1.34074 -2.6028,-2.47031 0.2388,-0.37888 0.4658,-0.76686 0.6718,-1.16696 2.9233,3.31901 6.0399,6.4309 9.3218,9.29525 1.9392,1.69234 3.9455,3.3079 6.0072,4.83959 -0.7526,7.905 -6.9668,14.9411 -14.5945,14.36116 z m -3.1639,-0.93458 c -5.8783,-3.40388 -4.8397,-15.03102 -4.3367,-21.81049 5.447,4.96185 12.0979,16.76883 4.3367,21.81049 z m -21.2799,-35.87258 c -2.4956,-2.38646 -3.7811,-5.50239 -2.6082,-8.27176 7.0776,2.64712 12.5346,7.02599 16.2822,14.37227 -5.0703,-0.96085 -9.5632,-2.17024 -13.674,-6.10051 z m 19.3444,9.81861 c -1.1666,0.54862 -2.6291,0.32129 -2.7916,-1.3074 -0.2524,-2.52083 1.7794,-3.5423 3.6332,-4.42939 0.7299,0.92549 1.4707,1.84188 2.2306,2.73907 0,0.004 -0.01,0.004 -0.013,0.009 -0.9351,1.04471 -1.8039,2.39858 -3.0595,2.98863 z m -19.7665,-20.82439 c 2.7689,-2.17024 6.3658,-2.79261 9.6431,-3.17352 0.028,-0.003 0.053,-0.0132 0.08,-0.0192 0.02,0.0677 0.034,0.13336 0.054,0.20004 1.7494,5.8257 5.5052,11.1048 9.073,15.809 -0.3286,0.16065 -0.6509,0.34655 -0.9641,0.54963 -0.022,-0.11922 -0.044,-0.23238 -0.081,-0.31422 -0.1507,-0.34756 -0.5193,-0.66885 -0.7553,-0.94468 -0.503,-0.58398 -1.0023,-1.14372 -1.5706,-1.6499 -0.5166,-0.45871 -1.2574,0.3617 -0.818,0.93053 0.4739,0.61429 0.9932,1.15281 1.5352,1.69032 0.2578,0.25663 0.5574,0.64764 0.8752,0.80929 0.02,0.0101 0.051,0.0151 0.075,0.0233 -0.6945,0.55267 -1.321,1.19525 -1.8048,1.92574 -2.8153,-7.35841 -8.8851,-13.4478 -15.9291,-15.32403 0.1843,-0.17277 0.374,-0.34554 0.5874,-0.51225 z m 95.36371,-31.04613 c -2.2532,-4.76179 -6.1052,-8.82139 -10.9032,-10.08433 -5.6704,-1.49128 -11.62951,1.33164 -16.22321,4.8992 -7.9527,6.17831 -13.1855,16.92442 -13.152,27.76854 -6.8424,-8.83553 -16.8941,-15.71705 -27.3751,-15.74635 -9.6495,-0.0273 -20.1624,7.07449 -18.5401,18.4541 -6.5492,0.15357 -17.7629,4.60317 -14.0743,14.053 2.5365,6.4996 12.7462,13.14874 19.1882,10.35915 -0.095,0.90225 0.021,1.854 0.424,2.83 0.3114,0.75473 0.7953,1.33569 1.3699,1.75801 -0.022,0.14145 -0.019,0.28492 0.01,0.42536 -2.6209,9.17401 -3.5188,26.50055 8.3903,27.43311 7.2982,0.57186 17.812,-6.72996 17.6595,-15.74231 7.5242,5.18008 15.7475,9.14774 24.3901,11.13813 0.5611,0.12933 0.9596,-0.26976 1.1085,-0.77292 0.5547,0.43849 1.2873,0.54357 1.8466,-0.0849 9.25641,-10.38946 16.61721,-22.70364 21.78921,-36.15346 4.5746,-11.89893 9.9836,-28.08782 4.0944,-40.53436" />
    <path
       inkscape:connector-curvature="0"
       id="path3505"
       style="fill:#f04952;fill-opacity:1;fill-rule:nonzero;stroke:none"
       d="m 137.80124,295.32317 c -0.3668,0.6197 0.3023,1.6529 0.8842,1.049 6.3595,-6.60784 15.545,-6.31194 20.2604,2.3033 -1.7367,1.8392 -3.6314,3.5244 -5.6314,5.0731 -0.3259,-2.3865 -3.0903,-4.1341 -5.0594,-4.3292 -2.2533,-0.2234 -4.4021,1.0721 -5.6295,3.133 -2.473,-4.586 -6.4149,-8.18394 -10.8388,-10.58744 0.1897,-0.2466 0.3132,-0.5802 0.3087,-1.0001 -0.034,-3.9842 -1.0559,-7.8283 -2.788,-11.3708 0.1806,-0.022 0.354,-0.083 0.4911,-0.221 0.079,-0.079 0.158,-0.1587 0.237,-0.2376 0.443,-0.4445 0.5556,-1.0092 0.2787,-1.5946 0.1425,-0.015 0.3731,-0.1432 0.7934,-0.4928 0.5765,-0.4788 1.1285,-1.5246 1.5316,-2.2145 0.886,-1.5218 1.5542,-3.1759 1.9836,-4.9254 0.7054,-2.8685 0.7889,-5.9087 0.1,-8.7933 -0.7081,-2.9624 -2.1834,-5.6883 -4.1725,-7.8011 -1.0503,-1.1164 -2.2687,-2.1015 -3.5705,-2.8348 -0.2588,-0.1466 -0.5606,-0.3154 -0.8706,-0.476 2.4284,-0.6729 4.8987,-1.1145 7.3816,-1.3105 11.911,11.8533 13.2873,30.3601 2.4685,44.1896 -1.0105,1.2926 0.7571,2.75454 1.8084,1.636 3.4126,-3.6289 5.7267,-8.0697 7.0058,-12.8153 7.9119,-4.1393 16.0317,-1.2973 20.4066,7.2603 0.071,0.1385 0.1589,0.2435 0.256,0.3257 -1.2764,2.6975 -2.8751,5.1524 -4.7226,7.38544 -5.004,-8.96574 -17.2173,-10.96644 -22.9122,-1.351 z m 7.171,13.9422 c -0.3558,-2.0077 -0.9768,-3.8911 -1.8057,-5.6418 0.094,-0.032 0.1889,-0.087 0.2733,-0.1963 1.2174,-1.5577 3.0504,-2.3763 4.8869,-1.8652 1.8039,0.5033 2.3813,1.9785 3.5424,3.2695 -2.2224,1.6178 -4.5474,3.0868 -6.8969,4.4338 z m -6.9886,3.6838 c -0.827,0.4061 -1.6568,0.8011 -2.4902,1.1879 -3.349,-12.7568 -19.5202,-15.597 -27.7135,-7.3401 -1.6136,-1.2673 -3.2811,-2.3158 -4.8687,-3.0492 -0.482,-0.2226 -0.9788,-0.4163 -1.4813,-0.5994 4.1842,-9.75194 13.7123,-13.10834 22.8494,-10.87514 8.7057,2.1287 15.4783,8.38474 18.2763,17.81344 0.048,0.1605 0.1198,0.2931 0.2051,0.4081 -1.6014,0.8658 -3.2019,1.6812 -4.7771,2.4544 z m -10.7098,4.6957 c -1.5679,-2.9509 -4.4716,-5.0635 -7.4402,-5.7843 -1.6451,-0.399 -5.1346,-0.5474 -6.0077,1.4145 -1.3377,-2.0285 -3.0076,-3.8685 -4.7945,-5.4405 3.9739,-2.6975 8.5234,-4.1262 13.1839,-2.9351 5.4924,1.4042 8.3131,5.3307 11.2963,10.1359 -2.0617,0.9203 -4.1407,1.7941 -6.2378,2.6095 z m -10.3998,3.5797 c -0.2413,-2.3103 -1.0654,-4.5577 -2.252,-6.649 0.5682,-2.1166 6.1407,0.089 6.9955,0.592 1.4451,0.8516 2.483,1.9927 3.4206,3.3262 -2.6973,0.9962 -5.4201,1.9074 -8.1641,2.7308 z m -11.9188,3.0102 c -1.0348,-5.2195 -4.0282,-9.7511 -8.301397,-12.3245 -3.9183,-2.3592 -9.1441,-3.0925 -12.3783,0.7468 -1.2015,-2.1391 -2.648,-4.0971 -4.2732,-5.8431 7.0897,-1.761 14.1404,-3.4735 21.221597,-0.4171 3.4335,1.482 6.4875,3.9605 8.8664,7.0834 1.9621,2.5776 2.9356,5.5732 4.2994,8.4618 -3.1224,0.8738 -6.2676,1.6457 -9.4345,2.2927 z m -7.897197,1.371 c -0.2333,-1.8802 -1.6497,-3.8807 -2.7841,-4.8833 -2.026,-1.7894 -4.769,-2.3885 -7.1667,-1.2546 -0.5071,-1.7934 -1.1753,-3.5192 -1.9742,-5.1619 6.7042,-6.5535 15.129797,3.335 17.264697,10.4386 -1.7756,0.3245 -3.556197,0.6094 -5.339697,0.8612 z m -8.8071,0.9677 c -0.075,-1.8367 -0.3245,-3.636 -0.7132,-5.3872 0.013,0 0.025,8e-4 0.039,0 1.9778,-0.6074 3.9871,0.1152 5.4695,1.6477 0.6659,0.6884 1.211,1.5551 1.51,2.5149 0.062,0.2001 0.1046,0.3911 0.1407,0.577 -2.1452,0.2648 -4.2939,0.4869 -6.4461,0.6516 z m -11.6733,0.4113 c 0.5543,-9.5096 -8.2099,-20.3619 -16.7656,-16.9752 -0.088,-3.0531 -0.2168,-6.1074 -0.3557,-9.1606 2.1447,-0.5111 6.1506,0.5861 7.5407,0.9748 3.5655,0.9962 6.9365,2.8089 9.7852,5.3995 5.4443,4.9508 8.1998,11.9474 8.9054,19.5251 -3.0338,0.176 -6.0715,0.2585 -9.11,0.2364 z m -8.5447,-0.3142 c 0.9759,-2.9099 -0.3745,-6.233 -2.8509,-7.8555 -0.9958,-0.6528 -3.4498,-1.4741 -5.2275,-1.2306 -0.011,-1.8458 -0.045,-3.6928 -0.089,-5.5406 3.4864,-0.01 6.8216,0.2604 9.7636,2.9228 3.3704,3.0492 4.668,7.342 4.569,11.9676 -2.0557,-0.048 -4.1115,-0.1263 -6.1652,-0.2637 z m 14.8659,-23.1059 c -1.3813,0.5193 -2.7061,1.1386 -3.9381,1.8601 -0.069,0.04 -0.1248,0.097 -0.1773,0.1578 -1.8252,-1.7428 -3.8523,-3.211 -6.0166,-4.3587 1.8842,-1.5894 4.0559,-2.4896 6.4212,-1.6177 1.9924,0.7345 2.6151,2.428 3.7108,3.9585 z m -3.1792,-6.6048 c -2.9852,-0.8738 -6.4265,0.4488 -8.1082,3.3618 -0.051,0.089 -0.081,0.1847 -0.098,0.2818 -1.8909,-0.8698 -3.875,-1.4922 -5.9177,-1.8257 3.2073,-4.90334 6.7876,-9.13274 12.7028,-9.08934 6.3751,0.047 10.8009,5.37504 12.4179,11.82634 0.028,0.1101 0.067,0.2071 0.1129,0.296 -1.9037,0.1508 -3.7988,0.489 -5.6244,1.0025 -0.2437,-2.8049 -3.2598,-5.2013 -5.4858,-5.8534 z m -20.7155,-5.32454 c 0.3223,-1.3031 0.6911,-2.4883 0.9482,-3.2955 0.8161,-2.5626 2.0303,-5.0517 3.6768,-7.0704 4.5836,-5.6205 10.7417,-6.2532 16.9402,-3.9333 5.174,1.9358 10.1679,4.8939 13.422,9.9125 2.9703,4.5809 3.9232,9.70924 4.7598,15.10474 -1.8501,-0.4222 -3.7776,-0.6315 -5.7233,-0.6295 0.1336,-0.2356 0.2013,-0.5225 0.1535,-0.8548 -1.1246,-7.80114 -7.4933,-14.07314 -14.6448,-14.18244 -6.0037,-0.091 -13.1013,4.6157 -14.0095,11.64434 -0.015,0.1145 0.01,0.2183 0.042,0.3153 -1.7093,-0.1957 -3.4526,-0.2008 -5.2145,0.035 -0.1127,-2.3499 -0.2322,-4.69824 -0.3507,-7.04534 z m 3.353,-20.503 c -1.4639,-0.5265 -3.0023,-0.2494 -4.2534,0.5963 -0.1132,-3.1553 -0.1852,-6.3126 -0.1894,-9.4669 5.8007,-1.7279 11.4612,5.791 13.9479,10.7236 0.01,0.015 0.017,0.025 0.025,0.04 -2.1406,0.3478 -4.1704,1.1722 -6.0038,2.3925 -0.3192,-1.956 -1.8654,-3.6866 -3.5261,-4.2849 z m -3.8098,11.022 c -0.1188,-2.6756 -0.244,-5.3589 -0.3529,-8.0454 1.0498,-0.8718 2.4605,-1.2113 3.6967,-0.5901 1.2621,0.6347 1.7621,1.9379 2.1909,3.2817 -1.5089,1.3234 -2.8392,2.9399 -3.9286,4.7981 -0.4731,0.8062 -0.9912,1.8663 -1.4855,3.0724 -0.039,-0.8374 -0.084,-1.6793 -0.1206,-2.5167 z m -0.6234,-21.9974 c 0.035,-3.5007 0.189,-6.9955 0.4848,-10.4793 2.6969,-1.7378 7.7688,0.1616 10.2239,1.1991 3.027,1.2803 5.8176,3.2868 8.1457,5.7874 4.8318,5.1903 7.1309,11.9746 8.3784,19.1383 -2.9334,-1.5127 -6.0917,-2.5109 -9.3255,-2.8736 -0.6944,-0.077 -1.3806,-0.09 -2.0611,-0.07 0.1727,-0.298 0.234,-0.6666 0.083,-1.0538 -2.3998,-6.1652 -9.4938,-13.7182 -15.9295,-11.6482 z m 0.7482,-13.2376 c 0.1224,-1.1084 0.2497,-2.2167 0.41,-3.322 0.1893,-1.3074 0.4138,-2.629 0.6713,-3.9536 1.5696,0.2395 3.0158,1.2094 3.7268,2.8553 0.6046,1.3993 0.2893,2.6208 0.2692,3.9737 -1.8856,-0.3062 -3.6665,-0.2465 -5.0773,0.4466 z m 3.7704,-17.2932 c 1.9065,0.1111 4.0396,1.4428 5.3418,2.5794 1.5292,1.3347 2.3479,2.925 3.1626,4.6941 -1.9019,1.855 -3.5389,4.0798 -4.9861,6.5026 -0.1695,-0.9163 -0.4926,-1.7944 -0.9058,-2.4884 -1.1291,-1.8965 -2.9894,-2.922 -4.9523,-2.9695 0.6082,-2.8007 1.3827,-5.6004 2.3398,-8.3182 z m 4.4701,-9.567 c 2.6331,0.6355 5.1279,1.6387 7.2873,3.5897 2.6426,2.3875 3.4944,5.3711 5.2041,8.4345 -0.1096,0.027 -0.2216,0.041 -0.3312,0.07 -2.3214,0.6092 -4.3602,1.6731 -6.1787,3.0603 -1.3054,-3.3483 -4.4002,-6.0429 -7.3603,-7.0896 -0.6159,-0.2182 -1.4582,-0.5042 -2.2947,-0.6244 1.0329,-2.6077 2.2501,-5.1144 3.6735,-7.4412 z m 8.893,-9.7206 c 6.5287,-4.5335 13.9624,-4.1193 20.4992,-0.8669 6.249997,7.4392 8.078097,17.0264 6.571997,27.1997 -1.7788,-1.2134 -3.668597,-2.2299 -5.633597,-3.028 -0.2047,-0.084 -0.4171,-0.1486 -0.6242,-0.2274 0.021,-0.057 0.043,-0.1101 0.058,-0.1727 4.011097,-16.7123 -15.3231,-29.2952 -25.7722,-15.8131 -0.5103,0.6588 0.3423,1.7206 0.9596,1.1387 4.4889,-4.2374 10.9992,-5.8469 16.3405,-2.4875 5.2932,3.3291 7.3639,10.1793 6.1716,16.5748 -2.003,-0.5951 -4.0615,-1.0093 -6.1389,-1.1932 2.004,-6.7461 -5.5329,-12.8355 -10.6094,-8.2243 -0.021,0.018 -0.031,0.043 -0.048,0.065 -2.5653,-2.7785 -6.1999,-4.6365 -9.5979,-4.8891 2.1597,-3.1664 4.7424,-5.9358 7.8234,-8.0757 z m 29.614197,6.1015 c 2.7395,2.9926 5.0194,6.5683 6.6897,10.451 -2.1118,-0.1 -4.34,0.8134 -5.9485,2.3339 -0.1032,-6.1085 -2.1594,-12.2333 -5.5311,-17.1022 1.7167,1.265 3.327,2.7199 4.7899,4.3173 z m 9.5924,21.4942 c -1.1015,-0.4284 -2.5871,-0.2192 -3.4992,0.1556 -1.4082,0.579 -2.6076,1.8227 -3.1193,3.3928 -1.1163,-1.2286 -2.3143,-2.3632 -3.5888,-3.3857 0.013,-0.029 0.028,-0.056 0.039,-0.088 0.7067,-2.0803 1.1125,-4.2435 1.2606,-6.4289 1.1132,-1.1407 2.4846,-1.8944 4.012,-2.1167 1.1947,-0.1738 2.1717,0.072 3.1558,0.4789 0.8642,2.5896 1.4628,5.2761 1.7395,7.9919 z m 0.168,2.5562 c 0.086,3.219 -0.2748,6.444 -1.1862,9.5559 -0.4926,-1.0588 -1.0124,-2.0591 -1.5331,-2.9714 -0.8911,-1.564 -1.91,-3.024 -3.0246,-4.384 0.043,-0.039 0.088,-0.074 0.1227,-0.1282 0.7015,-1.1013 1.51,-1.8833 2.7151,-2.2178 0.4999,-0.1384 1.0574,-0.2001 1.5692,-0.1354 0.4724,0.06 0.8841,0.2476 1.3369,0.2809 z m -36.632897,-16.0363 c 4.4912,-2.0945 8.3975,1.2922 7.7847,6.7026 -0.01,0.069 -0.01,0.1354 0,0.2011 -1.7912,-0.04 -3.5817,0.073 -5.341,0.389 0,-0.018 0.01,-0.032 0.01,-0.049 0.08,-2.6683 -0.8848,-5.1558 -2.4483,-7.2432 z m 34.067197,29.3254 c -0.5026,1.1094 0.023,2.0431 0.8078,2.4371 0,0.011 0.01,0.021 0.01,0.031 0.7103,2.7138 0.7114,5.5005 1.2376,8.2123 -3.3289,-1.8451 -6.8844,-3.1262 -10.4331,-3.6807 0.033,-7.2188 -5.924697,-13.9702 -11.789997,-16.0677 -6.2556,-2.2369 -13.552,-0.082 -17.8345,5.4903 -0.2028,0.2635 -0.2067,0.5801 -0.1007,0.8468 -2.0799,-1.4166 -5.4109,-3.1908 -8.7015,-4.1213 2.1178,-2.9401 4.1115,-5.7732 6.5134,-8.0141 0.5717,0.1414 1.199,-0.2163 1.1838,-1.0337 1.7855,-1.4286 3.8155,-2.5248 6.2773,-3.1189 5.7786,-1.3933 12.1665,-0.5244 17.6094,1.9833 5.133097,2.3642 9.587297,6.246 12.663697,11.4201 1.0358,1.7418 1.8972,3.6089 2.5844,5.553 -0.01,0.021 -0.017,0.042 -0.027,0.062 z m 4.0169,4.4203 c 2.4178,-0.4658 4.9282,0.7526 5.6687,3.5402 0.7376,2.7776 -1.2569,4.4041 -1.7902,6.7602 -1.3021,-1.0952 -2.6685,-2.1082 -4.0952,-3.0066 0.029,-0.054 0.063,-0.1042 0.081,-0.1697 0.6,-2.2239 0.5585,-4.6729 0.1358,-7.1241 z m -33.389597,1.3348 c 2.8636,-3.1535 7.1205,-1.3329 7.9192,2.8277 0.01,0.044 0.023,0.083 0.034,0.1243 -2.0094,0.9804 -3.8924,2.3353 -5.5865,4.1062 -0.8231,-2.4016 -1.8877,-4.7013 -3.1686,-6.833 0.2585,0.086 0.5582,0.042 0.8015,-0.2252 z m -1.3508,-0.6568 c -1.7689,-2.7453 -3.9119,-5.1761 -6.3957,-7.1198 -0.065,-0.052 -0.1465,-0.1081 -0.2159,-0.1607 0.1269,-0.011 0.2549,-0.048 0.3769,-0.1578 4.6818,-4.1676 10.5938,-6.3065 16.4668,-3.8736 5.6176,2.3268 7.8726,7.2342 9.781697,12.9648 -3.052697,-0.199 -6.061697,0.1507 -8.871397,1.1773 -0.7213,-5.9655 -7.5752,-7.8192 -10.9757,-3.2455 -0.1032,0.1394 -0.1469,0.2787 -0.1667,0.4153 z m 19.560897,27.152 c -1.534097,0.1943 -2.868597,1.0874 -3.554497,2.4462 -1.4309,-2.7216 -3.2764,-5.1749 -5.4095,-7.2997 0.1249,-0.1303 0.2114,-0.3083 0.2036,-0.5013 -0.105,-2.636 5.8287,-3.7545 7.349997,-3.8594 2.5374,-0.1737 5.1819,0.29 7.5965,1.1619 1.9224,0.6929 3.8725,1.6844 5.4467,3.1087 2.1455,1.943 2.7689,4.2104 3.7552,6.9209 0.1301,0.3588 0.3621,0.553 0.6167,0.6268 -2.9594,0.2249 -5.8762,1.0162 -8.4604,2.4256 -0.029,-0.063 -0.065,-0.1243 -0.1085,-0.1839 -1.787,-2.4158 -4.3676,-5.2346 -7.4358,-4.8458 z m -0.2972,13.82694 c -0.2369,-3.3807 -1.0749,-6.58234 -2.368597,-9.52664 0.521,-1.7499 2.623197,-2.3936 4.120497,-1.8561 1.7494,0.6275 3.0001,2.3068 4.2317,3.7513 -2.5742,1.8342 -4.6885,4.36514 -5.9836,7.63144 z m 17.514,-12.05964 c 1.8356,-7.8747 -8.8962,-12.5658 -14.1305,-13.4183 -3.2866,-0.5355 -6.920897,-0.3425 -9.888797,1.4769 -1.4263,0.875 -3.4501,2.3968 -3.2579,4.2829 -1.2228,-1.1023 -2.52,-2.1106 -3.8932,-2.9876 0.067,-0.1777 0.1036,-0.3829 0.089,-0.6224 -0.1592,-2.6561 -0.6188,-5.3051 -1.3369,-7.8725 0.01,-0.01 0.016,-0.01 0.023,-0.014 7.7472,-6.9166 18.490997,-5.9619 27.000197,-1.2507 8.6934,4.8134 14.4585,12.9112 16.2652,23.4694 -1.9764,-0.8686 -4.0124,-1.5083 -6.0267,-1.8971 -1.7842,-0.3458 -3.6268,-0.47 -5.4599,-0.379 0.2834,-0.1294 0.526,-0.4001 0.6164,-0.7881 z m 4.2544,-36.7645 c 1.1888,0.8796 3.0182,1.373 3.9658,2.1146 2.6926,2.1075 4.7053,5.1891 5.4788,8.7605 0.768,3.5424 0.3032,7.3515 -1.29,10.5472 -0.7536,1.5107 -2.5184,2.9189 -3.1766,4.5808 -1.654,-2.7046 -3.718,-5.1899 -6.0678,-7.3665 2.4233,-2.3368 3.4056,-6.6994 1.854,-9.8719 -1.438,-2.9402 -4.5796,-3.988 -7.296,-2.812 -0.1398,-0.6275 -0.2944,-1.2538 -0.4763,-1.8731 0.161,-0.3619 0.3131,-0.7254 0.4635,-1.09 2.12,-1.1813 4.3105,-2.1754 6.5446,-2.9896 z m 32.4167,26.5995 c -3.3427,-0.6354 -6.8787,-0.075 -10.0634,1.9197 0.5174,-2.5828 0.7262,-5.2298 0.6591,-7.8678 4.3613,-2.4674 8.8451,0.6911 9.4043,5.9481 z m -9.4988,-7.7738 c -0.2233,-2.932 -0.8061,-5.8257 -1.7303,-8.5798 1.7449,-2.6178 5.8964,-2.4642 8.4012,-1.7996 2.857,0.7577 5.4571,2.6087 7.2691,5.1773 3.3681,4.7715 3.6514,10.7882 2.6673,16.4999 -1.4898,-1.2993 -3.1593,-2.2927 -4.9287,-2.9293 0.3268,-7.1359 -6.3867,-11.5562 -11.6786,-8.3685 z m 3.3636,-18.8593 c 12.2623,4.8327 22.1188,16.794 18.4747,31.9615 -0.2996,1.2468 -0.67,2.4441 -1.094,3.6017 -0.6727,-1.3607 -1.4934,-2.5713 -2.4121,-3.6491 0.078,-0.101 0.1416,-0.2245 0.1815,-0.3768 2.0609,-7.8788 0.6328,-17.4034 -5.6558,-22.4512 -3.2528,-2.6108 -12.4602,-5.4528 -15.2346,-0.5817 -1.6668,-4.1729 -4.1634,-7.9475 -7.4579,-10.9231 4.433,-0.045 8.8823,0.7183 13.1982,2.4187 z m 22.3802,30.3288 c 2.4675,-15.147 -6.8388,-27.411 -18.9086,-32.9809 -11.0775,-5.1113 -24.6743,-4.8305 -35.0607,2.0692 5.8339,-21.1881 -10.7722,-47.2128 -30.938797,-47.4189 -12.267,-0.1253 -21.4617,10.6249 -26.3215,22.2298 -5.4361,12.979 -6.1432,27.6573 -5.8567,41.7557 0.1873,9.1985 0.7465,18.3956 1.2274,27.5799 0.5366,10.24994 0.8447,20.65264 2.0888,30.83204 0.1517,1.2444 2.0397,1.4377 2.0767,0.058 0.053,-1.9864 0.074,-3.9767 0.076,-5.9691 1.4113,-0.2052 4.1147,1.2729 4.6477,1.745 1.4408,1.2771 2.0692,3.4702 1.0299,5.277 -1.6264,-0.1365 -3.2517,-0.2932 -4.8741,-0.485 -1.9954,-0.2364 -2.4947,3.1704 -0.4794,3.4482 28.4166,3.9163 57.768797,-1.4042 83.558697,-15.2997 12.4412,-6.7039 25.1029,-16.685 27.7347,-32.84164" />
    <path
       inkscape:connector-curvature="0"
       id="path3589"
       style="fill:#2f3031;fill-opacity:1;fill-rule:nonzero;stroke:none"
       d="m 156.73436,740.9445 c -8.4774,14.48442 -23.9144,19.48162 -38.6224,21.10728 -17.5659,1.94089 -34.938499,-0.46981 -51.955099,-5.37609 -0.6047,-10.64103 7.2645,-18.90673 17.3571,-18.78448 10.9005,0.13135 19.096499,10.1692 23.518599,20.32022 0.6854,1.57413 2.8407,1.06794 3.2328,-0.46981 3.3327,-13.0861 9.2982,-28.50307 21.8383,-33.31438 11.447,-4.392 24.5109,1.53978 25.4233,15.88983 -0.2951,0.0667 -0.5792,0.26168 -0.7926,0.62743 z m -1.7448,13.52963 c 0.011,-0.2152 0.014,-0.43142 0.027,-0.64662 0.095,-1.58424 0.5828,-3.30386 0.1144,-4.81939 -0.051,-0.16266 -0.1353,-0.29199 -0.2379,-0.38797 0.9061,-1.12452 1.7667,-2.30159 2.5356,-3.57867 -0.3286,3.32608 -1.1929,6.46525 -2.4393,9.43265 z m -4.3886,-1.31042 c -0.01,-0.0213 -0.018,-0.0364 -0.025,-0.0556 0.9242,-0.79919 1.7966,-1.66507 2.6418,-2.56327 -0.1588,1.07098 -0.083,2.22884 -0.084,3.28264 -7e-4,1.35286 0.074,2.69764 0.237,4.03333 -0.9496,1.76812 -2.0254,3.47359 -3.192,5.11744 0.7889,-3.37458 1.2156,-6.99569 0.423,-9.81457 z m -1.8919,6.81382 c -0.2315,2.14902 -0.6155,4.25358 -1.0803,6.344 -0.7327,0.89619 -1.4862,1.77317 -2.2551,2.63096 -0.1053,-0.17277 -0.2361,-0.32129 -0.3813,-0.44051 0.7971,-4.08789 1.7004,-8.41826 1.7784,-12.5011 0.7908,-0.5274 1.557,-1.09219 2.3087,-1.67617 -0.2824,1.83985 -0.1716,3.79185 -0.3704,5.64282 z m -4.9941,8.42331 c -1.1402,0.52134 -2.2877,1.0144 -3.4407,1.48724 0.2451,-3.36953 0.5983,-7.08864 0.062,-10.31874 1.5552,-0.70724 3.0713,-1.49633 4.5402,-2.36725 -0.7082,3.59281 -0.9151,7.50591 -1.1612,11.19875 z m -7.5333,-7.14117 c 0.9124,-0.32837 1.8166,-0.68401 2.7127,-1.05986 -0.3895,3.23313 0.018,6.86939 0.2723,10.13586 -1.2455,0.49406 -2.4975,0.96589 -3.7548,1.40944 0.029,-0.0647 0.051,-0.13539 0.059,-0.21824 0.3105,-3.17251 1.045,-6.9876 0.7109,-10.2672 z m -4.3513,1.39125 c 0.9042,-0.25259 1.8057,-0.53245 2.7027,-0.82647 -0.1171,1.22152 -0.068,2.48446 -0.096,3.69587 -0.046,2.00353 -0.03,4.00201 -0.01,6.00655 0,0.24451 0.1081,0.39808 0.2461,0.48093 -1.2783,0.44052 -2.5611,0.86082 -3.8502,1.24577 0.9605,-3.18666 1.6432,-7.19776 1.0041,-10.60265 z m -2.0009,10.89464 c -0.8642,0.24754 -1.7303,0.48699 -2.5991,0.70927 -0.1317,-1.92372 -0.2016,-3.84238 -0.1126,-5.77013 0.073,-1.58221 0.3931,-3.19272 0.4267,-4.77796 0.8969,-0.19298 1.7957,-0.40919 2.6936,-0.63753 0.044,1.33568 0.187,2.67642 0.1579,4.01514 -0.044,2.06112 -0.2769,4.11113 -0.5982,6.13992 -0.019,0.12326 0,0.22733 0.032,0.32129 z m -7.9028,-8.75774 c -0.014,-0.0283 -0.032,-0.0465 -0.048,-0.0707 0.08,-0.0112 0.1607,-0.0202 0.2406,-0.0323 1.1965,-0.17378 2.4085,-0.38595 3.6268,-0.61732 -0.7426,3.29577 -0.1561,7.32708 0.5066,10.42078 -1.5588,0.3809 -3.1239,0.73048 -4.6981,1.02854 0.066,-0.0757 0.1225,-0.16469 0.1452,-0.28694 0.3405,-1.83278 0.5783,-3.66859 0.6673,-5.53876 0.079,-1.64788 0.2696,-3.41297 -0.4403,-4.90324 z m -3.8592,0.39909 c 0.9904,-0.10508 1.9782,-0.22531 2.9641,-0.35666 -0.015,0.0313 -0.033,0.0597 -0.043,0.094 -0.4467,1.50138 -0.1135,3.19776 -0.1299,4.76684 -0.018,1.79237 -0.1579,3.57968 -0.3722,5.35588 -0.036,0.30412 0.128,0.50922 0.3459,0.60521 -1.0113,0.18186 -2.0236,0.35261 -3.0395,0.50012 0.2624,-3.55142 0.6283,-7.41501 0.2742,-10.96539 z m -4.7444,0.41121 c 1.0785,-0.0707 2.1525,-0.17075 3.2274,-0.27077 -0.3359,3.56149 0.041,7.42508 0.2996,10.96738 -1.5561,0.20813 -3.1167,0.38696 -4.6854,0.51023 0.6936,-3.49178 1.4761,-7.55239 1.1584,-11.20684 z m -2.2542,11.2816 c -1.0949,0.0718 -2.1906,0.12933 -3.29,0.15863 0.081,-2.08436 0.1724,-4.15154 0.433,-6.22378 0.2097,-1.67112 0.5837,-3.32507 0.7435,-5.00225 0.9642,-0.0263 1.9274,-0.0707 2.8897,-0.12125 -0.3586,3.62515 -0.2206,7.30385 -0.7817,10.94314 -0.014,0.0879 -0.01,0.16873 0.01,0.24551 z m -6.1098,-11.0179 c 0.8452,0.005 1.6886,-0.0182 2.5338,-0.0314 -0.9614,3.46349 -0.9088,7.70394 -0.6636,11.223 -0.5974,0.009 -1.1957,0.0202 -1.7949,0.0162 -0.1879,-8.1e-4 -0.374,-0.0101 -0.561,-0.0132 0.4494,-3.38671 1.123,-7.71304 0.4857,-11.19472 z m -4.3622,-0.10204 c 0.9541,0.0424 1.9083,0.0707 2.8624,0.0889 -0.092,1.52159 0.07,3.08562 0.055,4.60317 -0.021,2.19651 -0.1325,4.38998 -0.3113,6.57639 -0.9233,-0.0283 -1.8448,-0.0687 -2.7626,-0.12933 0.207,-3.58473 0.6945,-7.63726 0.1561,-11.13914 z M 95.976861,765.489 c -8e-4,-0.006 0,-0.0101 -0.01,-0.0171 1.1157,0.096 2.2324,0.17277 3.3499,0.23541 -0.5474,3.49178 -0.067,7.53521 0.1444,11.1159 -1.3264,-0.10305 -2.6473,-0.23036 -3.9637,-0.39403 0.1398,-1.60747 0.2715,-3.21495 0.3768,-4.82848 0.1325,-2.02778 0.4621,-4.10709 0.099,-6.11163 z m -3.7631,-0.40111 c 0.936,0.11114 1.8738,0.20005 2.8116,0.28795 -0.019,0.0364 -0.04,0.0707 -0.052,0.11316 -0.5247,1.94695 -0.3586,4.09092 -0.3949,6.11163 -0.027,1.57009 -0.03,3.13816 -0.024,4.70723 -0.9568,-0.12932 -1.9128,-0.26774 -2.8651,-0.42738 0.5302,-3.43722 1.0449,-7.41195 0.5247,-10.79259 z m -3.7194,-0.50113 c 0.818,0.12629 1.6387,0.22329 2.4584,0.33038 -0.1098,1.72468 0.059,3.4837 0.029,5.21343 -0.032,1.86208 -0.1398,3.72214 -0.2896,5.57815 -0.8979,-0.16064 -1.7948,-0.32937 -2.6881,-0.51528 0.4593,-3.38367 0.9596,-7.2028 0.4902,-10.60668 z m -3.5306,-0.59914 c 0.7408,0.13943 1.4825,0.27077 2.226,0.39505 -0.1861,3.52108 0.1834,7.08358 -0.019,10.63901 -0.9913,-0.2152 -1.98,-0.44051 -2.965,-0.684 0.3804,-0.54559 0.5048,-1.47209 0.5447,-2.15004 0.1489,-2.52386 0.4984,-5.55896 0.2134,-8.20002 z m -3.2338,-0.65572 c 0.5965,0.13135 1.1948,0.25259 1.793,0.37383 -0.1443,1.37812 -0.035,2.81889 -0.019,4.19094 0.01,0.80121 0.3813,5.99342 -0.3395,6.16922 -0.5384,-0.13842 -1.0767,-0.27178 -1.6132,-0.4193 0.1534,-3.38872 0.3622,-6.90778 0.1788,-10.31469 z m -3.635,-0.86284 c 0.739,0.19095 1.4816,0.36878 2.2252,0.54458 -0.2088,3.40388 -0.013,6.92496 0.1434,10.32783 -0.9151,-0.26168 -1.8293,-0.52741 -2.7408,-0.81132 0.048,-1.95402 0.074,-3.90703 0.1725,-5.85903 0.07,-1.39328 0.266,-2.8098 0.1997,-4.20206 z m -3.4098,-0.93862 c 0.7308,0.21622 1.4643,0.41627 2.1988,0.61531 -0.739,3.07147 -0.2669,7.07146 0.096,10.14798 -1.1085,-0.35362 -2.2152,-0.72038 -3.3182,-1.10634 0.038,-0.0404 0.079,-0.0798 0.096,-0.13841 0.5148,-1.73175 0.5829,-3.57463 0.7191,-5.38316 0.1025,-1.35792 0.2905,-2.76534 0.2079,-4.13538 z m 61.636299,16.43036 c -10.4048,9.59634 -19.7756,19.43212 -27.0238,32.25349 -0.075,0.1334 -0.1326,0.2647 -0.177,0.3951 -8.492,-6.0056 -16.817899,-11.84542 -24.037099,-19.81508 -4.5855,-5.06086 -9.4152,-11.02801 -13.1093,-17.54175 21.7811,9.99542 47.865299,9.14975 69.639999,-0.3415 -1.7685,1.7671 -3.557,3.44833 -5.2928,5.04974 z M 70.846761,760.32105 c 0.8525,0.28997 1.7104,0.56074 2.5692,0.82647 -0.3205,1.45693 -0.2951,3.03813 -0.3659,4.5183 -0.085,1.78024 -0.2215,3.56452 0.06,5.32658 -0.5592,-0.19904 -1.1184,-0.39808 -1.6767,-0.60419 0,-0.0112 0,-0.0172 0,-0.0283 -0.1526,-3.18868 -0.039,-6.79766 -0.5901,-10.03887 z m -4.0681,0.41424 c -0.1734,-0.68805 -0.3059,-1.36802 -0.4094,-2.04293 0.956,0.37787 1.921,0.73351 2.8878,1.08007 -0.1443,3.26243 0.513,6.79462 0.9024,10.01259 -1.4271,-2.93406 -2.6018,-5.95805 -3.3808,-9.04973 z m 84.314399,-38.76927 c -7.6586,-4.51931 -17.6113,-3.66253 -24.9594,1.22758 -9.4198,6.26823 -14.6881,17.60844 -18.0326,28.95672 -5.1157,-9.44377 -13.301699,-17.54781 -23.543999,-18.16109 -9.8647,-0.59106 -20.4765,6.46019 -21.9154,17.93477 -0.7054,5.62262 0.5574,11.2614 2.8325,16.62132 -0.3296,0.37989 -0.3895,1.1023 0.118,1.39934 0.2251,0.13135 0.4548,0.25259 0.6818,0.38191 3.4098,7.25333 8.5192,13.91863 12.8787,19.22904 8.3594,10.18133 18.934,19.85038 30.777799,24.38288 0.6636,0.2536 1.1511,-0.2405 1.2782,-0.8467 0.433,-0.086 0.8443,-0.3617 1.1439,-0.8901 7.0894,-12.54154 16.3004,-22.08331 26.47,-31.45737 8.9142,-8.21619 18.0126,-17.5761 21.2291,-30.42173 2.6409,-10.54505 0.2533,-22.92087 -8.9586,-28.35657" />
    <path
       inkscape:connector-curvature="0"
       id="path3593"
       style="fill:#2f3031;fill-opacity:1;fill-rule:nonzero;stroke:none"
       d="m 222.03624,398.24751 c -7.4498,-3.97169 -14.5274,-8.70318 -20.5909,-15.01788 -4.8914,-5.0942 -10.1787,-11.52207 -12.3294,-18.89563 4.7707,0.53953 9.5033,0.71836 14.3194,0.5466 0.1398,-0.005 0.266,-0.0323 0.3859,-0.0687 0.1262,0.89113 0.3958,1.75801 0.7971,2.56933 0.7081,1.42965 2.4648,0.17277 1.9164,-1.24678 -0.4303,-1.11644 -0.4167,-2.36726 -0.078,-3.51098 0.3468,-1.17504 1.2438,-1.77822 1.685,-2.83707 0.4484,-1.07804 -0.2905,-2.35109 -1.4099,-2.04091 -1.4426,0.4001 -2.355,2.31472 -2.7426,3.88885 -0.1634,-0.0616 -0.345,-0.099 -0.5538,-0.0889 -4.9596,0.23945 -9.9382,0.32735 -14.9059,0.33442 -0.246,-1.29426 -0.4022,-2.61176 -0.4185,-3.95856 -0.1417,-11.10479 8.7443,-17.06486 17.8736,-14.3167 8.4294,2.53801 13.5042,11.62512 16.7688,19.9868 0.6183,1.58323 2.6519,0.91942 3.0577,-0.44455 3.1656,-10.64104 7.3027,-23.74633 18.2985,-26.77941 9.7376,-2.68653 16.4874,7.49682 16.3639,17.40535 -0.2805,22.59352 -26.3647,30.98652 -38.4372,44.47473 z m 80.5395,-51.06122 c -6.5601,0.2344 -13.0748,-0.11215 -19.5858,-1.04369 -1.7104,-0.24552 -2.4576,2.90375 -0.8925,3.66758 0.6882,0.33543 1.3763,0.67188 2.0645,1.00732 -4.2369,0.24956 -8.4739,0.51023 -12.7071,0.82849 -1.2656,0.095 -4.9914,-0.17479 -7.5179,0.53852 -0.168,-2.14801 -0.5919,-4.38292 -1.3218,-6.71885 -3.0114,-9.63978 -11.4498,-15.60693 -20.5291,-12.34349 -10.1016,3.63222 -14.8025,14.20557 -18.1433,24.61524 -3.8529,-8.28894 -9.6114,-15.96358 -18.1016,-18.08128 -8.6018,-2.14498 -17.7447,2.07122 -20.4211,11.88276 -0.9514,3.49077 -1.0022,6.94416 -0.4266,10.28438 -1.2402,-0.0314 -2.4921,0.0474 -3.7386,0.14954 -0.581,-0.84668 -1.3481,-1.60646 -1.8892,-2.28037 -1.1021,-1.37408 -1.7231,-2.50264 -3.4135,-2.72492 -0.5583,-0.0738 -1.0413,0.59004 -1.0404,1.15786 0,1.0831 0.1725,1.51452 0.759,2.32584 0.364,0.50315 1.0594,1.15786 1.6813,1.83177 -1.1911,0.0798 -2.3822,0.16064 -3.5724,0.24753 -0.9959,-1.12149 -1.9491,-2.28542 -2.8252,-3.52613 -0.8642,-1.22253 -1.2428,-2.14296 -2.5655,-2.67744 -0.6818,-0.27582 -1.3409,0.43244 -1.3609,1.15383 -0.051,1.86309 1.3481,3.77771 2.7952,5.38316 -0.896,0.0899 -1.7902,0.19096 -2.6826,0.31119 -1.5688,0.20914 -1.6569,2.71886 0,2.79362 0.5837,0.0263 1.1684,0.0374 1.753,0.0505 -0.1089,0.0899 -0.2115,0.18692 -0.3232,0.27381 -0.9568,0.74463 -2.0808,1.21646 -2.5565,2.45212 -0.1852,0.47992 -0.045,0.94974 0.4149,1.13362 2.1988,0.88002 5.0004,-1.82874 6.7371,-3.84439 1.4045,-0.0182 2.808,-0.0475 4.2106,-0.0788 -0.1734,0.16671 -0.3395,0.32634 -0.4693,0.47689 -1.0504,1.20737 -2.108,2.40565 -3.0931,3.6797 -1.0621,1.37307 0.5239,3.0836 1.7658,1.96413 1.6405,-1.47815 3.1992,-3.08764 4.7408,-4.69309 0.4566,-0.47588 0.9042,-0.9366 1.2337,-1.45592 1.468,-0.008 2.9405,-0.0566 4.3731,-0.28593 1.9228,6.0995 5.7013,11.69686 9.5596,16.28689 7.1702,8.5294 16.2369,15.33716 26.2913,18.80873 0.5383,0.72443 1.5506,1.04269 2.3731,0.21622 12.1923,-12.25154 38.6933,-24.28182 39.8308,-45.27998 0.3804,0.0364 0.8942,-0.0899 1.4643,-0.0748 1.0014,0.0272 2.0037,-0.0112 3.0041,-0.0415 2.5047,-0.0768 5.0077,-0.21722 7.5106,-0.35665 3.1321,-0.17479 6.2632,-0.36272 9.3944,-0.54761 -0.6455,0.51427 -1.2792,1.05784 -1.9074,1.63576 -1.2819,1.17807 0.099,3.92926 1.6732,3.19878 6.1279,-2.84415 12.2386,-5.73881 18.3475,-8.63347 1.6532,-0.78302 0.7608,-3.72719 -0.8933,-3.66758" />
    <path
       inkscape:connector-curvature="0"
       id="path3597"
       style="fill:#f04952;fill-opacity:1;fill-rule:nonzero;stroke:none"
       d="m 653.3619,618.36247 c -1.37744,-7.94406 -9.27803,-10.20272 -15.07124,-6.39454 -4.68218,3.0784 -8.17367,8.5643 -10.67038,14.31586 -2.78278,-5.52932 -5.70859,-10.91599 -11.1924,-13.69045 -6.31887,-3.19726 -14.66628,-0.55201 -13.98734,8.41853 0.30653,4.04489 2.06292,8.05052 3.49426,11.72949 1.67188,4.30024 3.59369,8.47745 5.8024,12.46861 4.22528,7.63703 9.53914,15.47979 16.56948,20.11082 1.52425,1.00373 3.44503,-0.64195 3.16173,-2.39924 0.8889,-0.39179 1.64957,-1.18981 2.02486,-2.47987 2.30447,-7.93166 7.7186,-13.95095 12.19186,-20.41783 4.01902,-5.81049 9.02635,-13.87651 7.67677,-21.66138" />
    <path
       inkscape:connector-curvature="0"
       id="path3599"
       style="fill:#f04952;fill-opacity:1;fill-rule:nonzero;stroke:none"
       d="m 655.24593,656.86602 c -3.18312,-4.50802 -6.14146,0.0444 -7.51979,4.16482 -1.12483,-1.16913 -2.28125,-2.17184 -4.08593,-1.92064 -1.85952,0.25842 -3.10321,1.9258 -2.97409,4.02009 0.33527,5.46419 5.62315,11.17233 9.5781,13.74834 0.2257,0.1468 0.45979,0.19227 0.68171,0.16633 0.79322,0.34836 1.76569,0.18917 2.1689,-0.79596 1.50747,-3.68205 2.58859,-7.45201 3.0762,-11.4721 0.31492,-2.59358 0.63813,-5.6978 -0.9251,-7.91097" />
    <path
       inkscape:connector-curvature="0"
       id="path3627"
       style="fill:#2f3031;fill-opacity:1;fill-rule:nonzero;stroke:none"
       d="m 228.43397,571.42914 c -1.7712,-0.99418 -3.9082,-1.5226 -5.6994,-2.25207 -2.0245,-0.82546 -4.3958,-2.3127 -6.5973,-2.34402 0.719,-1.84996 1.389,-3.72416 2.069,-5.59028 0.7698,-2.11669 2.0934,-4.62944 2.2705,-6.98761 4.2895,4.44758 6.778,10.63397 7.9572,17.17398 z m 0.493,16.1697 c -0.3967,3.60999 -1.1148,7.12501 -2.0744,10.5501 -2.6201,-2.65622 -6.9196,-4.08182 -10.1397,-5.23666 -3.4544,-1.23768 -7.0604,-2.21267 -10.6654,-2.87041 3.7566,-1.92978 7.4607,-4.02828 11.1538,-6.09041 3.94,-2.19954 8.4656,-4.11416 11.9036,-7.2119 0.2833,3.70395 0.2025,7.40387 -0.1779,10.85928 z m -6.2995,22.01054 c -0.074,-0.0707 -0.1526,-0.13236 -0.2415,-0.17378 -3.054,-1.44481 -6.6854,-1.56201 -9.96,-2.06921 -3.1402,-0.48699 -6.2832,-0.85375 -9.4443,-1.04571 0.2869,-1.18414 0.3695,-2.4885 0.5265,-3.55543 0.5629,-3.81712 0.9397,-7.68071 1.0386,-11.54935 3.8901,1.24981 7.6631,2.58852 11.4089,4.34957 3.3146,1.55796 6.6754,4.08183 10.2169,4.86586 -0.9923,3.14018 -2.1924,6.19852 -3.5451,9.17805 z m -7.4462,13.58116 c -0.047,0.0748 -0.097,0.14751 -0.1452,0.22127 -3.2156,-5.05783 -7.1085,-9.82972 -10.8924,-14.40864 -0.028,-0.1849 -0.084,-0.35969 -0.1652,-0.52135 2.5057,0.65774 5.0295,1.21849 7.5732,1.68426 3.3019,0.60419 6.808,1.60848 10.1652,1.3761 -1.9455,4.03434 -4.1579,7.92218 -6.5356,11.64836 z m -12.6871,-0.26067 c -3.3019,-0.54155 -6.6291,-0.97701 -9.9609,-1.27405 3.8574,-3.18262 7.448,-6.76028 10.6073,-10.57739 1.2809,1.96615 2.5782,3.92017 3.8828,5.86611 1.0431,1.55594 2.1053,3.09471 3.1675,4.6355 0.4802,0.69613 2.0971,2.38949 2.9514,3.62616 -3.3218,-1.31851 -7.2065,-1.71154 -10.6481,-2.27633 z m -0.4412,18.70669 c -1.0359,-3.38569 -3.1194,-6.46121 -4.8207,-9.44983 -1.566,-2.75119 -3.1902,-5.47106 -4.9051,-8.11415 2.8534,0.55367 5.7113,1.08411 8.5637,1.64183 3.6541,0.7133 7.4398,1.89643 11.1656,2.1672 -3.1947,4.69713 -6.5655,9.25484 -10.0035,13.75495 z m -10.187,13.1255 c -0.6364,-2.32483 -1.5315,-4.56579 -1.9419,-7.0068 -0.09,-0.53751 -0.472,-0.96489 -0.9278,-1.14978 -2.2769,-4.23439 -4.6972,-8.34249 -7.2646,-12.34753 2.3069,1.73882 4.6655,3.39277 7.0858,4.92345 3.1911,2.01667 6.6926,4.72643 10.3667,5.32456 0.5483,0.0899 0.9931,-0.46981 1.0658,-1.04874 0.069,0.0849 0.1316,0.17681 0.2024,0.25966 -2.8497,3.69789 -5.7312,7.36547 -8.5864,11.04518 z m -4.1152,5.35386 c -0.065,0.0849 -0.1135,0.17378 -0.1625,0.26269 -4.8661,-2.31068 -9.7122,-4.70218 -14.4983,-7.23312 0.063,-0.15458 0.1207,-0.31523 0.1824,-0.47183 0.012,-8.1e-4 0.02,0.004 0.032,0.002 4.7009,-0.52942 9.4416,-1.58625 14.0844,-2.67036 0.4675,2.55619 1.1511,5.2114 2.551,7.25534 -0.7308,0.95075 -1.4653,1.90048 -2.1888,2.85526 z m -28.3986,-14.80572 c 0.7574,-2.44404 0.889,-5.13764 1.0773,-7.70697 0.2167,-2.96033 0.3766,-5.97725 0.3263,-8.96587 4.2768,1.7378 8.8465,2.56831 13.3854,2.92598 -0.5265,3.71204 -1.0558,7.41902 -1.7376,11.10277 -0.5628,3.04924 -1.438,6.10253 -1.6877,9.20331 -3.839,-2.0783 -7.6359,-4.25056 -11.3637,-6.55922 z m -2.752,-1.74892 c -1.9299,-1.24172 -3.847,-2.50668 -5.7336,-3.83025 -4.7722,-3.34528 -9.4511,-7.1927 -13.5354,-11.63724 3.3147,0.0333 6.6354,-0.0798 9.9441,-0.20915 3.5342,-0.13841 7.683,0.26775 11.225,-0.50214 -0.3826,3.10683 -0.611,6.23792 -1.0267,9.34172 -0.2982,2.22985 -0.7645,4.54861 -0.8734,6.83706 z m -17.3334,-41.02235 c 6.4205,3.00984 13.2506,5.06085 20.0116,6.90677 0.1202,2.98256 0.2003,5.95906 0.1078,8.94567 -0.029,0.94063 0.2929,3.97978 -0.2639,4.80726 -0.9866,1.46804 -3.1785,1.08916 -4.6445,1.23869 -6.1354,0.62541 -12.2588,0.84769 -18.4034,1.18009 1.8937,-7.50389 3.2423,-15.26845 3.1924,-23.07848 z m -14.1717,3.05834 c 0,-0.0111 0,-0.0222 -0.01,-0.0333 1.8072,0.21319 3.6495,-0.58499 5.4531,-1.0548 2.3001,-0.59813 4.6027,-1.18717 6.8985,-1.80652 -1.2918,6.91688 -2.4365,13.83578 -4.0334,20.67082 -3.8464,-5.16594 -6.8224,-11.04922 -8.3118,-17.77615 z m 0.011,-15.39577 c 3.6113,-1.31547 7.1614,-2.83606 10.7651,-4.18185 0.3164,4.33341 1.0391,8.71834 1.0979,13.06589 -2.3937,0.56176 -4.781,1.15988 -7.1701,1.74589 -1.7828,0.43748 -3.7009,0.59409 -5.235,1.59939 -0.498,-4.02525 -0.3214,-8.23337 0.5421,-12.22932 z m 6.0653,-12.77793 c 0.628,2.07122 2.0064,4.13032 3.2728,5.91461 -2.8356,1.30941 -5.7039,2.53093 -8.5412,3.83126 1.1487,-3.65445 2.9076,-7.0159 5.2684,-9.74587 z m 9.4036,-6.09647 c 3.6292,-1.02248 7.183,-0.85476 10.5867,0.1273 0,0.0132 0,0.0293 -0.01,0.0424 -0.4331,-0.15863 -0.933,-0.11114 -1.3834,0.2829 -4.0754,3.57059 -8.1135,7.26747 -11.956,11.15025 0,-0.007 -0.01,-0.0151 -0.012,-0.0222 -1.138,-1.68224 -2.1837,-3.42712 -3.1168,-5.2599 -0.4684,-0.91942 -0.8028,-1.71255 -1.3135,-2.42182 2.0561,-1.77014 4.4538,-3.12502 7.2018,-3.89895 z m 30.4872,15.19066 c -5.6757,0.80828 -11.3636,1.87016 -16.9883,3.09572 0.9699,-5.45793 1.4947,-11.92419 -0.1738,-17.18914 6.6018,2.78959 12.5219,8.44049 17.1621,14.09342 z m 3.1021,4.64762 c 1.902,5.61655 3.7204,11.26342 5.5279,16.91937 -0.01,0 -0.016,-0.003 -0.025,-0.002 -5.3972,0.4203 -10.6894,0.23642 -16.0464,-0.41122 1.9069,-2.72492 3.6896,-5.56098 5.4883,-8.37178 1.6231,-2.53801 3.8355,-5.21039 5.0556,-8.13435 z m 5.4616,-21.30127 c 1.7694,2.0106 4.1879,3.13613 6.3431,4.5971 1.6514,1.12049 3.2719,2.29047 4.8806,3.48067 -5.1729,2.02576 -10.3413,4.07475 -15.4225,6.37028 0.6845,-5.03156 2.1035,-9.93683 4.1988,-14.44805 z m 8.7181,-12.53949 c 2.8669,1.67516 5.7348,3.35033 8.6018,5.02549 -1.6005,4.31421 -2.7471,8.87494 -3.2238,13.51448 -3.8801,-3.13007 -8.5401,-7.25938 -12.9994,-8.21922 2.0399,-3.8454 4.5928,-7.3483 7.6214,-10.32075 z m 18.1659,-8.67186 c -1.0349,1.21747 -1.9182,2.63197 -2.8624,3.91916 -1.349,1.84086 -2.6981,4.34451 -4.4884,5.91258 -0.2469,-0.0353 -0.4249,0.14953 -0.4857,0.39 -0.2687,0.20005 -0.5456,0.37888 -0.8361,0.52942 -2.3631,-1.41247 -4.7262,-2.82494 -7.0903,-4.23742 4.4448,-3.61403 10.1416,-6.21367 15.7629,-6.51374 z m 2.7063,33.15372 c 2.1925,-4.19397 4.5202,-8.29096 6.9632,-12.31115 0.1162,-0.19096 0.1825,-0.42839 0.2079,-0.67694 1.4834,1.27406 3.5479,2.02879 5.1657,2.82394 2.0944,1.03056 4.4756,2.52285 6.8097,2.86839 -0.06,0.006 -0.1162,-0.003 -0.1779,0.0162 -4.2996,1.35892 -8.325,4.4405 -12.2378,6.80877 -3.1339,1.89744 -6.2986,3.77771 -9.4035,5.75497 0.8707,-1.77418 1.7594,-3.53624 2.6727,-5.28415 z m -12.1715,24.62028 c -5.2718,0.0677 -10.6054,0.0303 -15.8428,0.76181 -0.9813,-5.55088 -2.3949,-10.97142 -4.1443,-16.27376 0.1988,0.0394 0.4013,0.0768 0.6137,0.11721 3.1466,0.59711 6.2941,1.11441 9.477,1.41247 4.8924,0.4587 9.7793,0.54963 14.5591,-0.6052 -0.1797,2.57337 -0.3604,5.1437 -0.6554,7.70697 -0.1453,1.26294 -0.2061,2.60267 -0.4984,3.83126 -0.6882,2.88961 -1.1149,3.01893 -3.5089,3.04924 z m -21.1337,-19.73421 c 6.2986,-1.95706 12.4974,-4.29703 18.7044,-6.58548 0.4212,-0.1556 0.7453,-0.45668 0.9477,-0.82243 1.3673,3.50593 3.0295,7.69889 5.2056,10.62891 -3.7639,0.42839 -7.5115,0.51023 -11.3135,0.11923 -1.3001,-0.13438 -13.0058,-1.84087 -12.9886,-2.19146 0.025,-0.5466 -0.2179,-0.93559 -0.5556,-1.14877 z m 14.0162,37.01832 c 1.724,3.5615 3.5552,7.06338 5.3409,10.58648 1.2392,2.44708 2.3177,5.1619 3.7866,7.49076 -2.8025,-2.24803 -6.4094,-3.5524 -9.4434,-5.32961 -3.3953,-1.98939 -6.7262,-4.08688 -10.0344,-6.24499 3.5506,-1.79944 7.0313,-3.99595 10.3503,-6.50264 z m -11.2899,4.44152 c 1.0758,-6.00251 1.7439,-12.1202 2.3159,-18.2005 0.3486,-0.0626 0.6464,-0.38697 0.561,-0.9265 0,-0.0283 -0.01,-0.0556 -0.014,-0.0839 3.8575,0.48295 7.7358,0.47992 11.615,0.53145 2.0572,0.0283 5.5043,0.82243 7.6867,-0.13135 -6.8923,7.19574 -14.1179,13.24573 -22.1641,18.81076 z m -1.5615,4.0404 c 3.3227,4.8507 6.5837,9.75496 9.7539,14.73095 -4.2714,1.17605 -8.5937,2.2935 -12.8125,3.66657 1.8148,-5.68728 2.4739,-12.44553 3.0586,-18.39752 z m -14.71,-21.50941 c 5.2201,0.83354 10.4885,0.98207 15.7422,0.58096 -0.3677,5.68323 -0.8924,11.34626 -1.2919,17.02444 -0.1534,0.0606 -0.2996,0.15358 -0.4303,0.27381 -0.157,-0.0768 -0.3232,-0.12528 -0.492,-0.12831 -5.1466,-0.0728 -10.0236,-1.00329 -15.0338,-2.11063 0.6997,-0.66987 1.0522,-1.62566 1.2501,-2.96539 0.6036,-4.08688 0.4972,-8.49101 0.2557,-12.67488 z m -9.3122,-18.53492 c 6.0244,-0.55772 12.0797,-1.30235 18.0567,-2.30563 -1.6842,2.36827 -2.9031,5.39326 -4.2773,7.85347 -1.7167,3.0735 -3.5047,6.10456 -5.1626,9.21948 -1.8438,-2.72291 -3.581,-5.5236 -5.1627,-8.44454 -1.1526,-2.1278 -2.0519,-4.40412 -3.4541,-6.32278 z m -12.963,-8.27581 c 3.8111,-2.96235 7.534,-6.10152 11.1743,-9.30939 0.1982,1.99141 0.5042,3.97675 0.5383,5.99544 0.044,2.61681 -0.1486,5.20735 -0.534,7.7787 -1.9849,-0.92346 -3.985,-1.80045 -6.0249,-2.5673 -1.1024,-0.41526 -2.2125,-0.81536 -3.3306,-1.17504 -0.4738,-0.15257 -1.1852,-0.53953 -1.8231,-0.72241 z m -2.6828,1.51351 c 0.038,-0.0263 0.078,-0.0505 0.1135,-0.0788 0.086,0.32635 0.2593,0.62642 0.5064,0.76383 3.8864,2.16923 8.2273,3.48471 12.2925,5.35386 0.024,0.38091 0.2045,0.73251 0.5291,0.85476 -0.026,0.14044 -0.033,0.28795 0,0.44456 0.8139,4.43545 3.5285,8.86079 6.1953,12.79309 -5.6169,-1.54079 -11.197,-3.25132 -16.8327,-4.68804 0.036,-0.22228 0.029,-0.45365 -0.038,-0.68199 -1.3859,-4.75775 -1.7941,-9.88024 -2.7626,-14.76126 z m 64.6955,0.38596 c -1.1176,-3.00176 -2.9578,-5.97624 -4.3323,-8.86585 -0.5147,-1.08007 -1.546,-1.01642 -2.1697,-0.40515 0.9033,-4.94164 2.1588,-9.49025 4.2541,-14.03482 0.2025,-0.43849 0.257,-0.99823 0.093,-1.45693 0.1507,-0.094 0.2942,-0.19904 0.4385,-0.30512 4.0063,3.02499 8.2533,5.61958 12.3939,8.41422 -2.8297,4.66783 -5.5179,9.43568 -7.9672,14.3652 -0.5865,1.17908 -1.1357,2.3814 -1.7267,3.55644 -0.7299,1.65597 -0.8743,1.9227 -0.4331,0.8002 0.4621,-0.74362 0.2787,-1.43369 -0.551,-2.06819 z m 7.5986,-37.03652 c 2.9887,0.33645 5.8811,1.41248 8.4702,3.43318 0.1989,0.15459 0.3904,0.31827 0.5829,0.47992 -1.4517,1.81156 -1.8348,4.50719 -2.4757,6.78856 -0.6537,2.32685 -1.3336,4.65975 -1.9183,7.01388 -4.2405,-2.28542 -8.393,-4.76382 -12.7135,-6.84818 0.8425,-0.86082 1.6042,-1.86814 2.3777,-2.87142 1.9065,-2.47335 4.4366,-5.00125 5.6767,-7.99594 z m 10.3549,0.11822 c -8.9259,-6.80675 -20.9603,-4.41424 -29.5867,1.78024 -9.8047,7.04216 -16.1487,18.84813 -18.2785,31.46845 -6.2299,-7.2028 -13.9498,-13.50235 -22.9314,-15.04516 -9.9268,-1.70447 -19.2063,3.78882 -24.3665,13.20531 -5.6517,10.3147 -5.1818,22.82994 -0.9166,33.64173 4.8047,12.17778 14.0392,21.24469 23.8961,28.32323 12.5247,8.99416 26.341,16.29699 40.4181,21.71349 0.8134,0.31321 1.3972,-0.19095 1.5987,-0.86991 0.06,-0.0597 0.1208,-0.11316 0.178,-0.18692 17.565,-22.44095 41.0219,-47.05618 42.6614,-78.68427 0.6591,-12.70519 -2.728,-27.76248 -12.6726,-35.34619" />
    <path
       inkscape:connector-curvature="0"
       id="path3629"
       style="fill:#2f3031;fill-opacity:1;fill-rule:nonzero;stroke:none"
       d="m 128.65617,430.44155 c -1.1884,12.0959 -7.2555,24.1959 -12.7762,34.47 -6.0371,11.23554 -13.3707,21.48234 -21.751905,30.65834 -0.3378,0.3698 -0.4894,0.7818 -0.5157,1.1884 -13.6386,-9.3872 -24.9776,-21.9085 -30.6915,-38.95354 -2.6446,-7.8906 -6.4639,-21.7226 4.0326,-24.2667 9.4725,-2.2952 16.0834,7.5102 20.8977,14.9786 1.0595,1.6442 3.0703,0.9662 3.2764,-0.9878 1.35,-12.7953 4.4793,-27.9001 15.814705,-34.233 4.8116,-2.6885 10.8433,-2.8977 15.5505,0.2395 5.3481,3.5645 6.8016,10.4056 6.1634,16.9062 z m -3.4925,-19.6574 c -7.2828,-5.5347 -16.9686,-4.0081 -23.7021,1.7631 -8.468305,7.2573 -11.663105,18.658 -13.242705,29.9751 -4.8243,-6.9674 -10.7952,-13.5519 -19.2273,-13.1902 -10.2577,0.4385 -13.861,10.0167 -11.9127,20.1364 4.1189,21.3832 18.3085,42.22174 37.0038,49.92844 0.4784,0.1974 0.8542,-0.1011 1.0186,-0.5222 0.5011,0.1224 1.0513,0 1.5279,-0.5213 7.799305,-8.5414 14.732505,-18.0237 20.571805,-28.32814 5.7276,-10.1067 11.1819,-21.4338 13.9027,-33.0631 2.1589,-9.2325 1.8193,-20.2807 -5.94,-26.1781" />
    <path
       inkscape:connector-curvature="0"
       id="path3631"
       style="fill:#2f3031;fill-opacity:1;fill-rule:nonzero;stroke:none"
       d="m 137.36799,462.70566 c -0.1144,-1.6833 -2.0581,-2.4068 -2.9079,-0.8758 -4.2369,7.6309 -8.3222,15.4955 -11.5914,23.7058 -0.5864,1.4721 0.6528,3.2079 2.0763,2.3116 0.8815,-0.5546 2.0181,-1.2132 3.0903,-2.0006 -2.9342,8.595 -6.2641,16.81124 -11.7512,24.01444 -6.3975,8.397 -15.0529,14.5194 -24.876696,16.4029 -10.6273,2.0381 -20.3875,-1.9087 -28.2286,-9.9216 -0.092,-0.093 -0.1807,-0.193 -0.2724,-0.2869 0.01,-2.9462 0.1426,-5.8763 0.3287,-8.8146 0.1298,-2.0377 -2.6954,-2.0144 -2.8434,0 -0.1425,1.9402 -0.2124,3.884 -0.2397,5.8288 -1.7412,-1.9689 -3.4352,-4.0453 -5.0167,-6.2388 0.6028,-2.6211 1.2392,-5.2388 1.7521,-7.8816 0.3804,-1.96034 -2.2269,-2.79004 -2.7153,-0.8336 -0.454,1.8175 -0.8471,3.6543 -1.2356,5.4931 -1.0931,-1.7125 -2.1144,-3.4767 -3.0286,-5.2942 1.1212,-2.31154 2.8942,-5.93184 2.1425,-8.35284 -0.2442,-0.7869 -1.1611,-1.1689 -1.7267,-0.507 -0.828,0.9669 -0.926,2.0692 -1.2773,3.318 -0.2043,0.7277 -0.4431,1.4369 -0.7054,2.134 -1.0504,-2.5319 -1.8947,-5.145 -2.4558,-7.8292 -0.2224,-1.062 -1.6595,-0.8023 -1.6758,0.2515 -0.036,2.2539 0.2632,4.4909 0.8197,6.6897 -0.9568,-0.6174 -1.9092,-1.2441 -2.8687,-1.8562 -1.0913,-0.697 -1.9428,1.0479 -0.9669,1.8388 1.7249,1.3975 3.4598,2.7795 5.1956,4.15864 0.7199,1.8005 1.5951,3.5615 2.5701,5.2751 -1.4843,-0.6346 -2.9759,-1.248 -4.4748,-1.8277 -0.8842,-0.3426 -1.428,1.1627 -0.6309,1.6651 2.5982,1.6335 5.2564,3.1724 7.9391,4.6354 1.1902,1.7045 2.4548,3.3362 3.7394,4.8891 -1.4571,-0.5012 -3.0612,-1.3103 -4.5356,-0.7921 -0.2406,0.085 -0.3822,0.4042 -0.2406,0.6576 0.8525,1.5238 2.6446,1.9915 4.0953,2.6029 1.4208,0.5979 2.857,1.1468 4.3032,1.6631 0.6046,0.6535 1.2047,1.2909 1.7912,1.8995 8.0299,8.3169 18.0571,12.708 29.0747,11.2196 21.693796,-2.9308 37.403196,-24.9655 42.334596,-47.60974 0.5139,2.8745 1.3237,5.5925 2.4548,8.2817 0.6909,1.6443 2.7908,0.6903 2.8634,-0.8627 0.4221,-9.0576 0.3105,-18.1074 -0.305,-27.1512" />
    <flowRoot
       xml:space="preserve"
       id="flowRoot5390"
       style="fill:black;stroke:none;stroke-opacity:1;stroke-width:1px;stroke-linejoin:miter;stroke-linecap:butt;fill-opacity:1;font-family:Sans;font-style:normal;font-weight:normal;font-size:40px;line-height:125%;letter-spacing:0px;word-spacing:0px"><flowRegion
         id="flowRegion5392"><rect
           id="rect5394"
           width="650.53827"
           height="185.86807"
           x="90.913727"
           y="805.88495" /></flowRegion><flowPara
         id="flowPara5396"></flowPara></flowRoot>    <flowRoot
       xml:space="preserve"
       id="flowRoot5398"
       style="font-size:40px;font-style:normal;font-weight:normal;line-height:125%;letter-spacing:0px;word-spacing:0px;fill:#000000;fill-opacity:1;stroke:none;font-family:Sans"
       transform="translate(4,-70)"><flowRegion
         id="flowRegion5400"><rect
           id="rect5402"
           width="743.47229"
           height="183.84776"
           x="0"
           y="228.07771" /></flowRegion><flowPara
         id="flowPara5404"
         style="font-size:64px;font-style:normal;font-variant:normal;font-weight:normal;font-stretch:normal;text-align:center;text-anchor:middle;font-family:Lobster Two;-inkscape-font-specification:Lobster Two">je bent mijn</flowPara></flowRoot>    <flowRoot
       style="font-size:40px;font-style:normal;font-weight:normal;line-height:125%;letter-spacing:0px;word-spacing:0px;fill:#000000;fill-opacity:1;stroke:none;font-family:Sans"
       id="flowRoot5406"
       xml:space="preserve"
       transform="translate(-133.6041,591.9697)"><flowRegion
         id="flowRegion5408"><rect
           y="232.11832"
           x="161.6244"
           height="189.90869"
           width="462.64987"
           id="rect5410" /></flowRegion><flowPara
         style="font-size:64px;font-style:normal;font-variant:normal;font-weight:normal;font-stretch:normal;text-align:center;text-anchor:middle;font-family:Lobster Two;-inkscape-font-specification:Lobster Two"
         id="flowPara5412">Favo</flowPara></flowRoot>    <flowRoot
       transform="translate(80.96733,595.9697)"
       xml:space="preserve"
       id="flowRoot5414"
       style="font-size:40px;font-style:normal;font-weight:normal;line-height:125%;letter-spacing:0px;word-spacing:0px;fill:#000000;fill-opacity:1;stroke:none;font-family:Sans"><flowRegion
         id="flowRegion5416"><rect
           id="rect5418"
           width="444.07846"
           height="187.05154"
           x="161.6244"
           y="232.11832" /></flowRegion><flowPara
         id="flowPara5420"
         style="font-size:64px;font-style:normal;font-variant:normal;font-weight:normal;font-stretch:normal;text-align:center;text-anchor:middle;font-family:Lobster Two;-inkscape-font-specification:Lobster Two">rietje</flowPara></flowRoot>    <rect
       style="fill:none;stroke:#000000;stroke-width:1.77165354;stroke-miterlimit:4;stroke-dasharray:1.77165354,21.25984252;stroke-opacity:1;stroke-dashoffset:0"
       id="rect5422"
       width="17.716536"
       height="711.58496"
       x="354.96759"
       y="242.97113" />
  </g>
</svg>
