<?xml version="1.0" encoding="UTF-8" standalone="no"?>
<!-- Created with Inkscape (http://www.inkscape.org/) -->

<svg
   xmlns:dc="http://purl.org/dc/elements/1.1/"
   xmlns:cc="http://creativecommons.org/ns#"
   xmlns:rdf="http://www.w3.org/1999/02/22-rdf-syntax-ns#"
   xmlns:svg="http://www.w3.org/2000/svg"
   xmlns="http://www.w3.org/2000/svg"
   xmlns:xlink="http://www.w3.org/1999/xlink"
   xmlns:sodipodi="http://sodipodi.sourceforge.net/DTD/sodipodi-0.dtd"
   xmlns:inkscape="http://www.inkscape.org/namespaces/inkscape"
   width="524.40942"
   height="744.09448"
   id="svg3255"
   version="1.1"
   inkscape:version="0.48.4 r9939"
   sodipodi:docname="bike_grey4.svg">
  <defs
     id="defs3">
    <linearGradient
       inkscape:collect="always"
       id="linearGradient7799">
      <stop
         style="stop-color:#ff0000;stop-opacity:1;"
         offset="0"
         id="stop7801" />
      <stop
         style="stop-color:#ff0000;stop-opacity:0;"
         offset="1"
         id="stop7803" />
    </linearGradient>
    <inkscape:path-effect
       effect="spiro"
       id="path-effect4892"
       is_visible="true" />
    <inkscape:path-effect
       effect="spiro"
       id="path-effect4896"
       is_visible="true" />
    <linearGradient
       inkscape:collect="always"
       xlink:href="#linearGradient7799"
       id="linearGradient7809"
       gradientUnits="userSpaceOnUse"
       x1="55"
       y1="416.71265"
       x2="665.63977"
       y2="416.71265" />
  </defs>
  <sodipodi:namedview
     inkscape:document-units="mm"
     id="base"
     pagecolor="#ffffff"
     bordercolor="#666666"
     borderopacity="1.0"
     inkscape:pageopacity="0.0"
     inkscape:pageshadow="2"
     inkscape:zoom="1.4"
     inkscape:cx="291.21204"
     inkscape:cy="305.54662"
     inkscape:current-layer="layer1"
     showgrid="false"
     inkscape:snap-global="true"
     inkscape:snap-grids="true"
     inkscape:snap-to-guides="true"
     inkscape:snap-nodes="false"
     units="mm"
     objecttolerance="10000"
     inkscape:window-width="1299"
     inkscape:window-height="848"
     inkscape:window-x="67"
     inkscape:window-y="24"
     inkscape:window-maximized="0"
     gridtolerance="3">
    <inkscape:grid
       type="xygrid"
       id="grid4267"
       empspacing="5"
       visible="true"
       enabled="true"
       snapvisiblegridlinesonly="true" />
  </sodipodi:namedview>
  <metadata
     id="metadata4">
    <rdf:RDF>
      <cc:Work
         rdf:about="">
        <dc:format>image/svg+xml</dc:format>
        <dc:type
           rdf:resource="http://purl.org/dc/dcmitype/StillImage" />
        <dc:title></dc:title>
      </cc:Work>
    </rdf:RDF>
  </metadata>
  <g
     inkscape:label="Layer 1"
     inkscape:groupmode="layer"
     id="layer1"
     transform="translate(0,-308.26769)">
    <flowRoot
       xml:space="preserve"
       id="flowRoot4187"
       style="font-size:40px;font-style:normal;font-weight:normal;text-align:center;line-height:125%;letter-spacing:0px;word-spacing:0px;text-anchor:middle;fill:#000000;fill-opacity:1;stroke:none;font-family:Sans"
       transform="translate(-96.4375,230.24068)"><flowRegion
         id="flowRegion4189"><rect
           id="rect4191"
           width="531.25018"
           height="70.472771"
           x="94.219025"
           y="116.6479"
           style="text-align:center;text-anchor:middle" /></flowRegion><flowPara
         id="flowPara4193"
         style="font-size:48px;font-style:italic;font-variant:normal;font-weight:normal;font-stretch:normal;text-align:center;text-anchor:middle;font-family:Cookie;-inkscape-font-specification:Cookie Italic;fill:#333333">Bedankt Juf Anna</flowPara></flowRoot>    <flowRoot
       xml:space="preserve"
       id="flowRoot4195"
       style="font-size:40px;font-style:normal;font-weight:normal;line-height:125%;letter-spacing:0px;word-spacing:0px;fill:#000000;fill-opacity:1;stroke:none;font-family:Sans"
       transform="translate(-111.63281,30.546851)"><flowRegion
         id="flowRegion4197"><rect
           id="rect4199"
           width="524.28564"
           height="118.5714"
           x="110"
           y="932.36218" /></flowRegion><flowPara
         id="flowPara4201"
         style="font-style:normal;font-variant:normal;font-weight:300;font-stretch:normal;text-align:center;text-anchor:middle;font-family:Raleway;-inkscape-font-specification:Raleway Light"><flowSpan
           style="font-size:32px"
           id="flowSpan6491">Groep 3a </flowSpan></flowPara><flowPara
         id="flowPara4207" /><flowPara
         id="flowPara4205">2016</flowPara></flowRoot>    <text
       xml:space="preserve"
       style="font-size:40px;font-style:normal;font-weight:normal;line-height:125%;letter-spacing:0px;word-spacing:0px;fill:#000000;fill-opacity:1;stroke:none;font-family:Sans"
       x="260"
       y="1024.3622"
       id="text4219"
       sodipodi:linespacing="125%"><tspan
         sodipodi:role="line"
         id="tspan4221"
         x="260"
         y="1024.3622"
         style="font-size:28px;font-style:normal;font-variant:normal;font-weight:300;font-stretch:normal;text-align:center;text-anchor:middle;font-family:Raleway;-inkscape-font-specification:Raleway Light">2016-2017</tspan></text>
    <flowRoot
       xml:space="preserve"
       id="flowRoot6475"
       style="font-size:10px;font-style:normal;font-weight:normal;line-height:125%;letter-spacing:0px;word-spacing:0px;fill:#000000;fill-opacity:1;stroke:none;font-family:Sans"
       transform="translate(-466.10044,157.57633)"><flowRegion
         id="flowRegion6477"><rect
           id="rect6479"
           width="103.57143"
           height="13.571411"
           x="472.14285"
           y="903.79077" /></flowRegion><flowPara
         id="flowPara6481"
         style="font-size:8px;font-style:normal;font-variant:normal;font-weight:normal;font-stretch:normal;font-family:Oxygen;-inkscape-font-specification:Oxygen">juffenkado.nl</flowPara></flowRoot>    <g
       id="g7080"
       transform="translate(0,32)">
      <g
         transform="matrix(0.84623943,0,0,0.80726701,-49.043021,201.04349)"
         id="g6483">
        <path
           inkscape:connector-curvature="0"
           id="path212"
           style="fill:#333333;fill-opacity:1;fill-rule:nonzero;stroke:none"
           d="m 314.63612,763.3677 c 6.46777,19.51208 12.93402,39.02709 19.54028,58.49672 0.7107,2.09628 1.41987,4.19256 2.15339,6.28152 0.17501,0.49772 0.33785,1.2077 0.59351,1.82839 -3.63717,0.0864 -8.13265,0.19469 -13.08621,0.31327 -2.62819,-17.39092 -12.21267,-32.61383 -25.95479,-42.9664 0.34545,-0.44502 0.68939,-0.89004 1.03332,-1.33506 4.67202,3.51478 8.87531,7.57705 12.50791,12.0902 0.17197,0.21372 0.36524,0.40403 0.57221,0.57091 0.31198,0.25033 0.65895,0.44649 1.02571,0.58702 0.12175,0.0468 0.24502,0.0878 0.37133,0.1215 0.37589,0.10247 0.76548,0.14785 1.15203,0.13468 0.90244,-0.0308 1.79119,-0.38208 2.46079,-1.07742 l 0.029,-0.0307 c -0.41698,-0.57238 -0.84309,-1.14037 -1.27529,-1.70103 -0.1598,-0.20641 -0.32568,-0.40696 -0.48699,-0.61191 -0.27545,-0.34986 -0.5509,-0.7012 -0.83396,-1.04667 -0.20545,-0.25033 -0.4185,-0.49772 -0.62852,-0.74658 -0.24501,-0.29131 -0.4885,-0.58409 -0.73961,-0.87248 -0.23588,-0.27081 -0.47785,-0.53724 -0.7183,-0.80659 -0.2298,-0.25618 -0.45655,-0.51383 -0.69091,-0.76708 -0.26328,-0.28692 -0.53264,-0.56945 -0.80048,-0.85198 -0.2161,-0.2269 -0.43068,-0.45527 -0.64982,-0.67924 -0.28915,-0.29863 -0.58439,-0.59141 -0.87962,-0.88418 -0.20393,-0.20056 -0.40481,-0.40404 -0.61178,-0.60312 -0.31501,-0.30595 -0.6346,-0.60605 -0.95418,-0.90761 -0.19175,-0.17859 -0.38198,-0.35719 -0.57373,-0.53432 -0.34089,-0.31327 -0.68635,-0.62068 -1.03332,-0.92663 -0.17806,-0.15664 -0.35459,-0.31327 -0.53264,-0.46845 -0.36829,-0.31912 -0.73809,-0.63239 -1.11246,-0.94274 -0.16284,-0.13614 -0.32567,-0.27228 -0.48851,-0.40549 -0.39415,-0.32352 -0.79135,-0.64118 -1.19159,-0.95592 -0.14762,-0.11558 -0.29676,-0.23129 -0.4459,-0.34694 -0.29371,-0.22836 -0.58742,-0.45526 -0.88418,-0.67924 2.57189,-3.32301 5.14378,-6.64749 7.71567,-9.97196 2.4958,-3.22347 3.4576,-4.46631 5.9534,-7.69124 l -0.53568,-1.6132 0,0 z m 205.69042,113.97638 -0.011,-0.0117 c 3.7437,-3.34643 7.04759,-7.13789 9.83406,-11.2836 l 0.0199,0.0132 c -2.78647,4.14865 -6.09341,7.93864 -9.84319,11.28214 z m 18.2513,-30.80154 -0.011,-0.002 c 0.31958,-1.42728 0.57982,-2.8736 0.78983,-4.33748 l 0.006,10e-4 c -0.2085,1.46388 -0.46721,2.91166 -0.78527,4.33895 z m -5.39793,14.51293 -0.0213,-0.008 c 2.31927,-4.33016 4.09523,-8.96774 5.24726,-13.83515 l 0.011,0.004 c -1.14746,4.8718 -2.92039,9.51084 -5.23661,13.841 z m -23.93837,-9.9544 21.2006,9.49035 c -0.64678,1.16525 -1.33617,2.30415 -2.0636,3.42109 l -19.137,-12.91144 z m 5.53183,27.45218 -13.3936,-18.43174 16.54684,15.89191 c -1.01659,0.88418 -2.07425,1.72445 -3.15324,2.53983 z m 1.51576,2.08457 -0.005,-0.006 c 1.20378,-0.90321 2.38015,-1.83717 3.50933,-2.82383 l 0.009,0.008 c -1.13072,0.98519 -2.30862,1.91915 -3.51391,2.8209 z m -0.56918,0.4216 0.002,0.006 c -0.91615,0.67046 -1.84751,1.32189 -2.8032,1.94257 0.95569,-0.62215 1.88401,-1.2765 2.80015,-1.94842 z m -6.24559,-42.04123 -18.81131,-4.86448 18.81131,-4.86302 27.35642,-2.28219 c 0.30588,2.3305 0.48088,4.70053 0.48088,7.10861 0,2.43444 -0.17957,4.82789 -0.49155,7.18181 l -27.34575,-2.28073 z m 3.95524,1.02179 23.30072,1.94403 c -0.19175,1.31311 -0.42459,2.61303 -0.70917,3.89686 l -22.59155,-5.84089 z m -23.48639,-1.95868 19.40484,1.61759 26.51179,6.85536 c -1.10942,4.72541 -2.83365,9.22539 -5.09052,13.42234 L 505.88893,848.83937 489.94321,838.0813 z m -4.87746,-0.40695 3.4515,0.28838 13.65994,9.21514 -15.12546,-6.77192 -1.98598,-2.7316 z m -1.8749,1.00422 -0.33023,-1.18867 1.27377,0.10692 1.61922,2.22803 -2.56276,-1.14622 z m 1.13529,4.08862 -0.89484,-3.22054 3.14106,1.40679 9.55861,13.15152 -11.80483,-11.33777 z m 5.3964,19.43303 -5.0266,-18.10236 13.78321,13.23788 15.72962,21.64496 c -3.92479,2.88824 -8.23005,5.32122 -12.84119,7.19352 l -11.64504,-23.974 z m 1.05767,3.8061 9.91929,20.42262 c -1.26769,0.49772 -2.5582,0.95298 -3.86849,1.3658 l -6.0508,-21.78842 z m -11.69221,-1.88109 1.71206,-18.66303 8.24527,16.97371 7.1039,25.58134 c -4.65832,1.40679 -9.5647,2.26901 -14.64,2.50763 L 479.088,864.12523 z m -0.36067,3.92467 2.0636,22.49254 c -0.72896,0.0263 -1.45791,0.0542 -2.19448,0.0542 -0.6483,0 -1.29051,-0.0263 -1.93424,-0.0468 l 2.06512,-22.49986 z m -17.44169,20.03908 7.12369,-25.65307 8.24527,-16.97371 1.71205,18.66303 -2.42275,26.40697 c -5.07834,-0.21812 -9.99233,-1.05546 -14.65826,-2.44322 z m -9.36077,-38.64941 17.65931,-7.90497 -11.1611,15.35612 -19.54789,18.77429 c -3.65696,-3.23811 -6.88019,-6.92123 -9.59209,-10.9513 l 22.64177,-15.27414 z m -3.71174,1.6615 -19.31657,13.03148 c -0.73657,-1.12426 -1.43966,-2.27195 -2.09404,-3.44744 l 21.41061,-9.58404 z m 0,-33.89326 -21.44257,-9.59867 c 0.65439,-1.17843 1.35443,-2.32904 2.09099,-3.45623 l 19.35158,13.0549 z m -9.37599,-24.602 16.5575,15.90361 c 0.3622,0.5431 0.72896,1.08913 1.10333,1.64541 3.87001,5.73695 8.06417,11.26603 12.69053,16.44232 l -17.26363,-7.72783 -22.67525,-15.29757 c 2.70886,-4.03592 5.93057,-7.72198 9.58752,-10.96594 z m 12.91729,9.63527 c 0.5996,1.29407 1.27834,2.52373 2.01642,3.73144 l -14.40411,-13.83369 c 1.02876,-0.89004 2.09556,-1.73909 3.18671,-2.5574 l 9.20098,12.65965 z m -1.10941,-2.73307 -7.52545,-10.35403 c 0.99528,-0.72902 2.01338,-1.42729 3.05735,-2.09482 1.43813,4.16914 2.92344,8.32071 4.4681,12.44885 z m 27.72163,4.67564 -1.71205,18.66303 -8.24527,-16.97371 -7.14347,-25.72187 c 4.67049,-1.39069 9.58905,-2.22949 14.67196,-2.44761 l 2.42883,26.48016 z m 0.36068,-3.92466 -2.07121,-22.57306 c 0.64525,-0.0205 1.29051,-0.0482 1.94033,-0.0482 0.73809,0 1.47009,0.0277 2.20209,0.0541 l -2.07121,22.56721 z m 10.318,5.61398 -8.24527,16.97371 -1.71206,-18.66303 2.42884,-26.4743 c 5.07834,0.24007 9.98929,1.10523 14.65065,2.51495 l -7.12216,25.64867 z m 12.33442,2.3144 13.42862,-18.48005 c 1.0805,0.81831 2.14122,1.66005 3.15932,2.54716 l -16.58794,15.93289 z m 7.86177,9.02044 19.17201,-12.9334 c 0.72591,1.11695 1.41378,2.26024 2.05903,3.42842 l -21.23104,9.50498 z m 26.79637,5.21581 c 0.28306,1.28383 0.51134,2.58668 0.70156,3.90125 l -23.30985,1.94403 22.60829,-5.84528 z m -46.09468,7.80396 15.94572,-10.75807 24.91235,-11.15185 c 2.2523,4.20134 3.97197,8.70424 5.0753,13.43258 l -26.52853,6.85828 -19.40484,1.61906 z m -4.0085,2.70379 2.83669,-1.9133 16.62294,-1.38629 -16.11313,4.16474 -3.3465,-0.86515 z m -0.76548,1.92939 -1.04702,-0.70705 1.04702,-0.70559 2.73016,0.70559 -2.73016,0.70705 z m 0.76548,0.51675 3.3465,-0.86661 16.11313,4.1662 -16.62294,-1.38629 -2.83669,-1.9133 z m -2.13665,0.55189 1.23421,-0.31913 2.3147,1.56196 -2.81691,-0.23568 -0.732,-1.00715 z m -0.36676,0.7012 0.16588,0.22836 -0.29371,-0.0249 c 0.0426,-0.0673 0.0883,-0.13321 0.12783,-0.20348 z m -1.35443,1.54878 c 0.0639,-0.0498 0.12632,-0.10247 0.18871,-0.15517 l 0.0761,0.27375 -0.2648,-0.11858 z m -0.76395,1.69372 0.11261,-1.22381 1.15811,0.51822 0.72896,2.6262 -1.99968,-1.92061 z m -0.0822,0.89736 2.45166,2.35392 4.30526,15.50397 -7.06129,-14.53781 0.30437,-3.32008 z m -2.10774,-0.39086 0.54177,-1.11401 0.90397,0.86808 -0.24806,2.70964 -1.19768,-2.46371 z m -0.39567,0.81538 1.46704,3.01999 -1.46704,15.98559 -1.46705,-15.98559 1.46705,-3.01999 z m -1.84142,-1.05985 0.90397,-0.86954 0.54177,1.11401 -1.19768,2.46371 -0.24806,-2.70818 z m -3.11366,2.99071 2.45167,-2.35538 0.30436,3.32008 -7.06128,14.53781 4.30525,-15.50251 z m 0.2511,-3.57919 -0.89483,3.222 -11.80483,11.33631 9.55861,-13.15152 3.14105,-1.40679 z m -0.70156,-1.94989 1.27225,-0.10692 -0.33024,1.18867 -2.56124,1.14622 1.61924,-2.22803 z m -4.38439,0.36597 3.45151,-0.28838 -1.98599,2.7316 -15.12546,6.77192 13.65994,-9.21514 z m -20.8308,1.73616 19.40485,-1.61759 -15.94573,10.75807 -25.09039,11.23091 c -2.2721,-4.20427 -4.0085,-8.71596 -5.12553,-13.45308 l 26.7568,-6.91831 z m -4.08002,0.34109 -22.83809,5.90384 c -0.28915,-1.297 -0.52807,-2.61011 -0.72135,-3.93931 l 23.55944,-1.96453 z m 0,-11.77108 -23.56857,-1.96599 c 0.19175,-1.3292 0.42611,-2.64523 0.71375,-3.9437 l 22.85482,5.90969 z m 23.48487,1.95868 -19.40485,-1.61906 -26.77354,-6.92123 c 1.11094,-4.74151 2.84278,-9.25466 5.11031,-13.46332 l 25.12235,11.24554 15.94573,10.75807 z m 2.96604,-2.22217 1.91142,2.62913 -3.45151,-0.28839 -13.65994,-9.21513 15.0935,6.75581 c 0.0351,0.0396 0.0716,0.0791 0.10653,0.11858 z m 5.74644,-0.46698 -2.45168,-2.35539 -4.30525,-15.50397 7.0613,14.53927 -0.30437,3.32009 z m 2.10772,0.39085 -0.54177,1.11255 -0.90397,-0.86808 0.24808,-2.70818 1.19766,2.46371 z m 0.39568,-0.81538 -1.46705,-3.01999 1.46705,-15.98705 1.46704,15.98705 -1.46704,3.01999 z m 1.84141,1.05985 -0.90397,0.86955 -0.54177,-1.11402 1.19768,-2.46371 0.24806,2.70818 z m 3.11366,-2.99071 -2.45166,2.35539 -0.30437,-3.32009 7.06129,-14.53927 -4.30526,15.50397 z m -0.2511,3.57773 0.89484,-3.21908 11.80483,-11.33776 -9.55861,13.15151 -3.14106,1.40533 z m 0.70309,1.95135 -1.27377,0.1054 0.33023,-1.18721 2.56276,-1.14768 -1.61922,2.22949 z m 0.93136,-0.0775 1.98598,-2.73307 15.12546,-6.77046 -13.65994,9.21514 -3.4515,0.28839 z m -1.26769,1.74494 0.732,-1.00861 2.81691,-0.23422 -2.3147,1.56196 -1.23421,-0.31913 z m 0.18719,0.76269 0.28001,0.0732 -0.24197,0.16249 c -0.0122,-0.0775 -0.0213,-0.1581 -0.038,-0.23568 z m 0.038,1.7874 0.24197,0.16395 -0.28001,0.0732 c 0.0167,-0.0775 0.0259,-0.15809 0.038,-0.23714 z m -3.3465,4.02567 -0.0259,0.28253 -0.20697,-0.19909 c 0.0776,-0.0264 0.15523,-0.0541 0.23284,-0.0834 z m -1.94946,0.35719 c 0.0426,0 0.0836,-0.005 0.12479,-0.006 l -0.12479,0.25765 -0.12479,-0.25765 c 0.041,10e-4 0.0822,0.006 0.12479,0.006 z m -1.94947,-0.35719 c 0.0776,0.0293 0.15523,0.057 0.23437,0.0834 l -0.20849,0.19909 -0.0258,-0.28253 z m -0.74874,-0.30595 0.11262,1.2238 -1.99968,1.92208 0.72895,-2.62767 1.15811,-0.51821 z m -0.84005,-0.62654 c 0.0623,0.0542 0.12479,0.10692 0.18871,0.15663 l -0.2648,0.11858 0.0761,-0.27521 z m -1.16572,-1.39215 c 0.0396,0.0703 0.0852,0.13614 0.12936,0.20348 l -0.29524,0.0249 0.16588,-0.22837 z m -1.60096,-1.02033 1.2342,0.31913 -0.732,1.00715 -2.8169,0.23568 2.3147,-1.56196 z m -0.90245,-0.23276 -2.83669,1.9133 -16.62293,1.38629 16.11312,-4.1662 3.3465,0.86661 z m 0.76548,-1.92939 1.04702,0.70559 -1.04702,0.70705 -2.73016,-0.70705 2.73016,-0.70559 z m -0.76548,-0.51675 -3.3465,0.86515 -16.11312,-4.16474 16.62293,1.38629 2.83669,1.9133 z m 2.13665,-0.55189 -1.2342,0.31913 -2.3147,-1.56196 2.8169,0.23422 0.732,1.00861 z m -0.47176,-6.63285 c -0.41242,-0.44794 -0.83245,-0.88857 -1.23877,-1.34091 l 1.18246,1.13451 0.0562,0.2064 z m 2.92343,3.05513 c -0.62547,-0.63094 -1.25094,-1.26333 -1.8612,-1.90744 l -0.10506,-0.38061 1.99968,1.92061 -0.0335,0.36744 z m 0.6696,0.55042 0.0258,-0.28107 0.20849,0.19909 c -0.0791,0.0263 -0.15674,0.0527 -0.23436,0.082 z m 1.94947,-0.35719 c -0.0426,0 -0.0836,0.006 -0.12479,0.007 l 0.12479,-0.25764 0.12479,0.25764 c -0.041,-10e-4 -0.0822,-0.007 -0.12479,-0.007 z m 1.94946,0.35719 c -0.0776,-0.0293 -0.15523,-0.0556 -0.23284,-0.082 l 0.20697,-0.19909 0.0259,0.28107 z m 0.74874,0.30741 -0.11262,-1.22381 1.99969,-1.92207 -0.72896,2.62767 -1.15811,0.51821 z m 0.84005,0.62508 c -0.0625,-0.0527 -0.12479,-0.1054 -0.18871,-0.15517 l 0.2648,-0.12004 -0.0761,0.27521 z m 1.03789,1.18867 0.29371,-0.0248 -0.16588,0.22983 c -0.0396,-0.0703 -0.0852,-0.13614 -0.12783,-0.20494 z m -9.83406,3.69337 -0.28002,-0.0732 0.24197,-0.16395 c 0.0122,0.079 0.0213,0.15956 0.038,0.23714 z m -0.038,-1.7874 -0.24197,-0.16395 0.28002,-0.0732 c -0.0168,0.0775 -0.0259,0.15809 -0.038,0.23714 z m 17.34885,-31.07821 6.06906,-21.85429 c 1.31486,0.41427 2.60841,0.871 3.88066,1.37019 l -9.94972,20.4841 z m 10.61781,-20.22939 c 4.61418,1.8767 8.91944,4.31406 12.84576,7.20816 l -15.76463,21.69327 -13.78321,13.23788 5.0266,-18.10383 11.67548,-24.03548 z m -44.71439,-0.33815 c 1.27986,-0.49626 2.57798,-0.95445 3.90045,-1.3658 l 6.09036,21.93334 -9.99081,-20.56754 z m 11.04848,24.37363 5.0266,18.10237 -5.24726,-5.04015 c -2.53689,-3.14588 -4.93986,-6.39716 -7.2226,-9.73628 -2.16861,-3.17077 -4.44679,-6.26541 -5.66882,-9.45375 -1.87641,-4.89522 -3.55347,-9.86656 -5.20617,-14.83937 2.12295,-1.1755 4.32351,-2.23535 6.60169,-3.15174 l 11.71656,24.11892 z m -47.84934,28.00992 c 0,-2.4154 0.17654,-4.79275 0.48395,-7.1291 l 27.61358,2.30268 18.81133,4.86302 -18.81133,4.86448 -27.60445,2.30122 c -0.3135,-2.35978 -0.49308,-4.76054 -0.49308,-7.2023 z m 22.70569,44.5635 c -1.08963,-0.81685 -2.15491,-1.66297 -3.18062,-2.55009 l 16.6686,-16.00901 -13.48798,18.5591 z m 24.08599,-12.67429 -6.07209,21.866 c -1.31791,-0.40842 -2.61299,-0.86515 -3.88828,-1.35994 l 9.96037,-20.50606 z M 456.046,886.25772 c -4.62636,-1.85767 -8.9514,-4.27014 -12.89294,-7.1496 l 15.82246,-21.77232 13.78321,-13.23642 -5.02661,18.1009 -11.68612,24.05744 z m 71.97947,-82.56441 -22.4972,15.17607 -17.65626,7.90496 11.15957,-15.35612 19.45963,-18.69085 c 3.63717,3.24689 6.84215,6.93295 9.53426,10.96594 z m 11.92201,30.46046 c 0,2.49592 -0.1811,4.95085 -0.49459,7.36479 l -0.006,-10e-4 c 0.31654,-2.4198 0.49916,-4.88059 0.49916,-7.3809 0,0.006 10e-4,0.0117 10e-4,0.0176 z m -21.49583,41.3898 -19.42007,-18.65279 -11.15957,-15.35612 17.65626,7.9035 22.46372,15.15557 c -2.69516,4.02714 -5.90165,7.70734 -9.54034,10.94984 z m 12.10462,-10.06273 -0.0198,-0.0132 c 0.81266,-1.23991 1.57966,-2.50763 2.29492,-3.80756 l 0.0213,0.0105 c -0.71678,1.30139 -1.48378,2.57058 -2.29644,3.81049 z M 359.55899,833.85069 c -3.77718,-2.5779 -8.38985,-4.10034 -13.37384,-4.10034 -0.0594,0 -0.11712,0.005 -0.17653,0.005 -0.57221,0.0146 -2.49732,0.0601 -5.38271,0.13028 0.0335,-0.31766 -0.029,-0.60165 -0.1537,-0.84612 0.009,-0.0191 -0.0304,-0.11559 -0.1461,-0.25911 -0.0213,-0.0615 -0.0426,-0.12882 -0.0625,-0.21373 -0.12479,-0.53138 -0.37894,-1.06277 -0.55851,-1.57952 -0.65439,-1.86645 -1.28899,-3.73876 -1.92512,-5.61106 -0.3348,-0.98666 -0.66199,-1.97478 -0.99527,-2.96144 35.42057,-9.73481 67.44898,-32.58455 85.34113,-63.80622 2.5445,-4.43996 4.77854,-9.0424 6.70061,-13.76342 0.4322,-1.06131 0.8994,-2.12409 1.26464,-3.21176 1.09268,3.37864 2.18078,6.75875 3.2765,10.13739 1.39856,4.31113 2.77886,8.63397 4.16068,12.95828 -19.9527,18.63668 -39.89323,37.28654 -59.79419,55.97445 -6.01731,5.64913 -12.03158,11.29971 -18.02454,16.97372 -0.0593,0.0556 -0.1019,0.11558 -0.15066,0.1742 z m -62.90024,49.32696 -0.011,-0.0105 c 3.7437,-3.34643 7.04911,-7.13788 9.83406,-11.2836 l 0.0197,0.0131 c -2.78647,4.14718 -6.0934,7.93863 -9.84319,11.28067 z m 18.25129,-30.80154 -0.0109,-0.002 c 0.1324,-0.58994 0.24806,-1.18428 0.36219,-1.78154 l 0.007,10e-4 c -0.11262,0.59726 -0.22676,1.19306 -0.35915,1.78301 z m -5.39792,14.51439 -0.0213,-0.008 c 2.31927,-4.33016 4.09524,-8.96774 5.24727,-13.83514 l 0.0109,0.002 c -1.14745,4.8718 -2.92039,9.51084 -5.23661,13.841 z m -23.93838,-9.9544 21.20061,9.48889 c -0.64678,1.16671 -1.33617,2.30561 -2.0636,3.42109 L 285.57374,856.9361 z m 5.53185,27.45072 -13.39361,-18.43027 16.54684,15.8919 c -1.01658,0.88418 -2.07425,1.72445 -3.15323,2.53837 z m 1.51575,2.08603 -0.005,-0.006 c 1.20376,-0.90468 2.38166,-1.83864 3.50933,-2.82383 l 0.009,0.007 c -1.13072,0.9852 -2.30862,1.91915 -3.51391,2.82237 z m -0.56917,0.4216 0.005,0.006 c -0.91766,0.66899 -1.8475,1.32042 -2.80473,1.9411 0.95571,-0.62215 1.88402,-1.2765 2.80017,-1.94696 z M 255.05955,771.46004 c 15.26242,0 29.40022,4.62147 40.99199,12.48252 -0.34394,0.44502 -0.68787,0.89004 -1.0318,1.33506 -11.30415,-7.65464 -25.08583,-12.15022 -39.96019,-12.15022 -15.58201,0 -29.96634,4.93182 -41.55918,13.26277 -0.35382,-0.43331 -0.70749,-0.86808 -1.06117,-1.30139 11.88701,-8.55347 26.63353,-13.62874 42.62035,-13.62874 z m 43.5791,9.14047 c -0.35002,-0.23861 -0.70461,-0.47429 -1.0592,-0.70705 -0.0913,-0.06 -0.18414,-0.12004 -0.27697,-0.18006 -0.50829,-0.33084 -1.02267,-0.65728 -1.54009,-0.97641 -0.0684,-0.0424 -0.13696,-0.0835 -0.20545,-0.12443 -0.54329,-0.3323 -1.08963,-0.66021 -1.64357,-0.97933 -0.0396,-0.0234 -0.0791,-0.0454 -0.1187,-0.0673 -9.03206,-5.19825 -19.28462,-8.63252 -30.24788,-9.81094 1.40769,0 2.81691,0 4.22612,0 6.52256,0 13.04512,0 19.56768,0 6.50734,0 12.32681,0.51236 16.60163,5.99167 -1.76836,2.28512 -3.53521,4.56877 -5.30357,6.85389 z m -7.77198,65.55996 21.80476,3.96126 c -0.10044,0.53286 -0.20088,1.06571 -0.31806,1.59417 l -21.4867,-5.55543 z m -24.59124,-2.2456 19.40484,1.61906 26.51179,6.85389 c -1.10942,4.72541 -2.83365,9.22539 -5.09052,13.4238 l -24.87886,-11.13721 -15.94725,-10.75954 z m -4.87746,-0.40549 3.45303,0.28692 13.65841,9.21514 -15.12546,-6.77046 -1.98598,-2.7316 z m -1.8749,1.00276 -0.33023,-1.18721 1.27225,0.1054 1.62074,2.22949 -2.56276,-1.14768 z m 1.13529,4.09008 -0.89332,-3.22054 3.13954,1.40533 9.55861,13.15298 -11.80483,-11.33777 z m 5.3964,19.43157 -5.0266,-18.1009 13.78321,13.23789 15.72962,21.64349 c -3.92327,2.88971 -8.23005,5.32121 -12.84119,7.19498 l -11.64504,-23.97546 z m 1.05615,3.8061 9.92081,20.42262 c -1.26769,0.49772 -2.5582,0.95298 -3.87001,1.36726 l -6.0508,-21.78988 z m -11.69069,-1.87963 1.71206,-18.66449 8.24527,16.97225 7.1039,25.5828 c -4.65832,1.40679 -9.5647,2.26901 -14.63848,2.50909 l -2.42275,-26.39965 z m -0.36067,3.92321 2.06512,22.49401 c -0.73048,0.0264 -1.45943,0.0541 -2.196,0.0541 -0.6483,0 -1.29051,-0.0277 -1.93272,-0.0483 l 2.0636,-22.49986 z m -17.44168,20.03908 7.12368,-25.65307 8.24527,-16.97371 1.71358,18.66449 -2.42428,26.40551 c -5.07834,-0.21812 -9.99233,-1.05546 -14.65825,-2.44322 z m -9.36078,-38.64941 17.65931,-7.90497 -11.1611,15.35759 -19.54637,18.77428 c -3.65848,-3.2381 -6.8811,-6.92123 -9.593,-10.9513 l 22.64116,-15.2756 z m -3.71174,1.66296 -19.31704,13.03148 c -0.73717,-1.12426 -1.43858,-2.27194 -2.09373,-3.44744 l 21.41077,-9.58404 z m 0,-33.89472 -21.44227,-9.59721 c 0.65454,-1.17989 1.35488,-2.3305 2.0913,-3.45769 l 19.35097,13.0549 z m 3.11975,-13.73853 c 0.20393,0.25032 0.40785,0.50065 0.6133,0.75097 L 215.69896,797.9724 c 0.52199,-0.45234 1.05463,-0.89443 1.59336,-1.32774 3.46063,4.21744 6.92584,8.43196 10.37278,12.65819 z m 71.82425,21.5703 c -10.19017,0.24447 -19.88118,0.47723 -26.46461,0.63532 l 9.19794,-6.20539 24.91082,-11.15039 c 2.2523,4.19988 3.97197,8.70424 5.0753,13.43258 l -12.71945,3.28788 z m 3.04822,-0.0732 9.83254,-2.54277 c 0.1674,0.75976 0.31045,1.52537 0.4459,2.29537 -3.38912,0.082 -6.84671,0.16542 -10.27844,0.2474 z m -40.27064,10.41112 0.52808,-0.13614 c 0.53872,0.19031 1.11854,0.3001 1.72727,0.3001 l 17.04753,3.09611 0.15675,0.041 -16.62294,-1.3863 -2.83669,-1.91476 z m -2.13665,0.55335 1.23421,-0.31912 2.3147,1.56049 -2.81691,-0.23422 -0.732,-1.00715 z m -1.27833,0.32938 0.54025,-0.13907 0.5372,0.73926 -0.93288,-0.0775 -0.14457,-0.52261 z m -0.91462,0.4333 0.0183,-0.20055 0.2024,-0.0527 0.0776,0.27814 -0.29828,-0.0249 z m -0.11262,1.22527 0.0502,-0.53724 0.55699,0.0468 0.24349,0.87101 -0.8507,-0.38061 z m -0.17957,1.95575 0.11261,-1.22527 1.15811,0.51822 0.72896,2.62766 -1.99968,-1.92061 z m -0.0822,0.89736 2.45166,2.35392 4.30526,15.50251 -7.06129,-14.53781 0.30437,-3.31862 z m -2.10774,-0.39232 0.54178,-1.11255 0.90396,0.86808 -0.24806,2.70965 -1.19768,-2.46518 z m -0.39567,0.81538 1.46704,3.01999 -1.46704,15.98706 -1.46704,-15.98706 1.46704,-3.01999 z m -1.84141,-1.05985 0.90548,-0.86808 0.54025,1.11255 -1.19615,2.46518 -0.24958,-2.70965 z m -3.11367,2.99071 2.45167,-2.35538 0.30589,3.32008 -7.06281,14.53928 4.30525,-15.50398 z m 0.2511,-3.57773 -0.89483,3.22054 -11.80483,11.33777 9.55861,-13.15298 3.14105,-1.40533 z m -0.70156,-1.95135 1.27225,-0.1054 -0.33024,1.18721 -2.56276,1.14768 1.62075,-2.22949 z m -4.38439,0.36597 3.45151,-0.28692 -1.98599,2.7316 -15.12546,6.77046 13.65994,-9.21514 z m -20.8308,1.73763 19.40485,-1.61906 -15.94573,10.75954 -25.09025,11.2309 c -2.2727,-4.20573 -4.0085,-8.71595 -5.12613,-13.45308 l 26.75726,-6.9183 z m -4.08154,0.34108 -22.83734,5.90384 c -0.28838,-1.297 -0.52669,-2.61157 -0.72058,-3.93931 l 23.55792,-1.96453 z m 0,-11.77254 -23.56735,-1.96599 c 0.19205,-1.32774 0.42626,-2.64377 0.71327,-3.94223 l 22.85408,5.90822 z m 23.48639,1.95868 -19.40485,-1.61759 -26.77384,-6.9227 c 1.11169,-4.74005 2.84323,-9.25466 5.11061,-13.46332 l 25.12235,11.24554 15.94573,10.75807 z m 4.87746,0.40696 -3.45151,-0.28692 -13.65994,-9.21514 15.12546,6.77045 1.98599,2.73161 z m -0.63004,-2.12556 c 0.60417,0.74219 1.20986,1.48291 1.81402,2.2251 l -0.2511,-0.0205 -1.62075,-2.2295 0.0578,0.0249 z m -4.02676,-22.40032 5.01747,18.06577 c -9.65448,-11.83403 -19.30896,-23.66951 -28.96193,-35.50353 3.76044,-2.67305 7.86025,-4.9245 12.2279,-6.68263 l 11.71656,24.12039 z m -7.14803,-25.73944 6.09036,21.93334 -9.98928,-20.56754 c 1.27833,-0.49772 2.57797,-0.95445 3.89892,-1.3658 z m 24.47862,42.52284 4.65984,-16.78194 11.67548,-24.03694 c 3.82283,1.55464 7.43261,3.50014 10.79281,5.76477 -9.04271,11.6847 -18.08542,23.36941 -27.12813,35.05411 z m 16.31706,-14.70469 7.58479,-10.43601 c 2.02708,-2.62035 4.05568,-5.2407 6.08275,-7.86105 0.99832,0.76122 1.97686,1.54439 2.92039,2.36563 l -16.58793,15.93143 z m -9.61644,17.60611 10.41387,-4.661 -6.77975,4.57317 c -1.39247,0.0337 -2.60841,0.063 -3.63412,0.0878 z m -7.64111,8.36169 0.33328,-0.22397 c 0.30285,0.32498 0.64982,0.61044 1.03333,0.84759 l -0.31959,0.082 -1.04702,-0.70559 z m -1.08354,0.73048 0.45959,-0.30888 0.76853,0.51822 -0.90549,0.23422 -0.32263,-0.44356 z m -0.75939,0.51236 0.17196,-0.11559 0.17197,0.23715 -0.28915,0.0746 -0.0548,-0.19616 z m -1.75011,2.08896 0.0883,-0.18299 0.21001,0.0176 -0.0259,0.28692 -0.27241,-0.1215 z m -0.30436,0.62508 0.50829,0.22836 -0.0822,0.89883 -0.66352,-0.63826 0.23741,-0.48893 z m -0.98919,-0.23276 0.14914,-0.14346 0.19023,0.0849 -0.12784,0.26204 -0.21153,-0.20348 z m -0.50829,0.48747 0.3972,0.38207 -0.3972,0.81539 -0.3972,-0.81685 0.3972,-0.38061 z m -0.84614,-0.54603 0.18871,-0.0849 0.14914,0.14346 -0.21154,0.20348 -0.12631,-0.26204 z m -1.15963,0.51968 0.50829,-0.22836 0.2374,0.48893 -0.66351,0.63679 -0.0822,-0.89736 z m -0.69243,0.30888 0.11261,1.22527 -1.99968,1.92061 0.72895,-2.62766 1.15812,-0.51822 z m -0.11566,-1.26772 0.0487,0.53724 -0.84919,0.38061 0.24198,-0.87101 0.55851,-0.0468 z m -0.28459,-0.94128 0.20241,0.0527 0.0197,0.20055 -0.2998,0.0249 0.0776,-0.27814 z m -1.2342,-0.31912 0.54177,0.13907 -0.14457,0.5226 -0.9344,0.0775 0.5372,-0.73926 z m -1.97077,-0.50943 1.23268,0.31912 -0.732,1.00715 -2.81538,0.23422 2.3147,-1.56049 z m -0.90396,-0.23423 -2.83669,1.91476 -16.62142,1.3863 16.1116,-4.16621 3.34651,0.86515 z m 0.767,-1.92793 1.04549,0.70559 -1.04549,0.70559 -2.73169,-0.70559 2.73169,-0.70559 z m -0.767,-0.51675 -3.34651,0.86516 -16.1116,-4.16621 16.62142,1.38629 2.83669,1.91476 z m 2.13664,-0.55335 -1.23268,0.31913 -2.3147,-1.5605 2.81538,0.23422 0.732,1.00715 z m 1.03941,-0.26789 -0.30132,0.0775 -0.5372,-0.73926 0.3211,0.0263 c 0.17349,0.21226 0.34546,0.42306 0.51742,0.63533 z m 1.83381,-7.89178 -0.30589,3.32008 -2.45167,-2.35539 -4.30525,-15.50397 7.06281,14.53928 z m -0.59199,-46.51632 2.43036,26.48016 -1.71358,18.6645 -8.24527,-16.97371 -7.14195,-25.72187 c 4.66897,-1.39069 9.58753,-2.2295 14.67044,-2.44908 z m 20.91145,2.74332 c 1.31486,0.41427 2.60841,0.87247 3.88066,1.37165 l -9.95124,20.48557 6.07058,-21.85722 z m -18.12194,19.81364 -2.07121,-22.57453 c 0.64525,-0.0205 1.29051,-0.0468 1.94033,-0.0468 0.73961,0 1.47009,0.0279 2.20209,0.0541 l -2.07121,22.5672 z m 2.07273,22.5877 -1.71206,-18.6645 2.42884,-26.47284 c 5.07835,0.24008 9.98929,1.10523 14.65065,2.51349 l -7.12216,25.6516 -8.24527,16.97225 z m 3.10301,1.54147 c -0.58438,0.75682 -1.17029,1.51219 -1.75619,2.26901 l -0.91614,0.8798 -0.30437,-3.31862 7.06129,-14.53782 -4.08459,14.70763 z m 3.71935,1.52243 c -0.17501,0.019 -0.34698,0.0468 -0.5159,0.0834 2.49428,-3.22347 4.98856,-6.44694 7.48283,-9.67041 l -6.96693,9.58696 z m -4.58375,7.51265 0.32263,-0.44356 0.47024,0.1215 c 0.0578,0.0966 0.11566,0.19323 0.17958,0.28546 l -0.51286,0.34548 -0.45959,-0.30888 z m -0.53112,0.73047 0.12017,-0.16542 0.24653,0.16542 -0.24653,0.16542 -0.12017,-0.16542 z m -5.67033,3.14881 0.0898,0.18299 -0.27241,0.1215 -0.0259,-0.28692 0.20849,-0.0176 z m -1.83381,-2.02162 0.17197,0.11559 -0.0548,0.19616 -0.28914,-0.0746 0.17196,-0.23715 z m -0.58742,-0.39671 -0.32263,0.44356 -0.90397,-0.23422 0.767,-0.51822 0.4596,0.30888 z m 0.41089,-0.8959 0.12016,0.16542 -0.12016,0.16542 -0.24501,-0.16542 0.24501,-0.16542 z m -0.41089,-0.56505 -0.4596,0.30888 -0.767,-0.51822 0.90397,-0.23422 0.32263,0.44356 z m 0.75939,-0.51236 -0.17197,0.11559 -0.17196,-0.23715 0.28914,-0.0746 0.0548,0.19616 z m 2.29187,-3.20298 -0.0761,0.15664 c -0.19784,-0.24301 -0.39567,-0.48601 -0.59351,-0.72755 l 0.006,-0.0659 0.66351,0.63678 z m 0.8644,-1.77861 -0.54025,1.11255 -0.90548,-0.86808 0.24958,-2.70965 1.19615,2.46518 z m 0.39568,-0.81539 -1.46704,-3.01998 1.46704,-15.98706 1.46704,15.98706 -1.46704,3.01998 z m 0.93745,1.92794 -0.54178,-1.11255 1.19768,-2.46518 0.24806,2.70965 -0.90396,0.86808 z m 2.85495,3.00681 0.0548,-0.20055 c 0.0867,-0.11126 0.17349,-0.22398 0.26024,-0.33523 l 0.40328,-0.0337 c 0.0198,0.1215 0.0442,0.24301 0.0746,0.36158 l -0.25262,0.34694 -0.54025,-0.13907 z m -0.24045,0.86223 0.0548,-0.19616 0.28915,0.0746 -0.17197,0.23715 -0.17196,-0.11559 z m -4.06024,-2.48128 -0.14914,0.14346 -0.15827,-0.0718 c -0.007,-0.008 -0.0152,-0.019 -0.0243,-0.0293 l 0.12016,-0.24593 0.21154,0.20348 z m 0.50829,-0.48748 -0.3972,-0.3806 0.3972,-0.81831 0.3972,0.81684 -0.3972,0.38207 z m 1.83076,5.69011 -0.29524,0.284 -0.34089,0.22836 -0.37741,0.16981 -0.40328,0.104 -0.41394,0.0337 -0.41394,-0.0337 -0.40328,-0.104 -0.37742,-0.16981 -0.34241,-0.23129 -0.29371,-0.28107 -0.23741,-0.32937 -0.17653,-0.36158 -0.10811,-0.39085 -0.0365,-0.39672 0.001,-0.0293 c 0.33024,0.40403 0.66048,0.80806 0.98919,1.21209 0.78679,0.9647 2.21122,0.43331 2.81691,-0.3484 0.31197,-0.40404 0.62547,-0.80807 0.93744,-1.2121 l 0.0351,0.37768 -0.0365,0.39672 -0.10811,0.39085 -0.17501,0.35865 -0.24045,0.3323 z m 47.85544,-31.35928 c 0.72591,1.11841 1.41378,2.2617 2.06055,3.42988 l -21.23256,9.50352 19.17201,-12.9334 z m -0.38807,-0.58116 -22.49568,15.17753 -15.56222,6.96662 c -0.662,0.0146 -1.14594,0.0263 -1.43965,0.0337 l 10.50366,-14.4529 19.45963,-18.68939 c 3.63717,3.2469 6.84215,6.93149 9.53426,10.96448 z M 196.2145,839.95214 c 0,-2.41687 0.17714,-4.79275 0.4844,-7.13057 l 27.61359,2.30415 18.81133,4.86301 -18.81133,4.86302 -27.604,2.30269 c -0.31395,-2.36125 -0.49399,-4.76055 -0.49399,-7.2023 z m 22.70615,44.56203 c -1.08963,-0.81685 -2.15491,-1.66151 -3.18062,-2.54862 l 16.66859,-16.00901 -13.48797,18.55763 z m 24.08599,-12.67283 -6.0721,21.86601 c -1.31638,-0.40989 -2.61145,-0.86516 -3.88675,-1.35995 l 9.95885,-20.50606 z m -10.62845,20.25135 c -4.62636,-1.85767 -8.9514,-4.27161 -12.89142,-7.15107 l 15.82094,-21.77085 13.7832,-13.23789 -5.0266,18.10237 -11.68612,24.05744 z m -17.20885,-93.65332 16.78426,16.12173 c 2.58558,3.16931 5.17117,6.33861 7.75676,9.50792 l 6.20602,8.53882 -17.65931,-7.9035 -22.6751,-15.29757 c 2.70901,-4.03592 5.92981,-7.72344 9.58737,-10.9674 z m -9.6866,-21.87772 c -2.65482,-3.60115 -1.1645,-8.48319 3.90091,-8.80671 3.36339,-0.21665 6.81902,0 10.18835,0 8.97879,0 17.9591,0 26.93941,0 -13.69341,1.48291 -26.27742,6.48646 -36.75385,14.04595 -0.415,-0.50797 -0.82924,-1.01594 -1.24364,-1.5239 -1.00577,-1.23259 -2.08779,-2.4359 -3.03118,-3.71534 z m 89.30109,104.81542 -19.42006,-18.65132 -11.16109,-15.35759 17.6593,7.90497 22.4622,15.1541 c -2.69516,4.02714 -5.90165,7.7088 -9.54035,10.94984 z m 12.10463,-10.06126 -0.0197,-0.0131 c 0.81266,-1.23991 1.57966,-2.50763 2.29492,-3.80756 l 0.0213,0.0105 c -0.71678,1.29993 -1.48378,2.56912 -2.29644,3.81049 z M 478.72734,767.29236 c -11.79874,0 -22.90809,2.83115 -32.64171,7.82152 -0.27698,-0.83294 -0.55244,-1.66589 -0.82788,-2.49884 10.21146,-5.17922 21.84128,-8.11576 34.18789,-8.11576 3.26281,0 6.4769,0.20494 9.62862,0.60165 1.39398,0.17567 2.79254,-0.0263 4.02522,-0.56067 0.30893,-0.13321 0.60569,-0.28838 0.89181,-0.46258 0.85373,-0.52407 1.59183,-1.2282 2.1412,-2.09335 l 0.0274,-0.0424 c -0.70004,-0.14785 -1.40465,-0.28692 -2.11078,-0.41574 -0.0745,-0.0132 -0.15066,-0.0248 -0.22371,-0.0381 -4.86224,-0.87394 -9.87971,-1.32042 -15.01588,-1.2809 -12.62053,0.098 -24.48471,3.03756 -34.95185,8.18164 -0.26784,-0.81685 -0.54177,-1.63223 -0.81114,-2.44908 -0.73048,-2.22363 -1.45487,-4.4502 -2.1823,-6.67383 -0.78526,-2.39931 -1.57205,-4.79861 -2.35275,-7.19938 -1.04245,-3.20736 -2.08033,-6.41765 -3.11823,-9.62795 -0.42002,-1.29992 -0.84309,-2.59985 -1.26311,-3.90124 -1.37117,-4.24965 -2.7393,-8.50077 -4.10438,-12.75188 0.10957,-0.0483 0.22067,-0.0952 0.33024,-0.14492 0.83548,-0.37768 0.10811,-1.56782 -0.72439,-1.1916 -0.011,0.005 -0.0213,0.009 -0.0319,0.0146 -0.30436,-0.94567 -0.60874,-1.89134 -0.91159,-2.83554 -1.40159,-4.3653 -2.80016,-8.7306 -4.19416,-13.09736 6.08123,-7.51264 12.16247,-15.02382 18.24217,-22.53646 0.6346,-0.78464 0.80049,-2.19436 -0.3622,-2.70964 -2.93104,-1.297 -5.86056,-2.594 -8.79008,-3.89247 0.0396,-1.37312 -0.73352,-2.67597 -2.58863,-3.00388 -7.80545,-1.37898 -15.60939,-2.75796 -23.41485,-4.13693 -4.51224,-0.79782 -6.44799,5.8526 -1.90687,6.6548 7.80546,1.37898 15.60941,2.75796 23.41488,4.13693 1.13224,0.19909 2.10316,-0.0703 2.84886,-0.59726 2.24774,0.99398 4.49548,1.98942 6.74323,2.98486 -4.88508,6.03558 -9.77015,12.07117 -14.65522,18.10675 0,-1.2765 0,-2.55447 0,-3.83098 0,-0.002 -0.001,-0.005 -0.001,-0.006 0.001,-0.006 0.001,-0.0117 0.001,-0.016 0.007,-0.0805 0.0122,-0.16102 0.0167,-0.24154 0,-0.0249 0.002,-0.0498 0.002,-0.0746 10e-4,-0.0863 0,-0.17127 -0.002,-0.25618 -10e-4,-0.019 -10e-4,-0.0381 -0.002,-0.0556 -0.005,-0.0908 -0.0136,-0.18006 -0.0258,-0.26936 -10e-4,-0.0131 -0.002,-0.0264 -0.005,-0.0395 -0.0136,-0.0937 -0.0304,-0.18592 -0.0502,-0.27814 -0.001,-0.006 -0.002,-0.0132 -0.005,-0.0205 -0.0229,-0.0966 -0.0487,-0.1903 -0.0791,-0.28399 0,-10e-4 -10e-4,-0.005 -10e-4,-0.007 -0.37741,-1.15939 -1.37421,-2.02601 -2.998,-1.91914 l 0,0 c -0.0791,0.005 -0.15523,0.007 -0.23741,0.0176 -7.87394,0.95153 -15.74788,1.90451 -23.62031,2.85604 -2.46992,0.29863 -3.60369,2.49591 -3.37998,4.33748 0,10e-4 0,10e-4 0,0.002 0.0122,0.0995 0.0274,0.19909 0.0487,0.2957 0,0.005 0.001,0.007 0.001,0.0105 0.0197,0.0952 0.0441,0.18738 0.0715,0.27961 0.001,0.007 0.002,0.0131 0.006,0.0205 0.0258,0.0878 0.0562,0.17274 0.0897,0.25764 0.005,0.0105 0.011,0.022 0.0152,0.0337 0.032,0.079 0.067,0.15664 0.10652,0.23129 0.007,0.0161 0.0168,0.0307 0.0244,0.0453 0.038,0.0703 0.0791,0.13907 0.12175,0.2064 0.0122,0.0191 0.0259,0.0365 0.0396,0.0556 0.041,0.0615 0.0852,0.1215 0.1324,0.1786 0.0183,0.0219 0.0365,0.0424 0.0548,0.063 0.0457,0.0527 0.0928,0.10388 0.14153,0.15224 0.0244,0.0234 0.0502,0.0453 0.0746,0.0673 0.0487,0.0439 0.0974,0.0878 0.14914,0.12736 0.0304,0.0234 0.0639,0.0453 0.0958,0.0673 0.0502,0.0351 0.10044,0.0703 0.15218,0.10247 0.0396,0.0234 0.0806,0.0439 0.12016,0.0644 0.0518,0.0279 0.10203,0.0556 0.15523,0.079 0.0472,0.0205 0.0974,0.0381 0.1461,0.057 0.0517,0.0191 0.10202,0.041 0.15674,0.0571 0.0548,0.0176 0.11408,0.0293 0.17197,0.0439 0.0517,0.0131 0.10348,0.0279 0.15675,0.0381 0.067,0.0131 0.13696,0.019 0.20545,0.0279 0.0503,0.006 0.099,0.016 0.15066,0.019 0.0806,0.007 0.16588,0.007 0.2511,0.007 0.0441,0 0.0867,0.005 0.13088,0.002 0.13239,-0.002 0.26784,-0.0131 0.40937,-0.0293 7.80698,-0.94421 15.61396,-1.88987 23.42095,-2.83408 0,1.27504 0,2.55008 0,3.82513 -0.032,0.18884 -0.0199,0.39817 0.0304,0.61922 0.0122,0.0718 0.029,0.13907 0.0487,0.20494 1.90533,5.97557 3.81979,11.94821 5.74034,17.91938 -0.0775,0.0234 -0.15218,0.0498 -0.22827,0.0732 -0.88114,0.26058 -0.50525,1.59271 0.38046,1.33067 0.0913,-0.0263 0.17957,-0.0585 0.26936,-0.0864 0.29523,0.91785 0.59199,1.83424 0.88723,2.75209 -0.53417,2.64524 -0.28154,5.1514 -1.25856,7.72198 -1.5827,4.16914 -3.44237,8.23287 -5.54402,12.18243 -4.18655,7.86983 -9.30751,15.28 -15.19699,22.06216 -11.73025,13.51017 -26.30633,24.63567 -42.4849,32.83048 -8.73226,4.42386 -17.91649,7.91668 -27.40358,10.51068 -1.26616,-3.76218 -2.53689,-7.52289 -3.79696,-11.288 -4.28851,-12.81775 -8.55572,-25.64282 -12.81532,-38.47082 -0.95267,-2.8692 -1.90533,-5.73841 -2.85648,-8.60909 l 20.19924,-10.4243 c 0,0 0.6483,-1.36727 -1.11246,-3.82805 -0.038,-0.0541 -0.0716,-0.1054 -0.11261,-0.16103 -0.0776,-0.10399 -0.1674,-0.21372 -0.25415,-0.32205 -0.0822,-0.10247 -0.16435,-0.20641 -0.25566,-0.31327 -0.0852,-0.098 -0.17501,-0.19909 -0.26632,-0.30156 -0.11408,-0.1259 -0.23589,-0.25325 -0.3622,-0.385 -0.0913,-0.0937 -0.18262,-0.18884 -0.28154,-0.28546 -0.15522,-0.15371 -0.32263,-0.31034 -0.49611,-0.46991 -0.0899,-0.0834 -0.17349,-0.16395 -0.26937,-0.24886 -0.27697,-0.24593 -0.57068,-0.49772 -0.89331,-0.75829 -1.11398,-0.89882 -2.68907,-1.35116 -4.49548,-1.50487 l 0,0 c -0.34242,-0.0293 -0.69396,-0.0454 -1.05007,-0.0542 -0.0654,-10e-4 -0.13087,-10e-4 -0.19631,-0.002 -0.30285,-0.005 -0.60873,-10e-4 -0.91919,0.007 -0.0731,0.001 -0.14609,0.005 -0.22066,0.006 -0.33481,0.0132 -0.67417,0.0322 -1.01658,0.0585 -0.0365,0.002 -0.0746,0.005 -0.11116,0.007 -0.77004,0.0629 -1.55379,0.15664 -2.33753,0.27521 -0.0958,0.0146 -0.19175,0.0293 -0.28762,0.0453 -0.28763,0.0454 -0.57373,0.0922 -0.85984,0.14346 -0.11724,0.0205 -0.23436,0.041 -0.35154,0.063 -0.27697,0.0512 -0.5509,0.1054 -0.82331,0.16103 -0.10653,0.022 -0.21458,0.0425 -0.32111,0.0644 -0.3698,0.0775 -0.73808,0.1581 -1.10028,0.24154 -3.65543,0.84466 -7.38391,1.34091 -11.13066,1.48584 -0.74874,0.0293 -1.499,0.0439 -2.24926,0.0454 -1.50052,0.001 -3.00257,-0.0527 -4.50157,-0.16396 -0.55851,-0.041 -1.12768,-0.0761 -1.69988,-0.10399 -0.0274,-10e-4 -0.0562,-0.005 -0.0838,-0.005 -0.0487,-0.002 -0.0974,-0.006 -0.1461,-0.009 -0.21762,-0.008 -0.43372,-0.019 -0.65134,-0.0263 -0.2998,-0.0105 -0.5996,-0.019 -0.8994,-0.0248 -0.0304,0 -0.0609,-10e-4 -0.0928,-10e-4 -0.3211,-0.006 -0.64373,-0.0105 -0.96331,-0.0105 -0.2511,0 -0.50068,10e-4 -0.74874,0.006 -0.009,0 -0.0183,0 -0.0274,0 -0.57981,0.0105 -1.15202,0.0308 -1.71205,0.0644 l -10e-4,0 0,0 c -1.05919,0.0629 -2.07882,0.17274 -3.01931,0.34255 -0.18566,0.0337 -0.36676,0.0689 -0.54481,0.10692 -0.71374,0.15225 -1.37574,0.34109 -1.97077,0.57384 -0.59352,0.23276 -1.11855,0.50944 -1.55836,0.83588 -0.22066,0.16396 -0.42002,0.33962 -0.59503,0.52846 -0.43829,0.47137 -0.73048,1.02618 -0.8431,1.67468 -0.0716,0.41575 -0.12783,0.80807 -0.17501,1.18575 -0.006,0.0498 -0.0138,0.10247 -0.0183,0.15078 -0.041,0.34401 -0.067,0.67046 -0.0852,0.98519 -0.005,0.0746 -0.009,0.14932 -0.0122,0.22251 -0.011,0.28838 -0.0122,0.56359 -0.005,0.82709 0.002,0.0878 0.007,0.17274 0.0122,0.25765 0.0152,0.243 0.0365,0.47722 0.0685,0.7012 0.0136,0.0908 0.0304,0.17859 0.0471,0.26642 0.0335,0.1786 0.0715,0.35133 0.1187,0.51675 0.032,0.11858 0.07,0.23422 0.10811,0.34694 0.0441,0.12297 0.0913,0.24301 0.14153,0.36012 0.0623,0.13907 0.12936,0.27521 0.20241,0.40696 0.0532,0.0937 0.10652,0.18737 0.16588,0.27667 0.0913,0.14053 0.19175,0.27667 0.29827,0.40696 0.0609,0.0746 0.12175,0.14932 0.18871,0.22105 0.15523,0.16981 0.32719,0.33083 0.51134,0.48601 0.0335,0.0277 0.0639,0.057 0.099,0.0849 l 0,0 c 1.56596,1.25894 4.11198,2.05822 7.84046,2.99364 4.98703,1.25162 8.92553,3.2586 11.26001,4.65222 1.55682,0.9281 3.50021,0.99983 5.12703,0.19323 l 2.51711,-1.24577 c 0.46265,1.39655 0.92528,2.79309 1.38944,4.1911 l -10e-4,0 -0.43677,-1.32189 c -2.4897,3.21762 -5.30965,6.43523 -7.79938,9.65284 -4.32959,-4.89961 -10.16733,-6.79387 -16.92881,-6.60503 -4.70854,0.13028 -9.44143,0 -14.15149,0 -17.35646,0 -34.71445,0 -52.07243,0 -4.45439,0 -8.94835,-0.16396 -13.40153,0 -8.20951,0.30009 -11.52132,8.6003 -6.71918,14.59636 1.34879,1.68493 2.70946,3.36108 4.06724,5.03869 -12.57259,10.00089 -21.72014,23.84043 -25.50996,39.65328 -0.016,0.0659 -0.0325,0.13175 -0.0481,0.19762 -0.19023,0.80367 -0.36615,1.61174 -0.52852,2.42566 -0.0262,0.12882 -0.0499,0.25764 -0.0749,0.38792 -0.15751,0.81539 -0.30619,1.6337 -0.4351,2.45786 l 0.0541,-0.0205 c 2.13588,-0.86369 3.85388,-2.41394 4.9079,-4.3492 0.35199,-0.6441 0.62957,-1.33213 0.82392,-2.05089 3.81766,-14.07816 12.18056,-26.38355 23.47953,-35.40399 0.35444,0.43477 0.71039,0.86808 1.06483,1.30285 -15.34385,12.26441 -25.11505,30.75763 -25.11505,51.44814 0,36.92642 31.12049,66.86134 69.50863,66.86134 33.5259,0 61.50624,-22.83216 68.05771,-53.21357 0.86897,11.52953 10.85977,20.6261 23.06789,20.6261 9.04879,0 16.88013,-5.00062 20.68318,-12.28344 l 11.08043,3.20298 -0.15979,-0.3894 3.15629,7.68831 c 0.0471,0.11419 0.10494,0.21959 0.17195,0.3162 0.33633,0.48747 0.90855,0.76854 1.50205,0.75829 0.23742,-0.005 0.47937,-0.0541 0.70917,-0.15663 l 1.78054,-0.7905 0,0 1.44726,-0.64411 c 0.85831,-0.38061 1.25247,-1.34238 0.89484,-2.18265 l -5.054,-11.91453 c -0.32415,-0.76561 -1.16268,-1.17843 -1.97381,-1.02618 l -10e-4,0 c -0.11712,0.0234 -0.23284,0.057 -0.34698,0.10247 l -3.13192,1.27358 c -0.662,0.26935 -1.0668,0.88272 -1.07898,1.53414 -0.002,0.21812 0.0365,0.43917 0.12479,0.65436 l 0.69396,1.69225 -8.45072,-3.33326 c 0.70613,-2.13141 1.08963,-4.40189 1.08963,-6.75874 0,-6.25664 -2.68755,-11.90722 -7.00955,-15.95046 23.459,-22.20856 47.09909,-44.23998 70.70571,-66.30215 1.89924,-1.77422 3.79848,-3.54845 5.69773,-5.32267 0.60721,1.89573 1.21746,3.78999 1.83076,5.68425 -23.5427,12.99635 -39.20231,37.47831 -38.9649,65.60973 0.0183,2.1197 0.12782,4.21744 0.32565,6.29176 0.19785,2.07433 0.48242,4.12376 0.85223,6.14538 l 0.16588,-0.14785 c 0.58135,-0.51675 1.09116,-1.09206 1.52639,-1.70982 1.30269,-1.85473 1.92361,-4.10326 1.76228,-6.38545 -0.11261,-1.58977 -0.17197,-3.19419 -0.17197,-4.81178 0,-25.81263 14.40259,-48.38569 35.89539,-60.69987 0.27393,0.84027 0.55547,1.67761 0.83244,2.51788 -20.11097,11.71691 -33.55025,32.96223 -33.55025,57.229 0,36.92789 31.11989,66.86281 69.50803,66.86281 38.38814,0 69.50802,-29.93492 69.50802,-66.86281 0,-36.92642 -31.11988,-66.86134 -69.50802,-66.86134" />
        <g
           id="g4293">
          <path
             inkscape:connector-curvature="0"
             id="path4281"
             d="M 431.42857,699.50504 C 423.36353,548.92751 355.65101,502.56386 247.14286,422.36218"
             style="fill:none;stroke:#333333;stroke-width:2.12598419;stroke-linecap:butt;stroke-linejoin:miter;stroke-miterlimit:4;stroke-opacity:1;stroke-dasharray:none" />
          <path
             inkscape:connector-curvature="0"
             id="path4283"
             d="m 520,535.21933 c -29.84528,47.17479 -121.47451,65.815 -88.57143,164.28571 C 413.98237,593.12158 464.62201,519.98271 500,436.6479"
             style="fill:none;stroke:#333333;stroke-width:2.12598419;stroke-linecap:butt;stroke-linejoin:miter;stroke-miterlimit:4;stroke-opacity:1;stroke-dasharray:none" />
          <path
             inkscape:connector-curvature="0"
             id="path4289"
             d="m 284.28571,555.21933 c 62.57903,44.41092 135.0635,60.57435 150,142.85714 -17.49199,-108.51116 -93.54175,-138.97384 -160,-201.42857"
             style="fill:none;stroke:#333333;stroke-width:2.12598419;stroke-linecap:butt;stroke-linejoin:miter;stroke-miterlimit:4;stroke-opacity:1;stroke-dasharray:none" />
          <path
             inkscape:connector-curvature="0"
             id="path4291"
             d="M 431.42857,696.6479 C 407.69296,582.83943 445.88595,476.08936 470,383.79075"
             style="fill:none;stroke:#333333;stroke-width:2.12598419;stroke-linecap:butt;stroke-linejoin:miter;stroke-miterlimit:4;stroke-opacity:1;stroke-dasharray:none" />
        </g>
      </g>
      <path
         style="fill:none;stroke:#333333;stroke-width:2;stroke-linecap:butt;stroke-linejoin:miter;stroke-miterlimit:4;stroke-opacity:1;stroke-dasharray:none"
         d="m 311.64286,747.36217 c -1.73495,-67.64071 -23.10229,-130.70225 -42.14286,-190"
         id="path6598"
         inkscape:connector-curvature="0" />
    </g>
    <path
       style="fill:none;stroke:#ffffff;stroke-width:0.04901630000000000px;stroke-linecap:butt;stroke-linejoin:miter;stroke-opacity:1;fill-opacity:1"
       d="m 243.71318,908.17095 0,0"
       id="path4890"
       inkscape:path-effect="#path-effect4892"
       inkscape:original-d="m 243.71318,908.17095 c -21.5484,-7.17532 22.49624,-2.22578 0,0 z"
       inkscape:connector-curvature="0" />
    <path
       style="fill:none;stroke:#ffffff;stroke-width:0.04901630000000000px;stroke-linecap:butt;stroke-linejoin:miter;stroke-opacity:1;fill-opacity:1"
       d="m 243.71318,908.17095 0,0"
       id="path4894"
       inkscape:path-effect="#path-effect4896"
       inkscape:original-d="m 243.71318,908.17095 c -6.38388,-8.92626 -4.00368,-2.49223 0,0 z"
       inkscape:connector-curvature="0" />
    <g
       id="g7826"
       style="fill:none;stroke:#ffffff;stroke-opacity:1"
       transform="matrix(1.143185,0,0,1.143185,92.128012,-187.50365)">
      <path
         inkscape:connector-curvature="0"
         id="path4332"
         d="m 117.57972,967.48807 29.44114,0.008"
         style="fill:none;stroke:#ffffff;stroke-width:0.490163;stroke-linecap:butt;stroke-linejoin:miter;stroke-miterlimit:4;stroke-opacity:1;stroke-dasharray:none" />
      <flowRoot
         transform="matrix(0.0490163,0,0,0.0490163,114.63874,944.13856)"
         style="font-size:12px;font-style:normal;font-variant:normal;font-weight:normal;font-stretch:normal;line-height:125%;letter-spacing:0px;word-spacing:0px;fill:#ffffff;fill-opacity:1;stroke:#ffffff;stroke-opacity:1;font-family:Oxygen;-inkscape-font-specification:Oxygen"
         id="flowRoot4931"
         xml:space="preserve"><flowRegion
           id="flowRegion4933"
           style="stroke:url(#linearGradient7809)"><rect
             style="font-size:12px;font-style:normal;font-variant:normal;font-weight:normal;font-stretch:normal;fill:#ffffff;fill-opacity:1;stroke:#ffffff;stroke-opacity:1;font-family:Oxygen;-inkscape-font-specification:Oxygen"
             y="472.36218"
             x="60"
             height="163.57143"
             width="603.57141"
             id="rect4935" /></flowRegion><flowPara
           style="font-size:102px;font-style:normal;font-variant:normal;font-weight:normal;font-stretch:normal;text-align:center;text-anchor:middle;fill:#ffffff;fill-opacity:1;stroke:#ffffff;stroke-opacity:1;font-family:Oxygen;-inkscape-font-specification:Oxygen"
           id="flowPara4937">juffenkado.nl</flowPara></flowRoot>      <path
         inkscape:connector-curvature="0"
         id="path4336"
         d="m 131.51356,961.81205 0,5.63322"
         style="fill:none;stroke:#ffffff;stroke-width:0.490163;stroke-linecap:butt;stroke-linejoin:miter;stroke-miterlimit:4;stroke-opacity:1;stroke-dasharray:none" />
      <rect
         y="961.85333"
         x="127.772"
         height="5.5489454"
         width="7.5126977"
         id="rect4326"
         style="fill:none;stroke:#ffffff;stroke-width:0.490163;stroke-miterlimit:4;stroke-opacity:1;stroke-dasharray:none" />
      <g
         transform="matrix(0.0236828,0,0,0.02347175,122.98775,956.35811)"
         style="fill:none;stroke:#ffffff;stroke-width:20.78984642;stroke-miterlimit:4;stroke-opacity:1;stroke-dasharray:none"
         id="g4925">
        <path
           style="fill:none;stroke:#ffffff;stroke-width:20.78984642;stroke-linecap:butt;stroke-linejoin:miter;stroke-miterlimit:4;stroke-opacity:1;stroke-dasharray:none"
           d="m 360.78008,230.05341 c 25.47519,-279.177076 344.72771,-16.55813 0,0"
           id="path4900"
           inkscape:connector-curvature="0"
           inkscape:transform-center-x="-9.8041159"
           inkscape:transform-center-y="19.904251" />
        <path
           inkscape:transform-center-y="19.904251"
           inkscape:transform-center-x="9.8041156"
           inkscape:connector-curvature="0"
           id="path4913"
           d="m 359.15741,229.04326 c -25.47519,-279.177078 -344.727714,-16.55813 0,0"
           style="fill:none;stroke:#ffffff;stroke-width:20.78984642;stroke-linecap:butt;stroke-linejoin:miter;stroke-miterlimit:4;stroke-opacity:1;stroke-dasharray:none" />
        <path
           style="fill:none;stroke:#ffffff;stroke-width:20.78984642;stroke-linecap:butt;stroke-linejoin:miter;stroke-miterlimit:4;stroke-opacity:1;stroke-dasharray:none"
           d="m 360,232.36218 c -5.29356,47.29557 -61.0765,61.07651 -80,80"
           id="path4921"
           inkscape:connector-curvature="0" />
        <path
           inkscape:connector-curvature="0"
           id="path4923"
           d="m 362,234.36218 c 5.29356,47.29557 61.0765,61.07651 80,80"
           style="fill:none;stroke:#ffffff;stroke-width:20.78984642;stroke-linecap:butt;stroke-linejoin:miter;stroke-miterlimit:4;stroke-opacity:1;stroke-dasharray:none" />
      </g>
      <path
         transform="matrix(0.01818292,0.0104976,-0.010589,0.01801579,128.31173,953.36513)"
         inkscape:transform-center-y="-0.78450396"
         inkscape:transform-center-x="3.0431813"
         d="m 420,332.36218 17.94181,-23.66553 -9.32362,-28.19639 28.05158,9.75062 23.9352,-17.58045 -0.60497,29.69175 24.11638,17.33107 -28.42547,8.59989 -9.03046,28.29164 -16.96294,-24.37672 z"
         inkscape:randomized="0"
         inkscape:rounded="0"
         inkscape:flatsided="false"
         sodipodi:arg2="3.3062635"
         sodipodi:arg1="2.677945"
         sodipodi:r2="22.36068"
         sodipodi:r1="44.721359"
         sodipodi:cy="312.36218"
         sodipodi:cx="460"
         sodipodi:sides="5"
         id="path4943"
         style="fill:none;stroke:#ffffff;stroke-width:23.40116882;stroke-miterlimit:4;stroke-opacity:1;stroke-dasharray:none"
         sodipodi:type="star" />
    </g>
    <path
       style="fill:none;stroke:#333333;stroke-width:1px;stroke-linecap:butt;stroke-linejoin:miter;stroke-opacity:1"
       d="m 317.14286,488.3802 c -0.3105,-1.95579 -0.50589,-3.79414 -0.71429,-5.35715"
       id="path7845"
       inkscape:connector-curvature="0"
       transform="translate(0,308.26769)" />
  </g>
</svg>
